<svg width="17" height="16" viewBox="0 0 17 16" fill="none" xmlns="http://www.w3.org/2000/svg">
<g clip-path="url(#clip0_19747_21360)">
<path fill-rule="evenodd" clip-rule="evenodd" d="M8.75 14.6667H4.08333C3.1996 14.6656 2.35237 14.3141 1.72748 13.6892C1.10259 13.0643 0.751059 12.2171 0.75 11.3333V7.33333C0.751059 6.4496 1.10259 5.60237 1.72748 4.97748C2.35237 4.35259 3.1996 4.00106 4.08333 4H13.4167C14.3004 4.00106 15.1476 4.35259 15.7725 4.97748C16.3974 5.60237 16.7489 6.4496 16.75 7.33333V11.3333C16.7499 11.389 16.7485 11.4445 16.7456 11.4999C16.7306 11.7933 16.471 12 16.1773 12H15.982C15.6503 12 15.4167 11.665 15.4167 11.3333V7.33333C15.4167 6.8029 15.206 6.29419 14.8309 5.91912C14.4558 5.54405 13.9471 5.33333 13.4167 5.33333H4.08333C3.5529 5.33333 3.04419 5.54405 2.66912 5.91912C2.29405 6.29419 2.08333 6.8029 2.08333 7.33333V11.3333C2.08333 11.8638 2.29405 12.3725 2.66912 12.7475C3.04419 13.1226 3.5529 13.3333 4.08333 13.3333H8.75C9.11819 13.3333 9.41667 13.6318 9.41667 14C9.41667 14.3682 9.11819 14.6667 8.75 14.6667ZM8.75 12C8.22258 12 7.70701 11.8436 7.26848 11.5506C6.82995 11.2576 6.48815 10.8411 6.28632 10.3538C6.08449 9.86655 6.03168 9.33038 6.13457 8.81309C6.23747 8.29581 6.49144 7.82066 6.86438 7.44772C7.23732 7.07478 7.71248 6.8208 8.22976 6.71791C8.74704 6.61501 9.28322 6.66782 9.77049 6.86965C10.2578 7.07149 10.6742 7.41328 10.9673 7.85181C11.2603 8.29034 11.4167 8.80592 11.4167 9.33333C11.4167 10.0406 11.1357 10.7189 10.6356 11.219C10.1355 11.719 9.45724 12 8.75 12ZM8.75 8C8.48629 8 8.22851 8.0782 8.00924 8.22471C7.78997 8.37122 7.61908 8.57945 7.51816 8.82309C7.41724 9.06672 7.39084 9.33481 7.44229 9.59345C7.49373 9.8521 7.62072 10.0897 7.80719 10.2761C7.99366 10.4626 8.23124 10.5896 8.48988 10.641C8.74852 10.6925 9.01661 10.6661 9.26024 10.5652C9.50388 10.4643 9.71212 10.2934 9.85863 10.0741C10.0051 9.85483 10.0833 9.59704 10.0833 9.33333C10.0833 8.97971 9.94286 8.64057 9.69281 8.39052C9.44276 8.14048 9.10362 8 8.75 8Z" fill="#1D1D1B"/>
<path d="M14.3595 12.1144L13.4167 13.0572L12.4739 12.1144C12.3489 11.9894 12.1793 11.9191 12.0025 11.9191C11.8257 11.9191 11.6561 11.9894 11.5311 12.1144C11.4061 12.2394 11.3359 12.409 11.3359 12.5858C11.3359 12.7626 11.4061 12.9322 11.5311 13.0572L12.4739 14L11.5311 14.9428C11.4061 15.0678 11.3359 15.2374 11.3359 15.4142C11.3359 15.591 11.4061 15.7606 11.5311 15.8856C11.6561 16.0106 11.8257 16.0809 12.0025 16.0809C12.1793 16.0809 12.3489 16.0106 12.4739 15.8856L13.4167 14.9428L14.3595 15.8856C14.4846 16.0106 14.6541 16.0809 14.8309 16.0809C15.0078 16.0809 15.1773 16.0106 15.3024 15.8856C15.4274 15.7606 15.4976 15.591 15.4976 15.4142C15.4976 15.2374 15.4274 15.0678 15.3024 14.9428L14.3595 14L15.3024 13.0572C15.4274 12.9322 15.4976 12.7626 15.4976 12.5858C15.4976 12.409 15.4274 12.2394 15.3024 12.1144C15.1773 11.9894 15.0078 11.9191 14.8309 11.9191C14.6541 11.9191 14.4846 11.9894 14.3595 12.1144Z" fill="#1D1D1B"/>
</g>
<defs>
<clipPath id="clip0_19747_21360">
<rect width="16" height="16" fill="white" transform="translate(0.75)"/>
</clipPath>
</defs>
</svg>
