<svg width="34" height="31" viewBox="0 0 34 31" fill="none" xmlns="http://www.w3.org/2000/svg">
<path d="M13.5913 0.618164C14.2862 0.832483 15.0184 0.969041 15.6721 1.27629C16.569 1.69979 17.3585 2.32527 17.9803 3.10494C18.6022 3.88462 19.0398 4.79789 19.2599 5.77501C19.48 6.75213 19.4766 7.76726 19.2502 8.74288C19.0237 9.7185 18.5801 10.6288 17.9532 11.4043C15.2188 14.8524 9.87748 14.6134 7.46526 10.9358C6.98294 10.2064 6.64859 9.38718 6.48162 8.52576C6.31466 7.66434 6.31842 6.7779 6.49267 5.91796C6.66693 5.05803 7.00821 4.24174 7.49669 3.51653C7.98517 2.79132 8.61109 2.17166 9.3381 1.69355C10.1473 1.16767 11.0588 0.824196 12.0106 0.686443C12.0949 0.67127 12.1773 0.640924 12.2616 0.618164H13.5913Z" fill="white"/>
<path d="M33.9998 19.6318C33.908 19.7683 33.8032 19.8954 33.687 20.0112C33.2432 20.3905 32.7787 20.73 32.3404 21.1074C32.2277 21.2169 32.1573 21.3635 32.1419 21.5209C32.1138 21.8869 32.1419 22.2606 32.1232 22.6285C32.1118 22.7328 32.13 22.8382 32.1758 22.9323C32.2216 23.0264 32.293 23.1052 32.3816 23.1596C32.8255 23.4934 33.2581 23.8443 33.6926 24.1913C33.9998 24.436 34.0316 24.5934 33.8294 24.9386C33.3149 25.8148 32.7987 26.6905 32.2805 27.5654C32.0726 27.9125 31.8816 27.9732 31.4995 27.8177C30.977 27.6053 30.4489 27.4004 29.9357 27.1653C29.8494 27.1191 29.7516 27.0995 29.6544 27.1089C29.5572 27.1184 29.4649 27.1564 29.3888 27.2184C29.1442 27.3919 28.884 27.5417 28.6116 27.666C28.4935 27.71 28.3921 27.7904 28.3215 27.8959C28.251 28.0013 28.2149 28.1266 28.2183 28.2539C28.164 28.7888 28.0797 29.3198 27.9992 29.8509C27.9355 30.2776 27.8325 30.363 27.4111 30.363C26.4148 30.363 25.4165 30.363 24.4146 30.363C24.0887 30.363 23.9164 30.2283 23.8733 29.9059C23.7965 29.3502 23.686 28.7982 23.6448 28.2406C23.6473 28.1077 23.6061 27.9777 23.5278 27.871C23.4496 27.7643 23.3386 27.6868 23.2122 27.6508C23.0419 27.5994 22.8834 27.5143 22.7459 27.4004C22.3713 27.059 22.0117 27.0609 21.5791 27.2942C21.1699 27.4938 20.7497 27.6692 20.3205 27.8196C19.9628 27.9618 19.7905 27.903 19.5976 27.5787C19.0782 26.7037 18.5613 25.8275 18.0469 24.95C17.8334 24.5839 17.8596 24.4417 18.1892 24.1781C18.6312 23.8234 19.0713 23.4649 19.5246 23.1235C19.6019 23.0726 19.6628 22.9998 19.6998 22.9142C19.7367 22.8286 19.7481 22.7339 19.7325 22.6418C19.7073 22.2629 19.7073 21.8827 19.7325 21.5038C19.747 21.4178 19.7371 21.3293 19.704 21.2487C19.6708 21.1681 19.6158 21.0987 19.5452 21.0486C19.0788 20.6883 18.6219 20.3146 18.163 19.9429C17.8559 19.6925 17.8296 19.5636 18.03 19.226C18.5469 18.3522 19.0682 17.4792 19.5939 16.6067C19.8167 16.2274 19.9872 16.1876 20.4011 16.3526C20.9273 16.5631 21.4461 16.7869 21.978 16.9804C22.1196 17.0163 22.2689 17.0043 22.4031 16.9462C22.5904 16.8647 22.7534 16.6902 22.95 16.6333C23.5119 16.4721 23.6823 16.0851 23.6991 15.5408C23.7357 15.0949 23.7982 14.6516 23.8864 14.2132C23.9501 13.8338 24.1093 13.758 24.4633 13.8756C24.5806 13.9064 24.7018 13.9191 24.8228 13.9135C25.6862 13.9135 26.5515 13.9135 27.4149 13.9135C27.8325 13.9135 27.9074 13.9818 27.9767 14.4085C28.0647 14.9965 28.1322 15.5863 28.237 16.1705C28.2755 16.3242 28.3673 16.4588 28.4955 16.5498C28.6828 16.6845 28.9375 16.7395 29.106 16.8817C29.505 17.2383 29.8758 17.1833 30.3065 16.9462C30.7123 16.7399 31.1287 16.5556 31.5538 16.3943C31.6144 16.3586 31.6816 16.3362 31.7512 16.3287C31.8209 16.3211 31.8913 16.3284 31.9579 16.3503C32.0245 16.3721 32.0859 16.4079 32.1379 16.4554C32.1899 16.5028 32.2315 16.5609 32.2599 16.6257C32.7918 17.5108 33.3193 18.3959 33.8425 19.281C33.9007 19.3952 33.9532 19.5123 33.9998 19.6318ZM23.6991 22.1183C23.6991 23.4573 24.7835 24.6105 26.0702 24.6257C26.5571 24.6418 27.0378 24.5107 27.4508 24.249C27.8638 23.9874 28.1905 23.607 28.3891 23.1565C28.5878 22.7059 28.6493 22.2057 28.566 21.7196C28.4826 21.2335 28.2581 20.7835 27.9212 20.4272C27.5842 20.0708 27.15 19.8242 26.6741 19.7189C26.1981 19.6135 25.7019 19.6542 25.2489 19.8357C24.7958 20.0171 24.4064 20.3312 24.1304 20.7378C23.8544 21.1443 23.7042 21.625 23.6991 22.1183Z" fill="white"/>
<path d="M15.8052 27.061H0.0115001V26.3839C0.0115001 25.667 0.0508298 24.9462 0.0115001 24.2312C-0.100871 22.6475 0.61081 21.4811 1.74763 20.4986C3.07547 19.3607 4.62993 18.6627 6.27804 18.1696C9.30081 17.2668 12.3947 17.0714 15.5243 17.3085C15.5795 17.3125 15.6345 17.3195 15.6891 17.3294C15.7236 17.3461 15.7562 17.3664 15.7865 17.3901C15.0898 18.9032 14.7305 20.5531 14.7339 22.2227C14.74 23.8951 15.1056 25.5461 15.8052 27.061Z" fill="white"/>
</svg>
