<svg width="30" height="30" viewBox="0 0 30 30" fill="none" xmlns="http://www.w3.org/2000/svg">
<g clip-path="url(#clip0_111_484)">
<path d="M26.2356 21.1724V24.8091C26.2356 25.5247 26.2356 26.2412 26.2356 26.9578C26.2262 28.2772 25.465 29.0593 24.1743 29.0593C18.1995 29.0593 12.2232 29.0593 6.24555 29.0593C5.46024 29.0593 4.67285 29.0668 3.88754 29.0593C2.62939 29.0453 1.85142 28.2686 1.85037 26.9847C1.84758 20.0551 1.84793 13.1262 1.85142 6.198C1.85142 4.82604 2.60317 4.07399 3.93368 4.06647C4.64768 4.06647 5.36169 4.06647 6.14594 4.06647C6.14594 4.74439 6.14594 5.38363 6.14594 6.02288C6.15433 7.57855 7.15771 8.68836 8.55741 8.69696C9.95712 8.70555 10.9961 7.56888 11.0014 5.99172C11.0014 5.36967 11.0014 4.74761 11.0014 4.09548H17.0825C17.0825 4.82604 17.0647 5.55338 17.0825 6.27857C17.095 6.82033 17.281 7.34285 17.6118 7.76566C17.9426 8.18848 18.3998 8.48815 18.9131 8.61853C19.9217 8.88497 21.0258 8.47242 21.5343 7.53235C21.7618 7.11443 21.8666 6.59658 21.9138 6.11205C21.9767 5.45884 21.9296 4.79596 21.9296 4.10622C22.8973 4.10622 23.822 4.03746 24.7311 4.12771C25.5625 4.20936 26.1989 5.01942 26.2104 5.89718C26.2335 7.92019 26.2209 9.94321 26.2104 11.9662C26.2136 12.1065 26.174 12.2443 26.0972 12.3605C25.6904 12.8977 25.2647 13.4112 24.752 14.0494V11.0713H3.335V11.6482C3.335 16.3575 3.335 21.0661 3.335 25.7739C3.335 26.8783 3.85924 27.4596 4.93287 27.5444C5.08909 27.5573 5.24741 27.5552 5.40468 27.5552C11.1524 27.5552 16.9004 27.5552 22.6488 27.5552C22.9106 27.5626 23.1726 27.5479 23.432 27.5111C24.2708 27.3672 24.7457 26.7849 24.751 25.9146C24.751 25.0734 24.7216 24.23 24.7678 23.391C24.7981 23.0489 24.9132 22.7205 25.1022 22.4369C25.401 21.9793 25.7764 21.5775 26.1203 21.1477L26.2356 21.1724Z" fill="white"/>
<path d="M20.8664 25.8072C20.7252 25.7181 20.5896 25.6198 20.4607 25.5128C18.7255 23.8777 17.0007 22.235 15.2592 20.603C14.9541 20.3172 14.973 20.0776 15.2435 19.7886C15.7258 19.2708 16.2029 18.7476 16.6631 18.2093C16.9483 17.8752 17.1874 17.887 17.5019 18.1814C18.3271 18.9807 19.1669 19.7639 20.0025 20.5504C20.5383 21.0542 20.5865 21.0478 21.0625 20.4526C22.7883 18.2931 24.5141 16.1337 26.2398 13.9742C26.7074 13.3898 26.7641 13.3855 27.3229 13.8571C27.7832 14.2428 28.2424 14.6274 28.6995 15.0153C29.1839 15.4246 29.1965 15.5234 28.8044 16.0112C26.669 18.6842 24.5329 21.3561 22.3962 24.027C22.0082 24.5115 21.6255 24.9993 21.2313 25.4784C21.1179 25.5973 20.996 25.7072 20.8664 25.8072Z" fill="white"/>
<path d="M7.01929 3.87949C7.01929 3.12744 7.00775 2.37539 7.01929 1.62871C7.03921 0.687569 7.68087 0.0139457 8.55634 -2.09801e-05C8.75745 -0.00472333 8.95748 0.0314351 9.14488 0.106367C9.33228 0.1813 9.50334 0.293522 9.6482 0.436557C9.79305 0.579593 9.90882 0.750608 9.98883 0.939734C10.0688 1.12886 10.1115 1.33235 10.1144 1.53846C10.1511 3.11025 10.1479 4.68204 10.1144 6.25383C10.1091 6.67051 9.94259 7.06801 9.65141 7.35893C9.36023 7.64984 8.96823 7.81036 8.56158 7.8052C7.70289 7.79876 7.03501 7.10579 7.02138 6.18292C7.00985 5.41583 7.01929 4.64766 7.01929 3.87949Z" fill="white"/>
<path d="M21.0729 3.89777C21.0729 4.64982 21.0824 5.40188 21.0729 6.14748C21.0572 7.10581 20.383 7.81167 19.5117 7.80629C18.6614 7.79985 17.9789 7.11333 17.9653 6.18294C17.9429 4.66522 17.9429 3.14715 17.9653 1.62873C17.9747 0.669323 18.6698 -0.0128957 19.5537 -3.43408e-06C20.4071 0.0139632 21.054 0.704776 21.0708 1.64592C21.0834 2.39689 21.0729 3.1468 21.0729 3.89777Z" fill="white"/>
<path d="M10.4006 16.0939V13.3586H13.0753V16.0939H10.4006Z" fill="white"/>
<path d="M17.6833 16.0993H15.0171V13.3543H17.6833V16.0993Z" fill="white"/>
<path d="M19.5203 13.3306H22.1792V16.0831H19.5203V13.3306Z" fill="white"/>
<path d="M5.80103 17.843H8.46937V20.5879H5.80103V17.843Z" fill="white"/>
<path d="M10.4185 17.8397H13.0774V20.5922H10.4185V17.8397Z" fill="white"/>
<path d="M8.4777 25.2303H5.8125V22.4896H8.4777V25.2303Z" fill="white"/>
<path d="M13.0711 25.2313H10.4038V22.4949H13.0711V25.2313Z" fill="white"/>
</g>
<defs>
<clipPath id="clip0_111_484">
<rect width="27.2308" height="29.0625" fill="white" transform="translate(1.84619)"/>
</clipPath>
</defs>
</svg>
