<svg width="15" height="16" viewBox="0 0 15 16" fill="none" xmlns="http://www.w3.org/2000/svg">
<path d="M0.341938 7.63822C0.382851 6.19467 0.851114 4.7957 1.68746 3.61839C2.5238 2.44108 3.69062 1.53836 5.04023 1.02449C6.38985 0.510617 7.86158 0.408692 9.26914 0.73162C10.6767 1.05455 11.9568 1.78781 12.9475 2.83859C13.9381 3.88937 14.5948 5.21043 14.8343 6.63457C15.0738 8.0587 14.8854 9.52188 14.293 10.8389C13.7006 12.1559 12.7307 13.2676 11.5062 14.0332C10.2817 14.7988 8.85762 15.1839 7.41416 15.1397C5.48429 15.0748 3.65823 14.25 2.33363 12.845C1.00903 11.44 0.293167 9.56857 0.341938 7.63822ZM13.5035 7.87547C13.5102 6.71408 13.1724 5.57677 12.533 4.60725C11.8935 3.63772 10.981 2.87949 9.91083 2.42836C8.84062 1.97723 7.6607 1.85344 6.52016 2.07264C5.37962 2.29184 4.32965 2.84418 3.5029 3.65988C2.67616 4.47558 2.10974 5.51804 1.87523 6.65552C1.64071 7.79301 1.74862 8.97449 2.18532 10.0507C2.62202 11.1269 3.36791 12.0495 4.32874 12.7019C5.28958 13.3543 6.42224 13.7073 7.58362 13.7163C9.13297 13.7104 10.6175 13.0938 11.7152 12.0004C12.8128 10.9069 13.4351 9.42478 13.447 7.87547H13.5035Z" fill="#082755"/>
<path d="M6.838 5.71764C6.838 5.07368 6.838 4.42973 6.838 3.78577C6.82855 3.69812 6.83752 3.60946 6.86434 3.52548C6.89115 3.44149 6.93523 3.36405 6.99373 3.2981C7.05224 3.23215 7.12388 3.17915 7.20406 3.14251C7.28425 3.10587 7.3712 3.08639 7.45936 3.08533C7.54698 3.08806 7.63312 3.10865 7.7125 3.14585C7.79188 3.18304 7.86283 3.23605 7.921 3.30163C7.97917 3.36721 8.02335 3.44397 8.05081 3.52722C8.07828 3.61047 8.08845 3.69845 8.08072 3.78577V7.26539C8.07637 7.37286 8.09532 7.47999 8.13627 7.57945C8.17722 7.6789 8.23921 7.76832 8.31797 7.84156L10.7243 10.2479C10.7992 10.3048 10.86 10.3783 10.9018 10.4626C10.9436 10.5468 10.9654 10.6396 10.9654 10.7337C10.9654 10.8278 10.9436 10.9206 10.9018 11.0049C10.86 11.0891 10.7992 11.1626 10.7243 11.2195C10.6065 11.3089 10.4602 11.3525 10.3126 11.3421C10.1651 11.3317 10.0263 11.2681 9.92221 11.163C8.99582 10.2479 8.06942 9.33283 7.15433 8.40644C6.95111 8.18959 6.84151 7.9014 6.8493 7.60432C6.8493 6.97166 6.838 6.339 6.838 5.71764Z" fill="#082755"/>
</svg>
