<svg width="18" height="19" viewBox="0 0 18 19" fill="none" xmlns="http://www.w3.org/2000/svg">
<path d="M11.9179 2.26718C11.4277 2.53461 10.9934 2.88641 10.637 3.30483C8.53143 5.81059 10.0468 9.58585 13.3706 10.0866C13.783 10.1484 14.2142 10.1094 14.6355 10.1037C14.7528 10.1037 14.7916 10.1218 14.8065 10.2368C14.8979 10.976 15.034 11.7068 15.3212 12.4033C15.5479 13.0013 16.005 13.4939 16.599 13.7802C17.1823 14.0652 17.4029 14.5299 17.2837 15.1437C17.2653 15.2405 17.2111 15.3277 17.131 15.3893C17.0509 15.4509 16.9502 15.4828 16.8475 15.4792C16.5305 15.4792 16.2145 15.4792 15.8975 15.4792H1.36706C0.929844 15.4792 0.778806 15.3271 0.80166 14.909C0.807716 14.7817 0.821652 14.6547 0.843395 14.5289C0.862086 14.3857 0.916175 14.2487 1.00119 14.1294C1.0862 14.0101 1.19969 13.9119 1.33228 13.8429C1.4545 13.7792 1.57871 13.7184 1.70193 13.6528C2.24348 13.3868 2.56642 12.9459 2.78503 12.4175C3.07021 11.7305 3.19839 11.0093 3.2918 10.2805C3.44284 9.10218 3.45377 7.91725 3.47563 6.73231C3.4929 5.60292 3.88679 4.50831 4.59993 3.60791C5.31307 2.70752 6.3082 2.04838 7.44037 1.7265C7.63601 1.67055 7.83514 1.62643 8.03658 1.59442C8.16377 1.57352 8.2055 1.52316 8.19755 1.40438C8.18992 1.29203 8.19526 1.17922 8.21345 1.068C8.24276 0.87908 8.34267 0.706723 8.49467 0.582851C8.64668 0.458978 8.84049 0.391986 9.04018 0.394283C9.24048 0.39294 9.43474 0.45979 9.58821 0.582875C9.74168 0.70596 9.84435 0.877249 9.87785 1.0661C9.89818 1.18253 9.90518 1.30074 9.89872 1.41863C9.89077 1.53646 9.93946 1.57827 10.0547 1.59727C10.6473 1.69535 11.2183 1.88809 11.744 2.16741C11.7946 2.19972 11.8443 2.22537 11.9179 2.26718Z" fill="white"/>
<path d="M10.4266 5.91998C10.4278 5.46014 10.5246 5.00512 10.7113 4.58133C10.8979 4.15754 11.1707 3.77342 11.5139 3.45128C11.857 3.12915 12.2637 2.8754 12.7102 2.70477C13.1568 2.53415 13.6343 2.45005 14.1151 2.45735C16.1104 2.4678 17.7102 4.04518 17.7003 5.99315C17.6903 7.89361 16.0379 9.42823 14.0147 9.41397C13.0551 9.40344 12.139 9.02995 11.4665 8.37519C10.7941 7.72042 10.4202 6.83767 10.4266 5.91998ZM13.8051 4.9764V7.59238H14.4341V4.27989C14.3347 4.27989 14.2294 4.25043 14.1578 4.27989C13.7902 4.45473 13.4324 4.64667 13.0588 4.83862C13.1373 4.9764 13.2079 5.09898 13.2804 5.22726L13.8051 4.9764Z" fill="#C80919"/>
<path d="M11.7182 16.3582C11.6815 17.5279 10.6252 18.9238 8.8366 18.9133C7.09171 18.9038 6.02649 17.5393 5.99072 16.3582H11.7182Z" fill="white"/>
</svg>
