<svg width="9" height="11" viewBox="0 0 9 11" fill="none" xmlns="http://www.w3.org/2000/svg">
<path d="M2.01724 1.61792V2.36555C2.02081 2.50285 2.07694 2.63354 2.17406 2.73066C2.27118 2.82778 2.40187 2.88392 2.53917 2.88749C2.6071 2.8857 2.67399 2.8703 2.73586 2.8422C2.79774 2.81409 2.85335 2.77385 2.89939 2.72387C2.94543 2.67388 2.98097 2.61517 3.0039 2.5512C3.02683 2.48723 3.03669 2.41929 3.03289 2.35144V1.73077C3.03289 1.73077 3.03289 1.73077 3.03289 1.63203H3.5125V2.35144C3.5125 2.48612 3.566 2.6153 3.66124 2.71053C3.75647 2.80577 3.88564 2.85927 4.02032 2.85927C4.15501 2.85927 4.28418 2.80577 4.37941 2.71053C4.47465 2.6153 4.52815 2.48612 4.52815 2.35144V1.61792H5.00776V2.35144C5.00776 2.48987 5.06275 2.62263 5.16064 2.72051C5.25852 2.81839 5.39127 2.87338 5.5297 2.87338C5.59763 2.87159 5.66452 2.85619 5.72639 2.82809C5.78827 2.79998 5.84387 2.75976 5.88991 2.70977C5.93595 2.65978 5.97149 2.60106 5.99442 2.53709C6.01735 2.47312 6.02721 2.40519 6.02342 2.33734C6.02342 2.09754 6.02342 1.85773 6.02342 1.61792H6.50303V2.36555C6.50303 2.50023 6.55653 2.62941 6.65177 2.72464C6.747 2.81988 6.87617 2.87338 7.01085 2.87338C7.14554 2.87338 7.27471 2.81988 7.36994 2.72464C7.46518 2.62941 7.51868 2.50023 7.51868 2.36555V1.61792H8.36505C8.44962 1.6179 8.53333 1.63478 8.61128 1.66756C8.68923 1.70033 8.75984 1.74835 8.81897 1.8088C8.87811 1.86925 8.92457 1.9409 8.95563 2.01956C8.98668 2.09821 9.00172 2.18227 8.99984 2.26681V9.4751C9.00177 9.55899 8.98667 9.6424 8.95545 9.72029C8.92423 9.79818 8.87754 9.86892 8.81821 9.92826C8.75887 9.98759 8.68813 10.0343 8.61024 10.0655C8.53235 10.0967 8.44894 10.1118 8.36505 10.1099H1.18497C1.10108 10.1118 1.01767 10.0967 0.939785 10.0655C0.861898 10.0343 0.79115 9.98759 0.731816 9.92826C0.672483 9.86892 0.625794 9.79818 0.594577 9.72029C0.563359 9.6424 0.548259 9.55899 0.550188 9.4751V2.28092C0.546375 2.19521 0.559975 2.10962 0.590164 2.02932C0.620353 1.94902 0.666509 1.87567 0.725838 1.81371C0.785167 1.75174 0.856438 1.70244 0.935351 1.66879C1.01427 1.63514 1.09918 1.61784 1.18497 1.61792H2.01724ZM4.83849 4.05831H1.18497C0.987483 4.05831 0.931057 4.0583 0.931057 4.29811V9.43279C0.931057 9.61617 0.93106 9.67259 1.17087 9.67259H8.22399C8.42148 9.67259 8.4779 9.67259 8.4779 9.41868V4.29811C8.4779 4.11473 8.47791 4.05831 8.22399 4.05831H4.83849Z" fill="#082755"/>
<path d="M7.27889 1.74486V2.39375C7.27889 2.45735 7.25362 2.51835 7.20865 2.56332C7.16367 2.60829 7.10268 2.63356 7.03908 2.63356C6.97548 2.63356 6.91449 2.60829 6.86951 2.56332C6.82454 2.51835 6.79927 2.45735 6.79927 2.39375V1.08187C6.79527 1.04809 6.7985 1.01385 6.80874 0.981416C6.81899 0.948982 6.83602 0.919096 6.8587 0.893747C6.88138 0.868399 6.9092 0.848169 6.9403 0.834394C6.9714 0.820618 7.00507 0.813612 7.03908 0.813849C7.0731 0.813612 7.10677 0.820618 7.13787 0.834394C7.16897 0.848169 7.19678 0.868399 7.21946 0.893747C7.24214 0.919096 7.25917 0.948982 7.26942 0.981416C7.27966 1.01385 7.28289 1.04809 7.27889 1.08187V1.74486Z" fill="#082755"/>
<path d="M2.2994 1.73075C2.28529 1.51469 2.28529 1.29793 2.2994 1.08187C2.2994 0.91259 2.38404 0.813843 2.5251 0.813843C2.55781 0.813786 2.59019 0.82042 2.62025 0.833344C2.6503 0.846268 2.67739 0.865212 2.69986 0.888996C2.72232 0.91278 2.73968 0.940907 2.75086 0.97165C2.76205 1.00239 2.76683 1.0351 2.7649 1.06776V2.37964C2.7649 2.54891 2.68027 2.66176 2.5251 2.66176C2.36993 2.66176 2.2994 2.54892 2.2994 2.39375C2.2994 2.23858 2.2994 1.94235 2.2994 1.73075Z" fill="#082755"/>
<path d="M5.76948 1.73077V2.39377C5.76948 2.54894 5.68484 2.66178 5.54378 2.66178C5.50977 2.66202 5.47609 2.65502 5.44499 2.64125C5.41389 2.62747 5.38608 2.60723 5.3634 2.58188C5.34072 2.55653 5.32369 2.52666 5.31345 2.49422C5.3032 2.46179 5.29997 2.42755 5.30397 2.39377C5.30397 1.94237 5.30397 1.50507 5.30397 1.06778C5.29803 1.02567 5.30411 0.982741 5.3215 0.943938C5.33889 0.905134 5.36688 0.872042 5.40226 0.848456C5.43764 0.824869 5.47897 0.811754 5.52148 0.810626C5.56398 0.809499 5.60594 0.820396 5.64252 0.842074C5.68429 0.862117 5.71888 0.894531 5.74159 0.934908C5.7643 0.975286 5.77404 1.02168 5.76948 1.06778V1.73077Z" fill="#082755"/>
<path d="M4.27431 1.73068V2.42188C4.27273 2.4704 4.25728 2.51745 4.22977 2.55746C4.20227 2.59746 4.16388 2.62874 4.11915 2.64759C4.07892 2.67259 4.0325 2.68583 3.98514 2.68583C3.93778 2.68583 3.89136 2.67259 3.85113 2.64759C3.83738 2.592 3.83738 2.5339 3.85113 2.47831V1.06768C3.85113 1.00408 3.87639 0.943087 3.92137 0.898115C3.96634 0.853143 4.02734 0.827881 4.09094 0.827881C4.15454 0.827881 4.21553 0.853143 4.2605 0.898115C4.30547 0.943087 4.33074 1.00408 4.33074 1.06768L4.27431 1.73068Z" fill="#082755"/>
<path d="M6.68645 6.7385V7.06294C6.68867 7.08387 6.68618 7.10502 6.67917 7.12486C6.67215 7.1447 6.66079 7.16271 6.64592 7.17758C6.63104 7.19246 6.61302 7.20383 6.59319 7.21084C6.57335 7.21785 6.5522 7.22034 6.53128 7.21811C6.31521 7.23222 6.09846 7.23222 5.88239 7.21811C5.85962 7.2203 5.83664 7.21742 5.81511 7.20969C5.79358 7.20195 5.77403 7.18955 5.75785 7.17338C5.74167 7.1572 5.72928 7.13764 5.72154 7.11611C5.71381 7.09458 5.71093 7.07161 5.71311 7.04883V6.42817C5.71093 6.40539 5.71381 6.38241 5.72154 6.36088C5.72928 6.33935 5.74167 6.3198 5.75785 6.30363C5.77403 6.28745 5.79358 6.27505 5.81511 6.26731C5.83664 6.25958 5.85962 6.2567 5.88239 6.25889H6.51717C6.53994 6.2567 6.56292 6.25958 6.58445 6.26731C6.60598 6.27505 6.62553 6.28745 6.64171 6.30363C6.65788 6.3198 6.67028 6.33935 6.67801 6.36088C6.68575 6.38241 6.68863 6.40539 6.68645 6.42817V6.7385Z" fill="#082755"/>
<path d="M1.94665 6.30117H2.25699C2.27923 6.29924 2.30164 6.30173 2.32292 6.30849C2.3442 6.31526 2.36393 6.32617 2.38097 6.34059C2.39802 6.35502 2.41204 6.37267 2.42224 6.39253C2.43243 6.4124 2.43859 6.43408 2.44037 6.45634V7.10523C2.44046 7.12685 2.43603 7.14825 2.42736 7.16806C2.4187 7.18787 2.40599 7.20565 2.39006 7.22025C2.37412 7.23486 2.3553 7.24598 2.33481 7.2529C2.31433 7.25981 2.29263 7.26236 2.2711 7.2604C2.05503 7.27451 1.83828 7.27451 1.62221 7.2604C1.52347 7.2604 1.46704 7.26039 1.46704 7.09112V6.45634C1.46704 6.3576 1.46704 6.30117 1.63631 6.30117H1.94665Z" fill="#082755"/>
<path d="M1.9326 8.67114H1.62227C1.60135 8.67337 1.58019 8.67088 1.56035 8.66387C1.54052 8.65686 1.5225 8.64549 1.50762 8.63061C1.49275 8.61574 1.48139 8.59773 1.47437 8.57789C1.46736 8.55805 1.46488 8.5369 1.4671 8.51597V7.85298C1.46488 7.83206 1.46736 7.81091 1.47437 7.79107C1.48139 7.77124 1.49275 7.75322 1.50762 7.73834C1.5225 7.72346 1.54052 7.71211 1.56035 7.70509C1.58019 7.69808 1.60135 7.69559 1.62227 7.69781H2.27115C2.3652 7.69781 2.42162 7.75424 2.44043 7.86709V8.51597C2.44052 8.53759 2.43609 8.559 2.42742 8.5788C2.41876 8.59861 2.40605 8.61639 2.39011 8.631C2.37418 8.64561 2.35536 8.65673 2.33487 8.66364C2.31439 8.67056 2.29268 8.67311 2.27115 8.67114H1.9326Z" fill="#082755"/>
<path d="M3.32931 5.84985H3.00486C2.90612 5.84985 2.84969 5.84985 2.84969 5.68058C2.83558 5.46451 2.83558 5.24776 2.84969 5.03169C2.84747 5.01077 2.84996 4.98962 2.85697 4.96979C2.86398 4.94995 2.87534 4.93193 2.89022 4.91705C2.90509 4.90217 2.92311 4.89082 2.94295 4.88381C2.96278 4.87679 2.98394 4.8743 3.00486 4.87652H3.63964C3.66242 4.87434 3.68539 4.87721 3.70692 4.88495C3.72845 4.89268 3.748 4.90508 3.76418 4.92126C3.78036 4.93743 3.79276 4.95699 3.80049 4.97852C3.80823 5.00005 3.8111 5.02303 3.80892 5.0458V5.66648C3.80892 5.77933 3.80892 5.84985 3.63964 5.84985H3.32931Z" fill="#082755"/>
<path d="M6.16475 5.84978H5.84031C5.72746 5.84978 5.68514 5.84977 5.68514 5.6805C5.67104 5.46914 5.67104 5.25708 5.68514 5.04572C5.68514 4.93287 5.68514 4.87644 5.84031 4.87644H6.47509C6.49786 4.87426 6.52083 4.87713 6.54236 4.88487C6.56389 4.8926 6.58345 4.905 6.59962 4.92118C6.6158 4.93736 6.6282 4.95692 6.63594 4.97845C6.64367 4.99998 6.64655 5.02295 6.64436 5.04572V5.6664C6.64436 5.79336 6.64436 5.83567 6.47509 5.84978H6.16475Z" fill="#082755"/>
<path d="M6.20683 7.65537H6.51717C6.63002 7.65537 6.68645 7.65537 6.68645 7.81054V8.47354C6.68645 8.57228 6.68644 8.62871 6.51717 8.62871H5.88239C5.85962 8.63089 5.83664 8.62801 5.81511 8.62028C5.79358 8.61255 5.77403 8.60015 5.75785 8.58397C5.74167 8.56779 5.72928 8.54823 5.72154 8.5267C5.71381 8.50517 5.71093 8.4822 5.71311 8.45943V7.82465C5.71093 7.80188 5.71381 7.77891 5.72154 7.75738C5.72928 7.73585 5.74167 7.71629 5.75785 7.70011C5.77403 7.68393 5.79358 7.67153 5.81511 7.6638C5.83664 7.65606 5.85962 7.65319 5.88239 7.65537H6.20683Z" fill="#082755"/>
<path d="M3.3573 7.26037H3.06107C2.93411 7.26037 2.87769 7.26037 2.87769 7.09109V6.47043C2.87769 6.34347 2.87769 6.30115 3.06107 6.30115H3.66763C3.79459 6.30115 3.85102 6.30114 3.85102 6.48452V7.09109C3.85102 7.21805 3.85101 7.26037 3.66763 7.26037H3.3573Z" fill="#082755"/>
<path d="M8.06877 5.29954V5.60988C8.06877 5.73684 8.06877 5.77915 7.89949 5.79326H7.26471C7.15186 5.79326 7.09544 5.79325 7.09544 5.62398V4.9892C7.09325 4.96643 7.09613 4.94346 7.10387 4.92193C7.1116 4.9004 7.124 4.88084 7.14017 4.86466C7.15635 4.84848 7.1759 4.83609 7.19743 4.82836C7.21896 4.82062 7.24194 4.81774 7.26471 4.81992H7.89949C7.92226 4.81774 7.94524 4.82062 7.96677 4.82836C7.9883 4.83609 8.00785 4.84848 8.02403 4.86466C8.04021 4.88084 8.0526 4.9004 8.06034 4.92193C8.06807 4.94346 8.07095 4.96643 8.06877 4.9892V5.29954Z" fill="#082755"/>
<path d="M4.25999 5.32785V5.01752C4.2578 4.99475 4.26068 4.97177 4.26841 4.95024C4.27615 4.92871 4.28855 4.90916 4.30472 4.89298C4.3209 4.87681 4.34046 4.8644 4.36199 4.85667C4.38352 4.84894 4.40649 4.84606 4.42926 4.84824H5.06404C5.08682 4.84606 5.10979 4.84894 5.13132 4.85667C5.15285 4.8644 5.1724 4.87681 5.18858 4.89298C5.20475 4.90916 5.21715 4.92871 5.22489 4.95024C5.23262 4.97177 5.2355 4.99475 5.23332 5.01752V5.63819C5.23332 5.76515 5.23332 5.82158 5.06404 5.82158H4.42926C4.40649 5.82376 4.38352 5.82088 4.36199 5.81314C4.34046 5.80541 4.3209 5.79302 4.30472 5.77684C4.28855 5.76066 4.27615 5.7411 4.26841 5.71957C4.26068 5.69804 4.2578 5.67507 4.25999 5.6523V5.32785Z" fill="#082755"/>
<path d="M4.78208 6.2731H5.10652C5.12805 6.27114 5.14976 6.27369 5.17025 6.28061C5.19073 6.28752 5.20954 6.29864 5.22548 6.31325C5.24142 6.32786 5.25413 6.34564 5.2628 6.36544C5.27146 6.38525 5.27589 6.40665 5.2758 6.42827V7.07716C5.2758 7.1759 5.2758 7.23233 5.10652 7.23233H4.47175C4.44897 7.23451 4.426 7.23163 4.40447 7.22389C4.38294 7.21616 4.36338 7.20377 4.3472 7.18759C4.33103 7.17141 4.31863 7.15186 4.3109 7.13033C4.30316 7.1088 4.30028 7.08582 4.30247 7.06305V6.42827C4.30247 6.32953 4.30247 6.2731 4.47175 6.2731H4.78208Z" fill="#082755"/>
<path d="M5.2758 8.14904V8.47349C5.2758 8.58634 5.2758 8.64277 5.10652 8.64277H4.47175C4.44897 8.64495 4.426 8.64207 4.40447 8.63433C4.38294 8.6266 4.36338 8.61421 4.3472 8.59803C4.33103 8.58185 4.31863 8.56229 4.3109 8.54076C4.30316 8.51923 4.30028 8.49626 4.30247 8.47349V7.83871C4.30247 7.72586 4.30247 7.66943 4.45764 7.66943H5.10652C5.21937 7.66943 5.2617 7.66944 5.2758 7.83871V8.14904Z" fill="#082755"/>
<path d="M3.35728 8.67107H3.06105C2.93409 8.67107 2.87766 8.67106 2.87766 8.50179V7.86701C2.87548 7.84424 2.87835 7.82126 2.88609 7.79973C2.89382 7.7782 2.90622 7.75865 2.9224 7.74247C2.93858 7.72629 2.95813 7.71389 2.97966 7.70616C3.00119 7.69842 3.02416 7.69555 3.04694 7.69773H3.68172C3.70449 7.69555 3.72746 7.69842 3.74899 7.70616C3.77052 7.71389 3.79008 7.72629 3.80625 7.74247C3.82243 7.75865 3.83483 7.7782 3.84257 7.79973C3.8503 7.82126 3.85318 7.84424 3.85099 7.86701V8.50179C3.85318 8.52456 3.8503 8.54754 3.84257 8.56907C3.83483 8.5906 3.82243 8.61015 3.80625 8.62633C3.79008 8.6425 3.77052 8.6549 3.74899 8.66264C3.72746 8.67037 3.70449 8.67325 3.68172 8.67107H3.35728Z" fill="#082755"/>
<path d="M7.61728 8.67097H7.30695C7.28417 8.67315 7.2612 8.67027 7.23967 8.66254C7.21814 8.65481 7.19859 8.6424 7.18241 8.62623C7.16623 8.61005 7.15383 8.5905 7.1461 8.56897C7.13836 8.54744 7.13549 8.52446 7.13767 8.50169V7.86691C7.13767 7.75406 7.13767 7.69763 7.29284 7.69763H7.94173C8.03577 7.69763 8.09219 7.75406 8.111 7.86691V8.5158C8.11109 8.53742 8.10666 8.55882 8.098 8.57863C8.08933 8.59844 8.07663 8.61621 8.06069 8.63082C8.04475 8.64543 8.02593 8.65655 8.00545 8.66347C7.98496 8.67038 7.96326 8.67293 7.94173 8.67097H7.61728Z" fill="#082755"/>
<path d="M8.11102 6.72437V7.04881C8.11111 7.07043 8.10668 7.09183 8.09802 7.11164C8.08935 7.13145 8.07665 7.14922 8.06071 7.16383C8.04477 7.17844 8.02595 7.18956 8.00547 7.19648C7.98498 7.20339 7.96328 7.20594 7.94175 7.20398C7.73039 7.21808 7.51833 7.21808 7.30697 7.20398C7.19412 7.20398 7.1377 7.20398 7.1377 7.04881V6.39992C7.1377 6.30118 7.13769 6.24475 7.30697 6.24475H7.94175C8.0546 6.24475 8.09692 6.24475 8.11102 6.39992V6.72437Z" fill="#082755"/>
</svg>
