<svg width="27" height="27" viewBox="0 0 27 27" fill="none" xmlns="http://www.w3.org/2000/svg">
<path d="M9.45 19.125L13.5 15.075L17.55 19.125L19.125 17.55L15.075 13.5L19.125 9.45L17.55 7.875L13.5 11.925L9.45 7.875L7.875 9.45L11.925 13.5L7.875 17.55L9.45 19.125ZM13.5 24.75C11.9438 24.75 10.4812 24.4547 9.1125 23.8641C7.74375 23.2734 6.55312 22.4719 5.54062 21.4594C4.52812 20.4469 3.72656 19.2563 3.13594 17.8875C2.54531 16.5188 2.25 15.0562 2.25 13.5C2.25 11.9438 2.54531 10.4812 3.13594 9.1125C3.72656 7.74375 4.52812 6.55312 5.54062 5.54062C6.55312 4.52812 7.74375 3.72656 9.1125 3.13594C10.4812 2.54531 11.9438 2.25 13.5 2.25C15.0562 2.25 16.5188 2.54531 17.8875 3.13594C19.2563 3.72656 20.4469 4.52812 21.4594 5.54062C22.4719 6.55312 23.2734 7.74375 23.8641 9.1125C24.4547 10.4812 24.75 11.9438 24.75 13.5C24.75 15.0562 24.4547 16.5188 23.8641 17.8875C23.2734 19.2563 22.4719 20.4469 21.4594 21.4594C20.4469 22.4719 19.2563 23.2734 17.8875 23.8641C16.5188 24.4547 15.0562 24.75 13.5 24.75ZM13.5 22.5C16.0125 22.5 18.1406 21.6281 19.8844 19.8844C21.6281 18.1406 22.5 16.0125 22.5 13.5C22.5 10.9875 21.6281 8.85938 19.8844 7.11563C18.1406 5.37188 16.0125 4.5 13.5 4.5C10.9875 4.5 8.85938 5.37188 7.11563 7.11563C5.37188 8.85938 4.5 10.9875 4.5 13.5C4.5 16.0125 5.37188 18.1406 7.11563 19.8844C8.85938 21.6281 10.9875 22.5 13.5 22.5Z" fill="white"/>
</svg>
