<svg width="22" height="20" viewBox="0 0 22 20" fill="none" xmlns="http://www.w3.org/2000/svg">
<path d="M12.2104 15.6574C10.4413 15.6574 8.6722 15.6574 6.9031 15.6574C6.49794 15.6574 6.11293 15.5902 5.7753 15.3188C5.58995 15.1672 5.43724 14.9747 5.32751 14.7544C5.21778 14.534 5.1536 14.291 5.13933 14.0417C5.12506 13.7925 5.16103 13.5429 5.2448 13.3098C5.32857 13.0768 5.45818 12.8658 5.62485 12.6911C5.67075 12.6524 5.7043 12.5994 5.72085 12.5394C5.73741 12.4794 5.73615 12.4154 5.71725 12.3562C5.15493 9.67775 4.59379 6.99842 4.03384 4.31823C3.92722 3.81094 3.82652 3.30365 3.71635 2.79636C3.55524 2.06333 3.09085 1.66383 2.38242 1.65496C1.86472 1.64608 1.34702 1.65496 0.829323 1.64735C0.680104 1.65043 0.534017 1.60133 0.413224 1.50749C0.29243 1.41366 0.203522 1.2802 0.159988 1.12737C0.106827 0.98641 0.0985595 0.830615 0.136466 0.684112C0.174373 0.53761 0.256339 0.408572 0.369673 0.316979C0.499664 0.203374 0.659509 0.135989 0.826954 0.124208C1.4572 0.112794 2.09691 0.102648 2.73189 0.143232C3.7436 0.207911 4.6937 1.02338 4.99816 2.05952C5.10359 2.41589 5.18415 2.78241 5.25878 3.14893C5.29195 3.31506 5.36067 3.37721 5.51704 3.36579C5.67342 3.35438 5.8523 3.36579 6.01934 3.36579C10.9207 3.36579 15.8213 3.36579 20.721 3.36579C20.9265 3.36141 21.1299 3.41105 21.3134 3.51037C21.6285 3.70187 21.6996 4.06839 21.5574 4.50593C21.2083 5.58646 20.8569 6.66572 20.503 7.74371C20.2661 8.46026 20.0292 9.173 19.8053 9.89969C19.4913 10.9282 18.8374 11.4989 17.847 11.6828C14.2046 12.3592 10.5629 13.0432 6.92205 13.7348C6.79411 13.7589 6.56665 13.6968 6.58442 13.9479C6.60219 14.199 6.82136 14.1242 6.96352 14.1242C10.4701 14.1242 13.9763 14.1242 17.4822 14.1242C17.5936 14.1205 17.7052 14.1239 17.8162 14.1343C17.993 14.1495 18.1575 14.2371 18.2756 14.3788C18.3936 14.5205 18.4561 14.7055 18.45 14.8952C18.4533 15.0861 18.3884 15.2711 18.2687 15.4125C18.1489 15.5539 17.9833 15.641 17.8056 15.6562C17.7102 15.6644 17.6145 15.6669 17.5189 15.6638L12.2104 15.6574Z" fill="white"/>
<path d="M16.4446 19.9681C16.1371 19.9686 15.8364 19.8714 15.5806 19.6888C15.3248 19.5062 15.1254 19.2464 15.0076 18.9423C14.8898 18.6383 14.859 18.3036 14.9191 17.9808C14.9791 17.658 15.1273 17.3615 15.3449 17.1289C15.5625 16.8963 15.8397 16.7381 16.1413 16.6743C16.4429 16.6106 16.7555 16.6441 17.0393 16.7706C17.3232 16.8971 17.5656 17.111 17.7357 17.3852C17.9059 17.6593 17.9963 17.9814 17.9953 18.3105C17.9944 18.7503 17.8306 19.1717 17.54 19.4824C17.2493 19.7931 16.8554 19.9678 16.4446 19.9681Z" fill="white"/>
<path d="M8.4221 18.3118C8.42091 18.641 8.32849 18.9623 8.15654 19.2352C7.98459 19.5081 7.74085 19.7202 7.4562 19.8446C7.17155 19.9691 6.8588 20.0003 6.55757 19.9343C6.25634 19.8683 5.9802 19.708 5.76411 19.4739C5.54803 19.2397 5.40174 18.9421 5.34377 18.6189C5.2858 18.2956 5.31877 17.9612 5.43849 17.658C5.55821 17.3548 5.7593 17.0965 6.01628 16.9158C6.27326 16.7351 6.57457 16.6401 6.88203 16.6428C7.29271 16.6465 7.6853 16.8242 7.97391 17.137C8.26253 17.4497 8.42368 17.8722 8.4221 18.3118Z" fill="white"/>
</svg>
