<svg width="29" height="29" viewBox="0 0 29 29" fill="none" xmlns="http://www.w3.org/2000/svg">
<g clip-path="url(#clip0_111_497)">
<path d="M28.9981 16.068C28.9981 19.3001 28.9981 22.5322 28.9981 25.7642C28.9981 27.8309 27.7874 29.0056 25.6886 29.0056C19.4403 29.0056 13.1919 29.0056 6.94356 29.0056C4.83736 29.0056 3.59676 27.7737 3.58557 25.6701C3.58557 19.2675 3.58557 12.8649 3.58557 6.46231C3.5949 4.43257 4.85974 3.15082 6.90252 3.13974C13.1845 3.12497 19.4651 3.12497 25.7446 3.13974C27.7724 3.13974 28.9981 4.36978 29.0037 6.36073C29.0056 9.60389 28.9981 12.8304 28.9981 16.068ZM16.3515 14.753H8.16177C7.47525 14.753 7.00886 15.0449 6.96035 15.7522C6.90625 16.5168 7.3913 16.8474 8.09088 16.9398C8.21511 16.9481 8.33976 16.9481 8.46399 16.9398C13.7062 16.9398 18.949 16.9398 24.1925 16.9398C25.1532 16.9398 25.7166 16.5039 25.7073 15.8169C25.698 15.1298 25.1887 14.753 24.1701 14.7512C21.5645 14.7463 18.9583 14.7469 16.3515 14.753ZM16.2527 20.6853C18.982 20.6853 21.7131 20.6853 24.4443 20.6853C25.1905 20.6853 25.6737 20.3418 25.6868 19.6196C25.6998 18.8975 25.1999 18.5318 24.4779 18.4912C24.3548 18.4912 24.2298 18.4912 24.1048 18.4912C18.8924 18.4912 13.6801 18.4912 8.46772 18.4912C7.45286 18.4912 6.96035 18.8605 6.94916 19.5808C6.93797 20.3011 7.40249 20.689 8.43041 20.689C11.0397 20.6927 13.6471 20.6914 16.2527 20.6853ZM16.3795 22.3106C13.7416 22.3106 11.1044 22.3106 8.46772 22.3106C7.40995 22.3106 6.95849 22.6375 6.95103 23.3762C6.94356 24.115 7.42674 24.4991 8.44347 24.501C13.6857 24.501 18.9285 24.501 24.1719 24.501C25.142 24.501 25.7017 24.0891 25.7147 23.4058C25.7278 22.7224 25.1999 22.3124 24.2055 22.3106C21.5919 22.3106 18.9857 22.3142 16.3795 22.3142V22.3106ZM17.3384 10.7416C17.3776 10.2374 17.4149 9.74056 17.4578 9.19203H18.9503V7.0644L17.4373 6.97945C17.4074 6.442 17.3832 5.99505 17.3608 5.56472H15.2359C15.2024 6.06892 15.1706 6.51403 15.1389 6.98129L13.7342 7.07548V9.19757L15.1445 9.26221C15.1818 9.81628 15.2136 10.2614 15.2471 10.7397L17.3384 10.7416Z" fill="white"/>
<path d="M3.73091 28.9723C1.64709 29.1348 0.0762961 27.7755 0.0240606 25.888C-0.0207126 24.259 0.0091362 22.6264 0.0091362 20.9955C0.0091362 15.2714 0.0091362 9.546 0.0091362 3.81939C0.0110018 1.33531 1.3486 0 3.84844 0C10.8418 0 17.8351 0 24.8284 0C26.5298 0 27.7648 0.762769 28.3152 2.13132C28.3541 2.23046 28.3762 2.33531 28.3804 2.4416C27.2611 2.30308 26.1511 2.0519 25.0411 2.04452C19.0116 2.00388 12.9803 2.0242 6.94526 2.02605C4.19543 2.02605 2.46793 3.73258 2.46793 6.4586C2.46793 12.6439 2.48286 18.8328 2.45487 25.0125C2.45301 26.4254 2.53136 27.7773 3.73091 28.9723Z" fill="white"/>
</g>
<defs>
<clipPath id="clip0_111_497">
<rect width="29" height="29" fill="white"/>
</clipPath>
</defs>
</svg>
