<svg width="12" height="12" viewBox="0 0 12 12" fill="none" xmlns="http://www.w3.org/2000/svg">
<path d="M6.6642 5.76596L11.2809 1.17706C11.4591 1.00601 11.464 0.72378 11.292 0.546668C11.1199 0.369556 10.8359 0.364645 10.6577 0.535696C10.654 0.539275 10.6503 0.542932 10.6467 0.546668L6.02996 5.13557L1.41325 0.546642C1.23507 0.37559 0.951126 0.380501 0.779038 0.557613C0.611155 0.730389 0.611155 1.00429 0.779038 1.17706L5.39575 5.76596L0.779038 10.3549C0.603927 10.5289 0.603927 10.8112 0.779038 10.9853C0.954175 11.1593 1.23812 11.1593 1.41325 10.9853L6.02996 6.39635L10.6467 10.9853C10.8249 11.1563 11.1088 11.1514 11.2809 10.9743C11.4487 10.8015 11.4487 10.5276 11.2809 10.3549L6.6642 5.76596Z" fill="#677294"/>
</svg>
