<svg width="36" height="29" viewBox="0 0 36 29" fill="none" xmlns="http://www.w3.org/2000/svg">
<path d="M29.7629 28.8467H21.2632C21.2632 28.6979 21.2466 28.5491 21.2466 28.4025C21.2466 25.8924 21.2466 23.3826 21.2466 20.8732V20.4701H15.6616V20.9077C15.6616 23.0972 15.6616 25.2859 15.6616 27.4739C15.6616 27.9315 15.6506 28.3902 15.6439 28.8478H7.14427C6.16499 28.4924 5.91298 28.1248 5.91298 27.0563C5.91298 23.7658 5.91298 20.4749 5.91298 17.1836C5.90521 17.0715 5.92576 16.9593 5.97272 16.8574C6.01968 16.7554 6.09152 16.6671 6.18157 16.6005C9.38101 13.9586 12.5775 11.3111 15.771 8.65813L18.4458 6.44568C18.5564 6.53675 18.6669 6.61006 18.7575 6.68891C22.7565 10.0009 26.7565 13.3118 30.7577 16.6216C30.8414 16.6872 30.9074 16.773 30.9493 16.8711C30.9912 16.9691 31.0078 17.0763 30.9975 17.1825C30.9931 20.473 30.9931 23.7643 30.9975 27.0563C30.9942 28.1237 30.7411 28.4913 29.7629 28.8467Z" fill="white"/>
<path d="M36 15.2166C35.5524 15.762 35.1058 16.3095 34.656 16.8527C34.2061 17.3958 33.8602 17.4202 33.3219 16.9693L18.7962 4.80414C18.6912 4.7175 18.584 4.63198 18.4502 4.52425C17.9064 4.9774 17.3641 5.42981 16.8232 5.88148L3.55978 16.9882C3.05577 17.4102 2.69102 17.3791 2.27101 16.8771C1.91069 16.4469 1.55147 16.016 1.19335 15.5843C0.775555 15.0778 0.809819 14.7213 1.31936 14.2948L12.9249 4.582C14.1882 3.52576 15.4461 2.46174 16.7182 1.41438C17.6025 0.68134 18.5972 0.588044 19.6351 1.05675C19.9087 1.19933 20.1622 1.37786 20.3889 1.58764C21.9709 2.90712 23.5486 4.23066 25.1217 5.55828C25.198 5.62159 25.2798 5.67712 25.4191 5.78041V5.36169C25.4191 4.15625 25.4191 2.95154 25.4191 1.74758C25.4191 1.07007 25.6501 0.840165 26.3243 0.839055C27.5703 0.839055 28.8153 0.839055 30.0591 0.839055C30.7543 0.839055 30.9875 1.07341 30.9886 1.76757C30.9886 4.55535 30.9886 7.34312 30.9886 10.1309C30.981 10.2376 31.0005 10.3445 31.0451 10.4416C31.0897 10.5387 31.1582 10.6229 31.2439 10.6862C32.6727 11.8665 34.0956 13.0542 35.5126 14.2492C35.6895 14.421 35.8525 14.6067 36 14.8046V15.2166Z" fill="white"/>
</svg>
