<svg width="10" height="6" viewBox="0 0 10 6" fill="none" xmlns="http://www.w3.org/2000/svg">
<path d="M9.23875 0.628052C9.31916 0.628052 9.40195 0.628052 9.48236 0.628052C9.72833 0.691918 9.90569 0.831479 9.97192 1.08695C9.97192 1.15791 9.97192 1.22887 9.97192 1.3022C9.88914 1.45122 9.83002 1.6239 9.7165 1.74217C8.5316 2.99112 7.33961 4.23296 6.14762 5.47245C5.97497 5.65222 5.78811 5.8178 5.53741 5.88877C5.49721 5.88877 5.457 5.88877 5.41442 5.88877C5.12825 5.80598 4.92725 5.60254 4.73094 5.39675C3.60517 4.22587 2.48412 3.05025 1.35599 1.87936C1.1928 1.70905 1.04614 1.53164 0.979919 1.29983C0.979919 1.21941 0.979919 1.13662 0.979919 1.05619C1.06506 0.824382 1.23536 0.689553 1.4695 0.628052C1.54992 0.628052 1.6327 0.628052 1.71311 0.628052C1.95672 0.7274 2.2074 0.810189 2.43918 0.930826C3.41359 1.44649 4.38091 1.97161 5.35059 2.49911C5.44283 2.54878 5.50904 2.54878 5.60127 2.49911C6.26586 2.13719 6.9281 1.77056 7.59977 1.42284C8.13901 1.14135 8.64039 0.781804 9.23875 0.628052Z" fill="#082755"/>
</svg>
