<svg width="24" height="23" viewBox="0 0 24 23" fill="none" xmlns="http://www.w3.org/2000/svg">
<path d="M21.4299 8.12002C21.4299 11.95 21.4999 15.68 21.4299 19.4C21.3658 20.2558 20.9728 21.0536 20.3333 21.626C19.6938 22.1984 18.8576 22.5009 17.9999 22.47C13.3332 22.51 8.66655 22.51 3.99989 22.47C3.53367 22.4771 3.0709 22.3893 2.63966 22.212C2.20842 22.0347 1.81772 21.7715 1.49131 21.4386C1.1649 21.1056 0.909563 20.7098 0.740853 20.2751C0.572142 19.8404 0.493577 19.376 0.509896 18.91C0.509896 14.2834 0.509896 9.65002 0.509896 5.01002C0.465198 4.15825 0.753041 3.32242 1.31272 2.67878C1.8724 2.03515 2.66017 1.63403 3.5099 1.56002C7.8899 1.47002 12.2599 1.56002 16.7999 1.56002C15.7299 2.83002 14.7999 3.84002 12.9999 3.72002C10.1599 3.52002 7.2999 3.66002 4.4499 3.72002C3.0999 3.72002 2.64988 4.17002 2.64988 5.51002V18.58C2.64988 19.84 3.1399 20.34 4.3899 20.35H17.5399C18.8299 20.35 19.3399 19.82 19.3499 18.53C19.4433 16.3572 19.4266 14.1811 19.2999 12.01C19.0999 10.14 20.0799 9.15002 21.4299 8.12002Z" fill="white"/>
<path d="M8.42987 15.5C8.90987 13.85 8.75987 12.16 9.86987 11C12.7999 7.93003 15.8699 5.00003 18.8699 2.00003C18.9806 1.89946 19.0975 1.80594 19.2199 1.72003L22.1399 4.78003C22.1008 4.85794 22.0539 4.93165 21.9999 5.00003C18.9999 8.00003 15.9999 11.06 12.9299 14C12.5182 14.3277 12.0352 14.5538 11.5199 14.66C10.5599 15 9.62987 15.21 8.42987 15.5Z" fill="white"/>
<path d="M23.2599 3.68002L20.2599 0.680019C20.4456 0.494066 20.6662 0.346548 20.909 0.245899C21.1518 0.145251 21.412 0.0934448 21.6749 0.0934448C21.9377 0.0934448 22.198 0.145251 22.4408 0.245899C22.6836 0.346548 22.9041 0.494066 23.0899 0.680019C23.4976 1.06281 23.7427 1.58767 23.7743 2.14605C23.8059 2.70443 23.6218 3.25361 23.2599 3.68002Z" fill="white"/>
</svg>
