<svg width="18" height="13" viewBox="0 0 18 13" fill="none" xmlns="http://www.w3.org/2000/svg">
<path d="M12.7399 9.773C11.6964 9.773 10.6528 9.773 9.60927 9.773C8.78461 9.77446 8.19959 10.3576 8.19149 11.1883C8.18662 11.6881 8.18484 12.1881 8.19376 12.6878C8.19667 12.8545 8.14641 12.9151 7.97551 12.9117C7.38385 12.8979 7.49427 12.9706 7.49232 12.4364C7.49038 11.8921 7.48405 11.3455 7.52751 10.8036C7.56594 10.3261 7.82715 9.94123 8.16473 9.60591C8.24012 9.52876 8.28868 9.42934 8.3032 9.32239C8.43292 7.98956 9.48685 6.94576 10.8216 6.9089C12.0755 6.87437 13.3307 6.87372 14.5871 6.90696C15.9087 6.93943 16.9258 7.9186 17.1183 9.26003C17.1345 9.37127 17.207 9.49386 17.2899 9.57294C17.7388 10.0011 17.9973 10.5075 17.9936 11.1383C17.9905 11.6609 17.9908 12.1836 17.9999 12.7059C18.0028 12.8711 17.9503 12.9365 17.7807 12.9333C17.1678 12.923 17.2908 12.9781 17.2792 12.4461C17.2676 11.9246 17.297 11.3984 17.2365 10.8827C17.1613 10.2387 16.5905 9.78047 15.9394 9.77738C14.8731 9.77219 13.8067 9.77592 12.7404 9.77592L12.7399 9.773Z" fill="white"/>
<path d="M9.90877 0.867615C9.58789 1.20131 9.36299 1.48304 8.86959 1.47752C6.22227 1.44813 3.57462 1.46372 0.926976 1.46372H0.618903V9.26829H7.44515C6.96245 9.65605 6.84993 10.1797 6.78037 10.7C6.7228 11.1321 6.74794 11.5754 6.73902 12.0138C6.73594 12.1556 6.73902 12.2975 6.73902 12.4541H3.73612C3.73612 12.2571 3.72525 12.0621 3.74471 11.8695C3.74893 11.8279 3.86129 11.768 3.92501 11.7665C4.35599 11.7574 4.78746 11.7527 5.21827 11.7656C5.41041 11.7714 5.47673 11.7056 5.45873 11.5192C5.44657 11.3929 5.45646 11.2644 5.45646 11.0998H5.14839C3.62035 11.0998 2.0923 11.0998 0.56426 11.0998C0.126472 11.0998 0 10.9713 0 10.5289C0.000216192 7.49892 0.000324288 4.46887 0.000324288 1.43871C0.000324288 0.991999 0.122581 0.867615 0.560693 0.867615H9.90877Z" fill="white"/>
<path d="M15.5892 3.53134C15.5892 5.12999 14.3374 6.37887 12.7363 6.37806C11.1682 6.37709 9.89486 5.09979 9.89551 3.52826C9.89616 1.94812 11.1732 0.679589 12.7622 0.680726C14.3394 0.681863 15.5893 1.94211 15.5892 3.53134Z" fill="white"/>
<path d="M4.97162 5.92339C4.04432 5.92192 3.30608 5.18357 3.30154 4.25247C3.29651 3.30985 4.06442 2.53934 4.99821 2.55022C5.92243 2.5611 6.68451 3.33632 6.67591 4.25621C6.66602 5.18958 5.91449 5.92566 4.97162 5.92339Z" fill="white"/>
<path d="M4.96634 7.05502C5.22172 6.85756 5.45764 6.66871 5.70166 6.49123C5.76182 6.44738 5.85927 6.40354 5.92137 6.42189C6.48887 6.58947 7.00773 6.84408 7.35683 7.3499C7.54426 7.62124 7.65712 7.91824 7.6182 8.27304H2.34075C2.30637 7.90395 2.42457 7.59299 2.62855 7.31353C2.97992 6.83255 3.48645 6.58557 4.03774 6.42221C4.09984 6.40386 4.19843 6.44706 4.25777 6.49171C4.49353 6.66838 4.71972 6.85707 4.96634 7.05502Z" fill="white"/>
</svg>
