<svg width="7" height="13" viewBox="0 0 7 13" fill="none" xmlns="http://www.w3.org/2000/svg">
<path d="M0.498753 12.4916L0.499348 12.4922L0.146123 12.8446M0.498753 12.4916L0.498756 12.4915L6.14214 6.86337L6.49472 6.51174L6.1431 6.15917L0.521015 0.521854L0.162325 0.867349M0.498753 12.4916C0.498417 12.4918 0.498343 12.4919 0.498703 12.4916L0.498753 12.4916ZM0.146123 12.8446C-0.0484493 12.6495 -0.0480219 12.3336 0.147078 12.139L5.43649 6.86387L5.79052 6.51079L5.43744 6.15676L0.162325 0.867349M0.146123 12.8446L0.499454 12.4923L0.851778 12.8456C0.656649 13.0401 0.340754 13.0397 0.146123 12.8446ZM0.162325 0.867349L0.514903 0.515725L0.515524 0.515106M0.162325 0.867349C-0.0241784 0.673723 -0.0237637 0.367127 0.163263 0.173976M6.49685 6.51097L6.84948 6.1594L6.49685 6.51097ZM6.49685 6.51097L6.14455 6.15772L0.522477 0.520412L6.49685 6.51097ZM0.515543 0.515087L0.516356 0.514274L0.515543 0.515087ZM0.515543 0.515087L0.163263 0.173976M0.515543 0.515087L0.515524 0.515106M0.163263 0.173976L0.515524 0.515106M0.163263 0.173976L0.515524 0.515106M0.499526 12.4913C0.499715 12.4914 0.499877 12.4915 0.500006 12.4916L0.499401 12.4922L0.498821 12.4916C0.498958 12.4915 0.499132 12.4914 0.499338 12.4913C0.499819 12.4911 0.499836 12.4912 0.49944 12.4912C0.499044 12.4912 0.499056 12.4911 0.499526 12.4913ZM0.521783 0.521129L0.521999 0.520906L0.522384 0.520535C0.522456 0.520664 0.522541 0.520834 0.52262 0.521037C0.522795 0.521479 0.522719 0.521504 0.52272 0.521161C0.52272 0.520817 0.522796 0.520837 0.522624 0.521269C0.522551 0.521454 0.522468 0.521606 0.522402 0.521729L0.521783 0.521129ZM0.521169 0.521763L0.521764 0.521148L0.522377 0.521742C0.522245 0.521818 0.522079 0.521905 0.521884 0.521987C0.521408 0.52219 0.521386 0.522102 0.521776 0.522096C0.522165 0.52209 0.522148 0.522177 0.521666 0.521991C0.52147 0.521915 0.521302 0.521834 0.521169 0.521763Z" fill="black" stroke="white"/>
</svg>
