<svg width="6" height="10" viewBox="0 0 6 10" fill="none" xmlns="http://www.w3.org/2000/svg">
<path d="M0.246582 1.0596C0.246582 0.976808 0.246582 0.894006 0.246582 0.811216C0.310439 0.562847 0.452334 0.385477 0.710126 0.316879C0.781078 0.316879 0.854404 0.316879 0.925356 0.316879C1.07436 0.402035 1.24937 0.461133 1.36999 0.574674C2.63057 1.77158 3.88407 2.97795 5.13993 4.18195C5.32204 4.35699 5.48757 4.54625 5.56089 4.79698C5.56089 4.8372 5.56089 4.87978 5.56089 4.91999C5.47811 5.21094 5.27235 5.41198 5.06423 5.61068C3.87933 6.74845 2.69442 7.88152 1.51189 9.01929C1.33924 9.18487 1.16186 9.3315 0.927723 9.40009C0.844946 9.40009 0.762186 9.40009 0.679408 9.40009C0.445266 9.31494 0.308074 9.1423 0.246582 8.90576C0.246582 8.82297 0.246582 8.74017 0.246582 8.65738C0.34828 8.41137 0.428704 8.15825 0.554053 7.92407C1.07437 6.94005 1.6065 5.96078 2.13864 4.98149C2.1883 4.88924 2.1883 4.82063 2.13864 4.72838C1.77205 4.0566 1.40311 3.38717 1.05071 2.70829C0.766903 2.16898 0.402677 1.66515 0.246582 1.0596Z" fill="#082755"/>
</svg>
