<svg width="11" height="15" viewBox="0 0 11 15" fill="none" xmlns="http://www.w3.org/2000/svg">
<path d="M5.25215 13.6717C3.65336 11.5476 1.87246 9.63629 0.810539 7.23065C-0.0266949 5.33831 0.349338 3.36555 1.77311 1.94156C3.20398 0.51048 5.38694 0.0988939 7.24352 0.912601C9.07408 1.71448 10.2685 3.52876 10.1337 5.51099C10.084 6.22298 9.82854 6.9539 9.52581 7.61149C8.76663 9.25783 7.62193 10.6605 6.51035 12.0798C6.10829 12.5883 5.70387 13.0969 5.25215 13.6717ZM5.23557 7.29216C6.1816 7.30162 6.95972 6.54941 6.96209 5.61743C6.96682 4.71147 6.20527 3.95217 5.28053 3.94271C4.32504 3.93325 3.56822 4.67126 3.56585 5.6127C3.56349 6.53522 4.30847 7.2827 5.23557 7.29216Z" fill="#082755"/>
<path d="M5.19068 14.9821C4.33689 14.8 3.48308 14.6202 2.63166 14.431C2.52286 14.4074 2.42355 14.3435 2.32422 14.2891C1.95999 14.0833 1.59103 13.8657 1.59812 13.3784C1.60522 12.8958 1.97417 12.6711 2.34076 12.4772C3.43579 11.8976 3.63681 11.9449 4.37708 12.9029C4.56865 13.1489 4.75786 13.3973 4.94707 13.6457C5.1552 13.9177 5.36095 13.9106 5.56672 13.6457C5.92384 13.1868 6.26679 12.7161 6.6452 12.2761C6.73744 12.1697 6.96685 12.0821 7.08984 12.1223C7.55812 12.2714 8.04294 12.418 8.45682 12.6711C9.10012 13.0662 9.12141 13.7237 8.46393 14.0928C7.89867 14.4121 7.24119 14.5966 6.60498 14.7598C6.15799 14.8757 5.67787 14.8568 5.21196 14.897C5.20723 14.9254 5.20014 14.9538 5.19068 14.9821Z" fill="#082755"/>
</svg>
