<svg width="20" height="21" viewBox="0 0 20 21" fill="none" xmlns="http://www.w3.org/2000/svg">
<g clip-path="url(#clip0_161_266)">
<path d="M0 10.4862C0 7.70029 0 4.91434 0 2.1284C0 0.796843 0.804132 0 2.15561 0C7.40065 0 12.6457 0 17.8907 0C19.1727 0 20.001 0.816788 20.001 2.07806C20.001 7.69617 20.001 13.3146 20.001 18.9333C20.001 20.1633 19.1659 20.9943 17.9178 20.9953C12.6405 20.9997 7.36332 20.9997 2.08611 20.9953C0.838884 20.9962 0 20.1661 0 18.9371C0 16.1202 0 13.3032 0 10.4862ZM17.3405 2.62607C17.1619 2.61657 17.0055 2.60137 16.8491 2.60137C12.2821 2.60137 7.71503 2.60138 3.14895 2.59188C2.75027 2.59188 2.63346 2.69635 2.63442 3.09335C2.64794 8.03207 2.64794 12.9683 2.63442 17.9019C2.63442 18.2875 2.73096 18.4129 3.1393 18.4119C7.72275 18.3977 12.3101 18.4034 16.8887 18.4015C17.0403 18.4015 17.1928 18.3806 17.3395 18.3701L17.3405 2.62607Z" fill="white"/>
<path d="M11.9471 10.4625H5.33835C5.33835 9.97713 5.29201 9.50321 5.34993 9.03783C5.42619 8.43473 6.19461 7.93991 7.0528 7.88957C7.40419 7.86868 7.75847 7.88957 8.02973 7.88957C7.67931 7.55811 7.23622 7.24089 6.9302 6.82585C6.58654 6.35857 6.58943 5.78112 6.78733 5.23311C6.93358 4.84102 7.20289 4.50491 7.55625 4.27345C7.90962 4.04199 8.3287 3.92721 8.7528 3.94572C9.1769 3.96423 9.584 4.11508 9.91514 4.37642C10.2463 4.63776 10.4843 4.99602 10.5946 5.39932C10.8553 6.35572 10.4692 7.04999 9.22965 7.85158C11.8737 8.10422 12.1797 8.39104 11.9471 10.4625Z" fill="white"/>
<path d="M5.34802 13.0753V11.8453H14.6414V13.0753H5.34802Z" fill="white"/>
<path d="M14.6472 14.478V15.7222H5.3606V14.478H14.6472Z" fill="white"/>
</g>
<defs>
<clipPath id="clip0_161_266">
<rect width="20" height="21" fill="white"/>
</clipPath>
</defs>
</svg>
