<svg width="21" height="24" viewBox="0 0 21 24" fill="none" xmlns="http://www.w3.org/2000/svg">
<path d="M16.0302 10.656C16.1082 12.2668 16.2076 13.8753 16.5576 15.4554C16.7113 16.1485 16.8911 16.8392 17.3215 17.4235C17.5509 17.7333 17.8253 18.0101 18.0689 18.3081C18.2605 18.5447 18.426 18.8001 18.5183 19.0935C18.6412 19.4814 18.5395 19.7581 18.1895 19.9616C17.8466 20.1626 17.4682 20.2194 17.0756 20.2312C15.1055 20.2904 13.133 20.288 11.1629 20.2904C8.04101 20.2927 4.91676 20.3093 1.79487 20.2312C1.41172 20.2218 1.04277 20.1839 0.695103 20.0089C0.262296 19.7913 0.139311 19.4814 0.309596 19.0272C0.458595 18.6322 0.692738 18.2821 0.990737 17.9983C1.72391 17.3028 2.03608 16.4134 2.24421 15.4672C2.53511 14.1497 2.65574 12.8109 2.73142 11.4673C2.81657 9.96763 2.8615 8.46559 2.81893 6.96354C2.78345 5.79739 3.32269 5.00261 4.26398 4.41361C5.19582 3.83172 6.23171 3.5526 7.30072 3.37992C8.38629 3.20488 9.48132 3.17649 10.5787 3.27348C10.5007 3.56442 10.4108 3.85301 10.3446 4.14868C9.98744 5.74298 10.302 7.21665 11.2835 8.50107C12.3927 9.95108 13.8969 10.6607 15.7369 10.611C15.8386 10.6134 15.9451 10.5756 16.0302 10.656Z" fill="#082755"/>
<path d="M16.0302 10.656C15.9427 10.5755 15.8363 10.6134 15.7393 10.6158C13.8969 10.6654 12.3927 9.95817 11.2859 8.50579C10.3043 7.22137 9.99217 5.74771 10.3469 4.15341C10.4131 3.8601 10.503 3.56915 10.5811 3.2782C10.8412 2.82404 11.0801 2.36278 11.4112 1.94883C13.58 -0.743023 17.7827 -0.629483 19.8214 2.18537C22.0257 5.22731 20.46 9.54658 16.8225 10.4667C16.5623 10.533 16.2785 10.5235 16.0302 10.656ZM16.3377 5.32666C16.3353 4.4349 16.3306 3.54077 16.34 2.649C16.3424 2.40063 16.2478 2.29419 15.9994 2.30601C15.7417 2.31784 15.4839 2.31074 15.2261 2.30838C15.0818 2.30838 14.9872 2.36515 14.9233 2.49998C14.7152 2.93048 14.4953 3.3539 14.2848 3.78441C14.1429 4.07535 14.2351 4.21255 14.5662 4.21964C14.6679 4.22201 14.7696 4.23384 14.8689 4.21964C15.0936 4.18889 15.1528 4.28587 15.1528 4.49876C15.1457 5.5017 15.1504 6.50464 15.1504 7.50758C15.1504 8.40172 15.0605 8.32129 15.964 8.32129C16.2809 8.32129 16.3377 8.26452 16.3377 7.95465C16.3377 7.07708 16.3377 6.20187 16.3377 5.32666Z" fill="#E92529"/>
<path d="M9.4175 21.1869C10.522 21.1869 11.6288 21.1916 12.7333 21.1845C12.9273 21.1821 12.9793 21.2176 12.8847 21.4068C12.1633 22.8474 11.0045 23.6445 9.38912 23.6374C7.78797 23.6303 6.63618 22.8379 5.92192 21.4045C5.82496 21.2105 5.87936 21.1821 6.07329 21.1821C7.1896 21.1892 8.30356 21.1869 9.4175 21.1869Z" fill="#082755"/>
<path d="M16.3377 5.32666C16.3377 6.20187 16.34 7.07471 16.3377 7.94992C16.3377 8.25979 16.2809 8.31656 15.964 8.31656C15.0605 8.31656 15.1504 8.39935 15.1504 7.50285C15.1504 6.49991 15.1457 5.49697 15.1528 4.49403C15.1551 4.28114 15.0936 4.18416 14.8689 4.21491C14.7696 4.2291 14.6679 4.21727 14.5662 4.21491C14.2351 4.21018 14.1429 4.07062 14.2848 3.77967C14.4953 3.34916 14.7152 2.92575 14.9233 2.49525C14.9872 2.36042 15.0842 2.30364 15.2261 2.30364C15.4839 2.30601 15.7416 2.31311 15.9994 2.30128C16.2501 2.29182 16.3424 2.3959 16.34 2.64426C16.3306 3.54076 16.3353 4.43489 16.3377 5.32666Z" fill="#FEFEFE"/>
</svg>
