<svg width="30" height="39" viewBox="0 0 30 39" fill="none" xmlns="http://www.w3.org/2000/svg">
<g clip-path="url(#clip0_111_506)">
<path d="M7.18594 4.30087C7.18458 3.55102 7.47822 2.83058 8.00373 2.29441C8.52925 1.75825 9.24468 1.44917 9.99623 1.43362C10.5684 1.43362 11.1405 1.43362 11.708 1.43362C11.7476 1.4308 11.7861 1.4198 11.8212 1.40133C11.8562 1.38286 11.8871 1.35732 11.9117 1.32633C12.1217 0.971173 12.4114 0.669441 12.7581 0.444848C13.1047 0.220256 13.4989 0.0789237 13.9096 0.0319597C13.9418 0.0243977 13.9732 0.013693 14.0034 0L14.7197 0C14.889 0.0388082 15.0561 0.070768 15.2209 0.116425C15.8661 0.279672 16.421 0.689699 16.7656 1.25784C16.7968 1.31756 16.8455 1.36638 16.9052 1.39779C16.9649 1.42919 17.0327 1.44169 17.0997 1.43362C17.6429 1.42449 18.1868 1.42449 18.7314 1.43362C19.4826 1.44918 20.1975 1.75841 20.7223 2.2947C21.2471 2.83099 21.5397 3.55144 21.5372 4.30087H20.1183V8.59945H21.1046C20.5348 9.51259 19.7315 10.0331 18.6239 10.0331C15.7861 10.0331 12.9492 10.0331 10.1129 10.0331C9.60785 10.0433 9.10965 9.91498 8.67262 9.66219C8.2356 9.40939 7.87651 9.0418 7.63449 8.59945H8.60481V4.2963H7.17908L7.18594 4.30087ZM10.0695 7.15213H18.6513V4.31228H10.0695V7.15213Z" fill="white"/>
<path d="M7.62758 8.59266H4.32527V32.9505H17.5986C17.5103 33.6954 17.5616 34.4501 17.7496 35.1763C17.9347 35.9018 18.2303 36.5948 18.6261 37.2309C18.5483 37.2309 18.4934 37.2309 18.4385 37.2309C13.7379 37.2309 9.03883 37.2309 4.34129 37.2309C3.77164 37.2375 3.20636 37.131 2.67843 36.9174C2.15049 36.7039 1.67047 36.3876 1.26637 35.9871C0.862261 35.5865 0.54216 35.1097 0.324737 34.5844C0.107314 34.0592 -0.0030789 33.496 -1.24727e-06 32.9277C-1.24727e-06 24.8252 -1.24727e-06 16.7211 -1.24727e-06 8.61549C-0.00427692 8.04682 0.104968 7.483 0.321364 6.95688C0.537761 6.43076 0.856981 5.95287 1.26042 5.55108C1.66385 5.14928 2.14343 4.83161 2.6712 4.61658C3.19896 4.40155 3.76436 4.29347 4.33443 4.29864C5.28339 4.29864 6.23388 4.29864 7.1859 4.29864C7.1859 5.14557 7.2065 5.9925 7.1859 6.83944C7.15914 7.45714 7.31256 8.06932 7.62758 8.60179V8.59266Z" fill="white"/>
<path d="M21.5372 4.30086C22.5876 4.30086 23.638 4.26662 24.6884 4.30086C25.6923 4.36165 26.6427 4.77279 27.3732 5.46228C28.1038 6.15176 28.5678 7.07564 28.6842 8.07211C28.7059 8.26312 28.7173 8.45516 28.7185 8.64739C28.7185 15.015 28.7185 21.3811 28.7185 27.7456V27.9739C27.4821 27.0374 25.9685 26.5378 24.4161 26.554V8.5926H21.0978C21.4244 8.02811 21.578 7.38046 21.5395 6.7298C21.5166 5.91711 21.5395 5.10214 21.5395 4.28945L21.5372 4.30086Z" fill="white"/>
<path d="M24.5351 28.0903C25.6176 28.0904 26.6757 28.4107 27.5755 29.011C28.4753 29.6112 29.1763 30.4642 29.5898 31.4621C30.0033 32.46 30.1107 33.5578 29.8983 34.6166C29.686 35.6754 29.1635 36.6476 28.3969 37.4099C27.6304 38.1723 26.6543 38.6907 25.5923 38.8994C24.5303 39.1081 23.43 38.9978 22.4309 38.5824C21.4317 38.167 20.5786 37.4652 19.9796 36.5659C19.3805 35.6665 19.0624 34.6101 19.0656 33.5304C19.0659 32.8147 19.2077 32.1061 19.4828 31.4452C19.758 30.7843 20.1612 30.184 20.6692 29.6787C21.1772 29.1734 21.7802 28.773 22.4436 28.5005C23.1069 28.2279 23.8177 28.0885 24.5351 28.0903ZM20.8254 32.8478C21.7889 33.9504 22.7432 35.037 23.7044 36.1351L28.2425 32.188L27.16 30.9599L23.8623 33.8317L22.0681 31.7771L20.8254 32.8478Z" fill="white"/>
<path d="M21.5302 14.343V17.1806H7.19275V14.343H21.5302Z" fill="white"/>
<path d="M7.19055 22.9128V20.0707H21.512V22.9128H7.19055Z" fill="white"/>
<path d="M7.19275 28.6541V25.796H21.5417V26.5402C21.5417 26.7685 21.6126 27.0333 21.5165 27.2045C21.4204 27.3757 21.1412 27.4328 20.9627 27.5584C20.5187 27.8825 20.0885 28.2227 19.6468 28.5514C19.5714 28.6094 19.4808 28.6442 19.3859 28.6519C15.3795 28.6519 11.3716 28.6519 7.3621 28.6519C7.30946 28.6633 7.25912 28.6587 7.19275 28.6541Z" fill="white"/>
</g>
<defs>
<clipPath id="clip0_111_506">
<rect width="30" height="39" fill="white"/>
</clipPath>
</defs>
</svg>
