<svg width="9" height="10" viewBox="0 0 9 10" fill="none" xmlns="http://www.w3.org/2000/svg">
<path d="M8.06902 7.82141L7.03252 6.47616C6.66235 5.99572 5.91726 6.07213 5.67547 6.60296C5.49825 6.96922 5.04537 7.12674 4.67362 6.99204C3.85057 6.66912 2.84558 5.41445 2.7487 4.49373C2.67073 4.09439 2.98105 3.70216 3.38037 3.62421C3.95533 3.52576 4.21918 2.82478 3.849 2.34434L2.81251 0.999092C2.51085 0.657268 2.00048 0.591107 1.66417 0.850231L0.751325 1.55357C-0.167033 2.29943 0.433909 4.66936 2.17374 6.92745C3.91357 9.18554 6.04642 10.4135 7.00731 9.67308L7.92016 8.96974C8.262 8.66809 8.32816 8.15772 8.06902 7.82141Z" fill="white"/>
</svg>
