<svg width="27" height="30" viewBox="0 0 27 30" fill="none" xmlns="http://www.w3.org/2000/svg">
<g clip-path="url(#clip0_111_419)">
<path d="M21.5278 16.3812C24.3624 17.9128 26.0769 20.2799 26.567 23.4364C26.8996 25.5709 26.8657 27.7666 27.0001 30H0.0421425C5.89089e-05 26.4286 -0.304029 22.8349 1.77571 19.6449C2.67252 18.2538 3.91166 17.1304 5.36775 16.3882C7.58325 18.7274 10.2467 20.0418 13.4492 20.0404C16.6285 20.039 19.277 18.7483 21.5278 16.3812Z" fill="white"/>
<path d="M13.4315 1.31017e-05C15.1238 -0.00298797 16.7787 0.509643 18.1865 1.47287C19.5942 2.43609 20.6913 3.8065 21.3385 5.41022C21.9857 7.01395 22.1539 8.77871 21.8217 10.4806C21.4895 12.1825 20.6719 13.7449 19.4726 14.9694C18.2733 16.194 16.7464 17.0256 15.0856 17.3587C13.4248 17.6918 11.705 17.5115 10.1443 16.8405C8.58361 16.1695 7.2524 15.0382 6.31957 13.59C5.38675 12.1419 4.89434 10.4421 4.90483 8.7065C4.91297 3.91536 8.74258 1.31017e-05 13.4315 1.31017e-05Z" fill="white"/>
</g>
<defs>
<clipPath id="clip0_111_419">
<rect width="27" height="30" fill="white"/>
</clipPath>
</defs>
</svg>
