<svg width="14" height="14" viewBox="0 0 14 14" fill="none" xmlns="http://www.w3.org/2000/svg">
<path d="M6.18727 0.437347C3.09666 0.437347 0.582092 2.93679 0.582092 6.00882C0.582092 9.08102 3.09666 11.5803 6.18727 11.5803C9.27805 11.5803 11.7924 9.08102 11.7924 6.00882C11.7924 2.93679 9.27805 0.437347 6.18727 0.437347ZM6.18727 10.5517C3.66718 10.5517 1.61689 8.51378 1.61689 6.00885C1.61689 3.50391 3.66718 1.46593 6.18727 1.46593C8.70735 1.46593 10.7576 3.50389 10.7576 6.00882C10.7576 8.51375 8.70735 10.5517 6.18727 10.5517Z" fill="#677294"/>
<path d="M13.1587 12.2111L10.1923 9.26252C9.99013 9.0616 9.66278 9.0616 9.46065 9.26252C9.25852 9.46326 9.25852 9.78899 9.46065 9.98974L12.4271 12.9383C12.5281 13.0388 12.6604 13.089 12.7929 13.089C12.9252 13.089 13.0576 13.0388 13.1587 12.9383C13.3608 12.7376 13.3608 12.4119 13.1587 12.2111Z" fill="#677294"/>
</svg>
