<svg width="21" height="20" viewBox="0 0 21 20" fill="none" xmlns="http://www.w3.org/2000/svg">
<path d="M16.292 14.5026L20.3877 18.5973L19.0345 19.9504L14.9398 15.8547C13.4162 17.0761 11.5212 17.7404 9.56845 17.7376C4.81771 17.7376 0.962036 13.8819 0.962036 9.13119C0.962036 4.38045 4.81771 0.52478 9.56845 0.52478C14.3192 0.52478 18.1749 4.38045 18.1749 9.13119C18.1776 11.0839 17.5133 12.979 16.292 14.5026ZM14.3737 13.793C15.5873 12.545 16.2651 10.872 16.2623 9.13119C16.2623 5.43235 13.2663 2.43732 9.56845 2.43732C5.8696 2.43732 2.87457 5.43235 2.87457 9.13119C2.87457 12.8291 5.8696 15.8251 9.56845 15.8251C11.3093 15.8278 12.9822 15.1501 14.2303 13.9364L14.3737 13.793Z" fill="#082755"/>
</svg>
