<svg width="30" height="37" viewBox="0 0 30 37" fill="none" xmlns="http://www.w3.org/2000/svg">
<path d="M14.9819 36.1879C10.7531 36.1879 6.52356 36.1879 2.29319 36.1879C0.553363 36.1879 0.0144986 35.6256 0.0120822 33.8337C0.00402739 28.2483 0 22.663 0 17.0777C0 15.2931 0.543697 14.7308 2.29803 14.7308C6.56786 14.7308 10.8377 14.699 15.1051 14.7479C16.2867 14.7553 17.1567 14.4863 17.5675 13.264C17.8502 12.4524 18.4833 12.2128 19.2904 12.225C20.7813 12.2495 22.2723 12.2568 23.7608 12.225C24.6307 12.2054 25.2565 12.5086 25.5538 13.352C25.9428 14.4521 26.7354 14.7479 27.8252 14.7357C29.5167 14.7161 30 15.2466 30 16.9139C30 22.6182 30 28.3225 30 34.0268C30 35.6085 29.4587 36.1659 27.9098 36.1708C23.5916 36.1952 19.2831 36.1879 14.9819 36.1879ZM8.69915 25.353C8.68958 26.6191 9.05185 27.8596 9.74002 28.9172C10.4282 29.9747 11.4113 30.8017 12.5646 31.2933C13.718 31.7849 14.9896 31.9189 16.2183 31.6784C17.4471 31.4378 18.5775 30.8336 19.4664 29.9423C20.3552 29.0509 20.9624 27.9126 21.211 26.6717C21.4596 25.4308 21.3383 24.1431 20.8626 22.972C20.3869 21.8008 19.5782 20.799 18.539 20.0935C17.4998 19.388 16.2769 19.0105 15.0254 19.009C14.1977 19.0032 13.377 19.163 12.6105 19.479C11.844 19.7951 11.1468 20.2613 10.559 20.8508C9.97109 21.4403 9.50417 22.1415 9.185 22.9142C8.86584 23.6868 8.70073 24.5156 8.69915 25.353Z" fill="white"/>
<path d="M24.9159 5.61458L23.3887 5.92995C22.8716 4.74671 22.3738 3.60015 21.8204 2.32402L1.9501 11.0051C2.09026 11.3963 2.30532 11.7385 2.30532 12.0564C2.30532 12.3742 2.09509 12.7458 1.97668 13.0905C1.61905 12.934 1.09469 12.8827 0.930369 12.6015C-0.0627844 10.9636 0.268267 10.0321 2.00085 9.27673L20.4914 1.20191C22.1829 0.468497 22.7725 0.678741 23.5047 2.35091C23.959 3.38502 24.406 4.42157 24.9159 5.61458Z" fill="white"/>
<path d="M28.9826 13.0783H27.4337C27.0471 11.5235 26.6629 9.96618 26.2521 8.31601C23.0938 9.06654 20.0104 9.78283 16.9319 10.5358C13.7301 11.3083 10.5404 12.1371 7.32415 12.8509C6.20051 13.0954 5.0213 13.0832 3.7865 13.1956C3.8155 12.0002 4.64917 11.8975 5.33785 11.7288C11.2372 10.3076 17.1373 8.89296 23.0382 7.48482C23.9371 7.26968 24.8288 7.02521 25.7325 6.83208C26.8296 6.58761 27.5376 7.03255 27.8107 8.12777C28.2166 9.74127 28.5791 11.367 28.9826 13.0783Z" fill="white"/>
<path d="M10.0717 25.4703C10.0563 24.8194 10.1688 24.1718 10.4025 23.5651C10.6363 22.9584 10.9868 22.4047 11.4336 21.9361C11.8804 21.4674 12.4147 21.0932 13.0056 20.8349C13.5964 20.5767 14.232 20.4397 14.8756 20.4318C17.7221 20.3878 20.0105 22.632 19.9936 25.4336C19.9984 26.7647 19.4803 28.0433 18.5534 28.9879C17.6264 29.9326 16.3665 30.4661 15.0508 30.4709C13.735 30.4758 12.4713 29.9517 11.5375 29.0139C10.6038 28.0761 10.0765 26.8014 10.0717 25.4703ZM13.909 24.3091L11.7535 24.446V26.4653L13.9042 26.5924L14.0395 28.6924H16.0355L16.1949 26.568L18.2755 26.4726V24.3482H16.1708C16.1249 23.5537 16.0862 22.8814 16.0451 22.148H14.0274L13.909 24.3091Z" fill="white"/>
</svg>
