<svg width="86" height="59" viewBox="0 0 86 59" fill="none" xmlns="http://www.w3.org/2000/svg">
<path d="M60.8686 43.4408C55.8827 43.4408 50.8968 43.4408 45.9109 43.4408C41.9709 43.4478 39.1758 46.2338 39.1371 50.2029C39.1138 52.5909 39.1053 54.9796 39.1479 57.3668C39.1618 58.1636 38.9217 58.453 38.1052 58.4367C35.2783 58.3708 35.8059 58.7183 35.7966 56.1659C35.7873 53.5653 35.7571 50.9539 35.9647 48.3649C36.1483 46.0832 37.3963 44.2445 39.0092 42.6425C39.3694 42.2739 39.6014 41.7989 39.6708 41.2879C40.2906 34.9199 45.326 29.9329 51.7032 29.7568C57.6941 29.5918 63.691 29.5887 69.6938 29.7475C76.0082 29.9026 80.8678 34.5809 81.7874 40.99C81.8649 41.5214 82.2112 42.1071 82.607 42.485C84.7521 44.5308 85.987 46.9498 85.9692 49.9639C85.9544 52.4605 85.956 54.9579 85.9994 57.4537C86.0133 58.2427 85.7623 58.5554 84.952 58.5399C82.0237 58.491 82.6117 58.754 82.5559 56.2124C82.5009 53.7205 82.6411 51.2068 82.3521 48.7428C81.9927 45.6659 79.2658 43.4765 76.1547 43.4617C71.0603 43.4369 65.9652 43.4548 60.8709 43.4548L60.8686 43.4408Z" fill="#082755"/>
<path d="M47.3419 0.892944C45.8087 2.48726 44.7343 3.83332 42.3769 3.80694C29.7286 3.66652 17.0787 3.741 4.42888 3.741H2.95698V41.0294H35.5713C33.265 42.8821 32.7274 45.3842 32.3951 47.8699C32.12 49.9344 32.2401 52.0524 32.1975 54.1471C32.1828 54.8244 32.1975 55.5025 32.1975 56.2503H17.8503C17.8503 55.3093 17.7984 54.3775 17.8914 53.4574C17.9115 53.2588 18.4484 52.9725 18.7528 52.9655C20.8119 52.9221 22.8734 52.8996 24.9317 52.9609C25.8497 52.9888 26.1666 52.6746 26.0806 51.7839C26.0225 51.1803 26.0697 50.5667 26.0697 49.78H24.5978C17.2972 49.78 9.99655 49.78 2.69591 49.78C0.604255 49.78 0 49.1663 0 47.0522C0.00103291 32.5758 0.00154937 18.0989 0.00154937 3.62152C0.00154937 1.48723 0.585663 0.892944 2.67886 0.892944H47.3419Z" fill="#082755"/>
<path d="M74.4813 13.6196C74.4813 21.2576 68.5007 27.2245 60.8507 27.2206C53.3587 27.2159 47.2751 21.1133 47.2782 13.6049C47.2813 6.05531 53.3827 -0.00542712 60.9747 3.64686e-06C68.51 0.00543442 74.4821 6.02661 74.4813 13.6196Z" fill="#082755"/>
<path d="M23.7534 25.0483C19.323 25.0413 15.7959 21.5136 15.7742 17.065C15.7501 12.5614 19.4191 8.88008 23.8805 8.93206C28.2962 8.98404 31.9372 12.6878 31.8962 17.0829C31.8489 21.5423 28.2582 25.0591 23.7534 25.0483Z" fill="#082755"/>
<path d="M23.7277 30.455C24.9479 29.5116 26.075 28.6093 27.2409 27.7613C27.5284 27.5518 27.9939 27.3424 28.2907 27.43C31.0021 28.2307 33.481 29.4472 35.1489 31.8639C36.0445 33.1603 36.5837 34.5792 36.3977 36.2744H11.1833C11.019 34.511 11.5838 33.0253 12.5583 31.6901C14.2371 29.3921 16.6572 28.2121 19.2911 27.4316C19.5878 27.3439 20.0588 27.5503 20.3424 27.7636C21.4688 28.6077 22.5494 29.5092 23.7277 30.455Z" fill="#082755"/>
</svg>
