<svg width="318" height="164" viewBox="0 0 318 164" fill="none" xmlns="http://www.w3.org/2000/svg">
<g clip-path="url(#clip0_386_330)">
<path d="M224.062 119.883C221.893 117.717 220.558 115.378 219.503 112.869C217.66 108.49 217.205 103.865 217.037 99.1711C216.919 95.88 216.696 92.5946 216.368 89.3148C216.262 88.2179 215.782 87.1094 215.265 86.1136C214.344 84.3403 214.462 82.4984 214.695 80.6544C215.191 76.741 214.273 73.1373 212.433 69.7223C210.698 66.4969 208.271 63.7921 205.809 61.1188C205.457 60.7339 205.107 60.3454 204.761 59.9534C204.724 59.9113 204.728 59.8333 204.664 59.5709C205.201 59.7722 205.668 59.8691 206.051 60.0978C210.626 62.87 214.734 66.3422 218.226 70.3872C220.578 73.111 221.72 73.248 224.626 71.1564C230.952 66.6044 237.931 63.2188 244.924 59.8607C245.246 59.7058 245.645 59.709 246.007 59.6373C246.05 59.7195 246.093 59.8006 246.136 59.8828C245.836 60.1452 245.554 60.4297 245.236 60.6657C239.709 64.7752 234.353 69.0721 229.801 74.2669C228.574 75.6662 227.37 77.1024 226.305 78.6239C224.02 81.8904 223.633 85.4161 225.109 89.1367C226.533 92.7267 226.828 96.4705 226.13 100.214C225.016 106.251 224.393 112.367 224.267 118.503C224.254 118.875 224.158 119.246 224.062 119.883Z" fill="#C80919"/>
<path d="M225.025 64.9132C225.028 65.4276 224.93 65.9376 224.735 66.4139C224.54 66.8902 224.252 67.3234 223.889 67.6886C223.525 68.0538 223.093 68.3438 222.617 68.542C222.14 68.7402 221.63 68.8427 221.113 68.8435C218.976 68.8361 217.216 67.0332 217.235 64.871C217.256 63.8519 217.679 62.8821 218.411 62.1709C219.144 61.4597 220.128 61.0642 221.151 61.0697C222.173 61.0752 223.153 61.4814 223.878 62.2005C224.603 62.9195 225.015 63.8939 225.025 64.9132Z" fill="#C80919"/>
<path d="M222.395 53.804C221.936 54.98 221.344 54.6639 220.703 54.1381C219.26 52.9621 218.906 51.3637 219.337 49.7125C220.11 46.7527 222.167 44.6263 224.435 42.6959C224.475 42.6622 224.56 42.6791 224.85 42.6475C225.339 43.718 225.899 44.8402 226.37 45.9993C227.051 47.6852 227.438 49.427 227.215 51.253C227.017 52.9126 226.158 54.098 224.564 54.7071C223.305 55.1918 223.11 55.1085 222.395 53.804Z" fill="#35B518"/>
<path d="M199.62 53.0981C199.806 53.2877 199.987 53.4827 200.18 53.666C200.743 54.2023 200.662 54.6396 199.927 54.9958C198.706 55.589 196.904 55.2118 195.828 54.1402C194.07 52.3879 193.369 50.1266 192.763 47.818C192.657 47.3965 192.844 47.1857 193.291 47.1921C195.605 47.2437 197.884 47.5303 199.925 48.6904C201.252 49.4459 201.952 50.6535 201.828 52.2435C201.74 53.3678 201.449 53.5448 200.428 53.0949C200.217 53.0001 199.981 52.9432 199.757 52.8694L199.62 53.0981Z" fill="#35B518"/>
<path d="M211.771 53.1697C211.789 53.431 211.731 53.7303 211.84 53.9442C212.051 54.3477 212.338 54.7092 212.611 55.0748C213.116 55.7534 212.922 56.2929 212.058 56.4141C210.155 56.6817 208.539 56.1759 207.431 54.5258C206.39 52.9758 205.915 51.2151 205.675 49.3901C205.56 48.5197 205.53 47.6378 205.479 46.7558C205.451 46.2437 205.682 45.8749 206.233 46.0182C208.876 46.6873 211.491 47.4397 213.545 49.3732C214.974 50.7188 215.394 52.6397 214.644 54.1865C214.185 55.1349 213.837 55.1854 213.158 54.412C212.778 53.9779 212.411 53.5322 212.038 53.0907L211.771 53.1697Z" fill="#35B518"/>
<path d="M235.756 55.5079C235.291 55.824 234.805 56.1043 234.365 56.4457C233.631 57.0136 233.071 56.8671 232.845 56.002C232.376 54.2108 233.034 52.4384 234.562 51.3215C236.814 49.6735 239.435 49.1772 242.129 48.9043C242.642 48.8516 243.017 49.0213 242.903 49.5998C242.412 52.0949 242.008 54.6238 240.356 56.7101C238.903 58.5446 237.171 59.2053 235.401 58.5689C234.215 58.1474 234.147 57.7754 235.05 56.8903C235.398 56.5489 235.684 56.1464 236.001 55.7723L235.756 55.5079Z" fill="#35B518"/>
<path d="M252.569 38.5117C252.569 40.2566 252.317 41.9489 251.491 43.5157C250.789 44.8486 249.788 45.777 248.166 45.6358C246.76 45.5125 245.666 44.8181 245.17 43.463C244.625 41.9731 244.995 40.656 246.156 39.5496C247.77 38.0143 249.802 37.2915 251.865 36.635C252.03 36.5824 252.484 36.9238 252.543 37.1503C252.648 37.5781 252.569 38.0544 252.569 38.5117Z" fill="#35B518"/>
<path d="M205.244 40.6655C205.033 42.2797 203.728 43.109 202.521 43.5705C201.367 44.012 200.109 43.2639 199.26 42.2671C197.827 40.5812 197.559 38.499 197.378 36.4159C197.207 34.4528 197.301 34.3527 199.153 35.0714C200.7 35.6563 202.191 36.3774 203.609 37.2262C204.812 37.9606 205.411 39.1766 205.244 40.6655Z" fill="#35B518"/>
<path d="M238.169 40.0048C238.045 41.0026 237.957 42.0068 237.783 42.9952C237.691 43.4074 237.526 43.7999 237.295 44.1542C236.328 45.7601 234.392 46.367 232.961 45.5293C231.022 44.4029 230.461 42.6749 231.475 40.8246C232.388 39.1555 233.885 38.1113 235.517 37.2357C237.747 36.0408 237.737 35.5708 238.014 38.6223C238.055 39.0765 238.068 39.5338 238.094 39.9921L238.169 40.0048Z" fill="#35B518"/>
<path d="M224.892 37.3737C223.517 38.4337 222.845 38.2862 222.249 36.5824C221.985 35.7864 221.962 34.9309 222.182 34.122C222.843 31.8365 224.534 30.2517 226.273 28.7407C226.69 28.3793 227.063 28.4847 227.288 28.9894C228.172 30.9704 228.874 32.9987 228.732 35.2115C228.639 36.6509 227.992 37.7646 226.648 38.4042C225.631 38.8868 225.418 38.7846 225.093 37.6877C225.04 37.5743 224.973 37.4687 224.892 37.3737Z" fill="#35B518"/>
<path d="M201.893 63.4085C201.895 63.7427 201.872 64.0766 201.824 64.4074C201.724 64.9606 201.507 65.3484 200.825 64.9343C200.651 64.8289 200.322 64.9764 200.064 65.008C200.181 65.2093 200.247 65.4927 200.421 65.596C201.073 65.9869 200.832 66.2809 200.369 66.5833C199.031 67.4568 197.33 67.224 195.964 65.9711C194.678 64.7931 193.923 63.2747 193.289 61.6941C192.394 59.4603 192.412 59.4677 194.811 59.5425C196.494 59.5962 198.14 59.7901 199.666 60.5604C200.755 61.1146 201.618 61.8648 201.893 63.4085Z" fill="#35B518"/>
<path d="M255.493 51.0497C256.148 51.1245 256.928 51.1498 257.667 51.3352C257.909 51.3963 258.273 51.9927 258.195 52.1487C256.998 54.5142 255.739 56.8471 253.376 58.3149C251.896 59.2327 250.386 59.4582 248.804 58.5868C248.669 58.513 248.457 58.4814 248.409 58.3676C247.897 57.198 247.114 56.0495 247 54.8346C246.886 53.6196 247.752 52.5385 248.903 51.8842C250.943 50.7283 253.136 50.645 255.493 51.0497Z" fill="#35B518"/>
<path d="M214.909 42.1659C214.935 42.5653 214.96 42.9646 214.989 43.364C215.054 44.248 214.648 44.5831 213.826 44.2175C212.62 43.6822 211.768 42.7697 211.595 41.4347C211.278 38.9658 212.123 36.7352 213.197 34.5803C213.282 34.4075 213.894 34.2642 214.026 34.3812C215.766 35.8932 217.401 37.5117 218.056 39.8141C218.449 41.1976 218.225 42.4831 217.092 43.483C216.839 43.7064 216.49 43.8223 216.185 43.9878C216.026 43.6875 215.856 43.3935 215.711 43.0858C215.556 42.7539 215.425 42.4114 215.288 42.0732L214.909 42.1659Z" fill="#35B518"/>
<path d="M52.4742 162.816C53.172 162.78 53.7319 162.684 54.1541 162.527C54.6334 162.346 55.0592 162.047 55.3918 161.659C55.7245 161.27 55.9533 160.804 56.057 160.304C56.1979 159.709 56.2684 158.8 56.2684 157.576V144.299C56.2684 142.978 56.187 142.011 56.0242 141.399C55.874 140.808 55.5411 140.279 55.0727 139.887C54.4821 139.395 53.6149 139.119 52.4711 139.058V138.644H62.4084C64.6122 138.644 66.0154 138.668 66.618 138.716C69.1594 138.908 71.3153 139.628 73.0857 140.877C74.7781 142.073 76.1343 143.682 77.0247 145.55C77.9691 147.481 78.4413 149.58 78.4413 151.849C78.4511 153.447 78.1788 155.035 77.6368 156.54C77.1004 158.011 76.3569 159.232 75.4061 160.205C74.0671 161.574 72.3989 162.444 70.4016 162.816C68.8938 163.093 67.3636 163.232 65.8304 163.23H52.4742V162.816ZM60.2243 139.213V157.107C60.2243 158.284 60.2905 159.179 60.423 159.79C60.5379 160.365 60.7919 160.903 61.163 161.357C61.9334 162.293 63.1861 162.761 64.9212 162.762C66.4013 162.762 67.6699 162.518 68.727 162.032C69.7842 161.545 70.7268 160.756 71.5549 159.664C72.3902 158.575 73.0235 157.347 73.425 156.036C73.8591 154.627 74.0751 153.16 74.0657 151.686C74.0739 150.035 73.8115 148.392 73.2887 146.825C72.8077 145.354 72.0548 143.986 71.0686 142.791C69.7296 141.194 68.1336 140.138 66.2807 139.622C65.2694 139.346 63.9807 139.207 62.4147 139.207L60.2243 139.213Z" fill="#C80919" stroke="#C80919" stroke-width="0.25" stroke-miterlimit="10"/>
<path d="M87.8003 153.433C87.7517 154.021 87.7277 154.448 87.7284 154.712C87.727 155.749 87.8816 156.782 88.1872 157.774C88.4931 158.77 88.9103 159.599 89.4389 160.258C89.984 160.93 90.6724 161.473 91.4541 161.847C92.2358 162.221 93.0912 162.416 93.9583 162.419C94.5877 162.423 95.2126 162.313 95.803 162.095C96.3461 161.904 96.8408 161.597 97.2524 161.195C97.6844 160.774 98.0565 160.101 98.3687 159.178L98.7482 159.304C98.4353 160.709 97.764 161.768 96.7343 162.483C95.7047 163.197 94.3346 163.554 92.6241 163.554C91.1441 163.554 89.8734 163.32 88.812 162.851C87.7419 162.376 86.8143 161.63 86.1205 160.689C85.0964 159.334 84.5844 157.665 84.5844 155.683C84.5844 152.982 85.5538 150.864 87.4927 149.327C88.856 148.226 90.5619 147.634 92.3165 147.652C93.2335 147.643 94.1429 147.818 94.9911 148.165C95.7896 148.493 96.5007 149.002 97.0684 149.651C97.948 150.659 98.3877 151.92 98.3877 153.432L87.8003 153.433ZM95.6772 152.732C95.594 151.531 95.3724 150.606 95.0122 149.958C94.7069 149.391 94.2611 148.91 93.7172 148.562C93.2036 148.228 92.604 148.05 91.9909 148.049C90.9591 148.049 90.0566 148.493 89.2835 149.382C88.5104 150.271 88.0522 151.387 87.9092 152.732H95.6772Z" fill="#C80919" stroke="#C80919" stroke-width="0.25" stroke-miterlimit="10"/>
<path d="M109.123 147.653C109.285 148.293 109.37 148.949 109.378 149.609V149.898C110.871 148.402 112.647 147.654 114.707 147.653C116.248 147.653 117.489 148.013 118.429 148.732C119.356 149.44 119.82 150.447 119.821 151.754V159.381C119.821 160.196 119.869 160.793 119.964 161.172C120.051 161.537 120.246 161.867 120.525 162.12C120.862 162.445 121.482 162.691 122.385 162.858V163.236H114.401V162.858C115.122 162.762 115.64 162.627 115.954 162.453C116.267 162.28 116.52 161.983 116.713 161.563C116.845 161.287 116.938 160.871 116.993 160.313C117.047 159.755 117.074 158.955 117.074 157.912V154.093C117.074 152.785 117.029 151.826 116.939 151.215C116.849 150.605 116.677 150.113 116.425 149.74C116.131 149.306 115.718 148.966 115.236 148.76C114.697 148.522 114.113 148.402 113.523 148.409C112.874 148.404 112.231 148.539 111.639 148.806C111.095 149.04 110.621 149.412 110.265 149.885C109.904 150.365 109.66 150.922 109.552 151.512C109.439 152.118 109.382 153.122 109.382 154.524V158.055L109.4 159.386C109.4 160.201 109.448 160.799 109.544 161.177C109.631 161.542 109.826 161.873 110.104 162.125C110.442 162.45 111.062 162.696 111.966 162.863V163.241H103.976V162.863C104.698 162.768 105.216 162.634 105.53 162.461C105.844 162.287 106.096 161.991 106.288 161.573C106.42 161.299 106.514 160.883 106.568 160.328C106.622 159.772 106.649 158.969 106.649 157.918V153.492C106.649 152.263 106.619 151.4 106.56 150.904C106.522 150.476 106.386 150.062 106.162 149.695C105.987 149.39 105.731 149.138 105.422 148.969C105.133 148.819 104.717 148.728 104.176 148.691V148.313L109.123 147.653Z" fill="#C80919" stroke="#C80919" stroke-width="0.25" stroke-miterlimit="10"/>
<path d="M131.244 147.924H135.833V148.608H131.244V159.088C131.244 160.352 131.46 161.253 131.892 161.789C132.128 162.095 132.438 162.337 132.793 162.491C133.172 162.661 133.584 162.747 133.999 162.744C134.472 162.761 134.94 162.645 135.35 162.41C135.711 162.189 136.107 161.784 136.539 161.195L136.809 161.429C136.436 162.126 135.851 162.687 135.138 163.032C134.421 163.379 133.527 163.555 132.455 163.558C131.033 163.558 129.997 163.282 129.347 162.729C129.014 162.465 128.774 162.103 128.661 161.694C128.551 161.292 128.497 160.568 128.498 159.524V148.608H126.565V148.32C127.348 148.067 128.071 147.581 128.735 146.861C129.105 146.457 129.428 146.013 129.698 145.537C129.984 144.994 130.216 144.424 130.389 143.835L130.571 143.241H131.244V147.924Z" fill="#C80919" stroke="#C80919" stroke-width="0.25" stroke-miterlimit="10"/>
<path d="M154.953 161.483L155.261 161.663C154.827 162.923 153.834 163.555 152.28 163.56C151.423 163.56 150.712 163.349 150.144 162.927C149.771 162.652 149.384 162.172 148.981 161.487C148.173 162.208 147.564 162.682 147.153 162.909C146.369 163.343 145.458 163.559 144.422 163.558C143.095 163.558 142.042 163.24 141.264 162.604C140.486 161.967 140.098 161.109 140.101 160.029C140.101 159.032 140.42 158.197 141.059 157.525C141.417 157.156 141.84 156.854 142.305 156.634C142.776 156.412 143.457 156.188 144.347 155.959C145.395 155.694 146.171 155.472 146.672 155.292C147.12 155.139 147.543 154.92 147.927 154.644C148.283 154.405 148.56 154.067 148.722 153.672C148.867 153.3 148.938 152.784 148.934 152.124C148.934 150.719 148.669 149.692 148.139 149.044C147.888 148.736 147.57 148.49 147.208 148.324C146.84 148.146 146.435 148.054 146.025 148.053C145.558 148.046 145.098 148.178 144.706 148.432C144.319 148.686 144.017 149.049 143.839 149.476L143.388 150.521C143.147 151.083 142.713 151.364 142.086 151.364C141.896 151.369 141.707 151.336 141.53 151.266C141.353 151.196 141.192 151.092 141.057 150.958C140.921 150.827 140.813 150.669 140.742 150.493C140.67 150.318 140.636 150.13 140.641 149.942C140.641 149.33 141.076 148.813 141.945 148.393C142.505 148.15 143.091 147.973 143.691 147.866C144.361 147.729 145.043 147.658 145.726 147.655C146.513 147.66 147.296 147.757 148.061 147.944C148.766 148.098 149.448 148.346 150.088 148.681C150.872 149.126 151.36 149.702 151.553 150.41C151.65 150.771 151.698 151.377 151.698 152.229V158.892C151.698 160.021 151.746 160.789 151.843 161.197C152.047 162.05 152.541 162.476 153.323 162.475C153.696 162.475 153.988 162.41 154.199 162.277C154.411 162.144 154.662 161.879 154.953 161.483ZM148.973 154.388C148.312 154.937 147.593 155.414 146.83 155.811C146.204 156.131 145.597 156.485 145.011 156.873C144.667 157.12 144.358 157.411 144.091 157.739C143.531 158.425 143.231 159.285 143.245 160.17C143.245 160.962 143.464 161.616 143.903 162.132C144.103 162.379 144.358 162.577 144.647 162.71C144.936 162.844 145.252 162.909 145.571 162.902C146.17 162.899 146.753 162.707 147.236 162.353C147.76 161.985 148.169 161.476 148.416 160.885C148.788 160.081 148.974 158.917 148.974 157.392L148.973 154.388Z" fill="#C80919" stroke="#C80919" stroke-width="0.25" stroke-miterlimit="10"/>
<path d="M158.808 138.577L164.011 137.929V158.011L164.029 159.381C164.029 160.198 164.077 160.795 164.173 161.172C164.26 161.537 164.455 161.867 164.733 162.12C165.071 162.445 165.691 162.691 166.595 162.858V163.236H158.609V162.858C159.331 162.762 159.849 162.627 160.163 162.453C160.476 162.28 160.729 161.983 160.921 161.563C161.054 161.287 161.147 160.871 161.201 160.314C161.255 159.757 161.282 158.949 161.282 157.891V143.771C161.282 142.549 161.252 141.686 161.193 141.182C161.156 140.75 161.02 140.331 160.795 139.96C160.622 139.655 160.365 139.405 160.055 139.24C159.766 139.097 159.35 139.006 158.809 138.97L158.808 138.577Z" fill="#C80919" stroke="#C80919" stroke-width="0.25" stroke-miterlimit="10"/>
<path d="M206.1 138.524L206.311 146.573H205.896C205.762 146.225 205.661 145.961 205.588 145.78C205.165 144.628 204.822 143.769 204.558 143.205C204.061 142.16 203.368 141.218 202.517 140.432C201.913 139.842 201.202 139.371 200.422 139.045C199.644 138.747 198.816 138.601 197.983 138.613C196.621 138.613 195.441 138.908 194.441 139.496C193.562 140.013 192.743 140.754 191.984 141.72C191.204 142.724 190.577 143.837 190.123 145.024C189.436 146.765 189.093 148.746 189.093 150.967C189.093 152.851 189.328 154.55 189.798 156.062C190.268 157.575 190.955 158.841 191.858 159.862C193.519 161.759 195.724 162.707 198.47 162.707C199.844 162.707 201.077 162.47 202.17 161.996C203.263 161.522 204.113 160.853 204.718 159.989C205.417 158.992 205.923 157.647 206.236 155.955L206.651 156.027C206.422 157.923 205.904 159.43 205.097 160.547C204.326 161.615 203.264 162.432 201.909 162.996C200.554 163.56 198.986 163.841 197.203 163.839C195.583 163.846 193.974 163.597 192.433 163.101C190.012 162.309 188.121 160.877 186.76 158.806C185.399 156.735 184.719 154.266 184.719 151.397C184.719 149.2 185.116 147.174 185.91 145.319C186.704 143.464 187.813 141.972 189.235 140.844C190.331 139.98 191.641 139.293 193.164 138.783C194.639 138.28 196.186 138.021 197.744 138.017C199.202 138.017 200.744 138.293 202.369 138.845L203.849 139.332C204.09 139.43 204.347 139.485 204.607 139.494C204.752 139.496 204.895 139.462 205.024 139.396C205.153 139.33 205.264 139.234 205.347 139.116C205.467 138.928 205.57 138.729 205.655 138.522L206.1 138.524Z" fill="#C80919" stroke="#C80919" stroke-width="0.25" stroke-miterlimit="10"/>
<path d="M227.044 161.483L227.352 161.663C226.918 162.923 225.925 163.555 224.371 163.56C223.514 163.56 222.803 163.349 222.236 162.927C221.862 162.652 221.474 162.172 221.073 161.487C220.265 162.208 219.656 162.682 219.246 162.909C218.462 163.343 217.551 163.559 216.514 163.558C215.187 163.558 214.134 163.24 213.357 162.604C212.58 161.967 212.192 161.109 212.194 160.029C212.194 159.032 212.511 158.197 213.146 157.525C213.504 157.156 213.927 156.854 214.393 156.634C214.862 156.412 215.543 156.188 216.434 155.959C217.482 155.694 218.258 155.472 218.76 155.292C219.208 155.139 219.631 154.92 220.016 154.644C220.371 154.405 220.648 154.067 220.81 153.672C220.955 153.3 221.028 152.784 221.028 152.124C221.028 150.719 220.763 149.692 220.233 149.044C219.982 148.736 219.664 148.49 219.303 148.324C218.933 148.146 218.529 148.054 218.118 148.053C217.651 148.046 217.192 148.178 216.8 148.432C216.413 148.686 216.111 149.049 215.932 149.476L215.481 150.521C215.24 151.083 214.806 151.364 214.18 151.364C213.989 151.369 213.8 151.336 213.623 151.266C213.446 151.196 213.285 151.092 213.15 150.958C213.014 150.827 212.906 150.669 212.835 150.493C212.763 150.318 212.729 150.13 212.734 149.942C212.734 149.33 213.169 148.813 214.038 148.393C214.598 148.15 215.184 147.974 215.784 147.866C216.454 147.729 217.136 147.658 217.819 147.655C218.606 147.66 219.39 147.757 220.155 147.944C220.86 148.098 221.542 148.346 222.181 148.681C222.964 149.126 223.453 149.702 223.646 150.41C223.744 150.771 223.792 151.377 223.791 152.229V158.892C223.791 160.021 223.839 160.789 223.936 161.197C224.141 162.05 224.634 162.476 225.416 162.475C225.789 162.475 226.082 162.41 226.292 162.277C226.503 162.144 226.761 161.879 227.044 161.483ZM221.065 154.388C220.403 154.937 219.684 155.414 218.921 155.811C218.295 156.131 217.688 156.485 217.103 156.873C216.761 157.12 216.454 157.411 216.189 157.739C215.629 158.425 215.329 159.285 215.343 160.17C215.343 160.962 215.563 161.616 216.001 162.132C216.201 162.379 216.455 162.578 216.744 162.712C217.033 162.846 217.348 162.913 217.667 162.906C218.267 162.903 218.85 162.711 219.333 162.357C219.857 161.989 220.266 161.48 220.512 160.889C220.884 160.085 221.07 158.921 221.071 157.396L221.065 154.388Z" fill="#C80919" stroke="#C80919" stroke-width="0.25" stroke-miterlimit="10"/>
<path d="M235.867 150.424C236.301 149.669 236.788 149.099 237.33 148.715C238.326 148.008 239.522 147.636 240.745 147.653C241.527 147.653 242.123 147.829 242.534 148.18C242.709 148.316 242.851 148.49 242.948 148.69C243.045 148.889 243.095 149.109 243.094 149.33C243.099 149.484 243.072 149.637 243.014 149.779C242.957 149.922 242.87 150.051 242.76 150.159C242.646 150.267 242.511 150.351 242.363 150.407C242.216 150.462 242.059 150.488 241.901 150.482C241.697 150.482 241.496 150.436 241.312 150.349C241.127 150.262 240.964 150.135 240.835 149.978L240.275 149.367C240.078 149.146 239.836 148.969 239.565 148.848C239.294 148.728 239 148.665 238.703 148.665C237.885 148.665 237.246 149.192 236.788 150.246C236.33 151.3 236.101 152.769 236.102 154.653V158.016L236.12 159.386C236.12 160.201 236.168 160.799 236.265 161.177C236.351 161.542 236.546 161.873 236.825 162.125C237.161 162.45 237.781 162.696 238.686 162.863V163.241H230.7V162.863C231.423 162.768 231.941 162.634 232.254 162.461C232.567 162.287 232.82 161.991 233.013 161.573C233.145 161.299 233.239 160.883 233.293 160.328C233.347 159.772 233.374 158.969 233.373 157.918V153.492C233.373 152.263 233.343 151.4 233.283 150.904C233.246 150.476 233.11 150.062 232.886 149.695C232.712 149.389 232.455 149.138 232.146 148.969C231.857 148.819 231.442 148.728 230.9 148.691V148.313L235.557 147.664C235.746 148.573 235.849 149.497 235.867 150.424Z" fill="#C80919" stroke="#C80919" stroke-width="0.25" stroke-miterlimit="10"/>
<path d="M250.723 153.433C250.675 154.021 250.651 154.448 250.652 154.712C250.65 155.749 250.805 156.782 251.11 157.774C251.416 158.77 251.833 159.599 252.362 160.258C252.907 160.93 253.596 161.473 254.377 161.847C255.159 162.221 256.014 162.416 256.881 162.419C257.511 162.423 258.136 162.313 258.726 162.095C259.269 161.904 259.764 161.597 260.177 161.195C260.608 160.774 260.98 160.101 261.293 159.178L261.672 159.304C261.359 160.709 260.687 161.768 259.657 162.483C258.628 163.197 257.258 163.554 255.547 163.554C254.067 163.554 252.797 163.32 251.735 162.851C250.665 162.375 249.738 161.631 249.044 160.69C248.019 159.335 247.507 157.666 247.508 155.684C247.508 152.983 248.477 150.865 250.417 149.328C251.78 148.227 253.486 147.635 255.241 147.653C256.157 147.644 257.066 147.819 257.914 148.166C258.713 148.494 259.424 149.003 259.992 149.652C260.871 150.661 261.311 151.921 261.311 153.433H250.723ZM258.6 152.732C258.517 151.531 258.295 150.606 257.935 149.958C257.63 149.39 257.184 148.91 256.64 148.562C256.127 148.228 255.527 148.05 254.914 148.049C253.882 148.049 252.98 148.493 252.208 149.382C251.435 150.271 250.977 151.387 250.833 152.732H258.6Z" fill="#C80919" stroke="#C80919" stroke-width="0.25" stroke-miterlimit="10"/>
<path d="M3.55841 130.709C103.143 127.174 214.857 127.144 314.442 130.709C214.857 134.275 103.143 134.245 3.55841 130.709Z" fill="#35B518"/>
<path d="M84.7017 87.5087C81.3238 95.2324 77.9461 102.956 74.5689 110.679C73.9811 112.021 73.3256 113.338 72.796 114.703C72.3055 115.967 71.9249 117.278 71.5274 118.578C71.4312 118.894 71.316 119.034 70.9745 119.045C69.726 119.084 69.8 119.066 69.3476 117.9C68.5758 115.909 67.7269 113.945 66.8622 111.991C63.5955 104.611 60.3184 97.2347 57.0306 89.8638C56.8995 89.5698 56.7822 89.2695 56.5295 88.986C56.4777 89.7342 56.4238 90.4823 56.3752 91.2315C56.1341 95.0711 55.8413 98.9087 55.6711 102.752C55.4914 106.802 55.4258 110.857 55.3233 114.909C55.325 115.254 55.3708 115.598 55.4596 115.931C55.7208 117.032 56.4407 117.608 57.6681 117.709C58.258 117.757 58.8486 117.792 59.4399 117.814C59.7263 117.824 59.849 117.93 59.8426 118.219C59.8342 118.581 59.8553 118.944 59.8648 119.305C59.8712 119.568 59.7655 119.663 59.4843 119.647C55.6083 119.398 51.7202 119.402 47.8449 119.661C47.5711 119.681 47.2941 119.661 46.9897 119.661V117.746C47.5711 117.746 48.1251 117.775 48.6737 117.74C50.4804 117.629 51.4224 116.81 51.6475 115.025C51.9129 112.869 52.1053 110.705 52.2818 108.538C52.5334 105.462 52.7438 102.381 52.969 99.3007C53.1973 96.1867 53.4225 93.0723 53.6445 89.9575C53.7344 88.6847 53.8263 87.4097 53.8739 86.1347C53.8975 85.5673 53.8578 84.999 53.7555 84.4404C53.5916 83.5795 53.007 83.0263 52.1634 82.8419C51.431 82.7 50.6889 82.6134 49.9434 82.5827C49.5966 82.5606 49.4349 82.4889 49.4582 82.1127C49.4867 81.6702 49.4645 81.2245 49.4645 80.8483H59.4018C60.4642 85.532 62.6388 89.8595 64.5692 94.2703C66.8833 99.5599 69.3084 104.801 71.7283 110.157C71.9397 109.667 72.1215 109.248 72.3055 108.831C75.6408 101.291 78.9984 93.7635 82.2946 86.2032C82.9448 84.7112 83.3655 83.119 83.8729 81.5669C83.9512 81.3288 83.9247 81.058 83.9448 80.8177H94.1506C94.1506 81.3003 94.1707 81.8451 94.1306 82.3856C94.1242 82.4784 93.8684 82.608 93.7161 82.6259C93.1125 82.6954 92.493 82.6691 91.901 82.7871C90.551 83.0569 89.7761 83.8345 89.7169 85.1874C89.6376 87.0283 89.6419 88.8754 89.7359 90.7183C90.0478 96.7845 90.4062 102.847 90.7698 108.91C90.8988 111.062 91.087 113.211 91.2678 115.36C91.3851 116.789 92.2509 117.613 93.6992 117.709C94.1337 117.737 94.5703 117.747 94.9995 117.814C95.1338 117.834 95.3399 118.003 95.3495 118.117C95.3875 118.611 95.3653 119.109 95.3653 119.671C95.1042 119.671 94.8663 119.685 94.6253 119.671C90.2602 119.391 85.8816 119.391 81.5165 119.671C81.1814 119.692 81.0376 119.605 81.0556 119.249C81.081 118.756 81.0619 118.262 81.0619 117.833C82.081 117.757 82.987 117.755 83.8698 117.61C85.1923 117.393 85.8456 116.661 85.9228 115.322C85.9721 114.304 85.97 113.284 85.9164 112.266C85.7705 108.888 85.5845 105.511 85.4396 102.132C85.262 98.012 85.114 93.891 84.9481 89.771C84.9174 89.0082 84.8656 88.2453 84.8223 87.4824L84.7017 87.5087Z" fill="#082755"/>
<path d="M149.377 119.661C144.473 119.379 139.557 119.401 134.656 119.725C134.656 119.122 134.634 118.609 134.677 118.101C134.685 118.01 134.958 117.9 135.122 117.871C135.832 117.75 136.593 117.774 137.251 117.525C138.488 117.058 138.815 115.907 138.913 114.746C139.085 112.721 139.237 110.688 139.272 108.657C139.341 104.533 139.317 100.408 139.348 96.284C139.374 93.007 139.429 89.7289 139.454 86.4508C139.456 86.003 139.418 85.556 139.341 85.1147C139.09 83.6396 138.216 82.8503 136.709 82.7007C136.362 82.6659 136.014 82.6301 135.666 82.6291C135.368 82.6291 135.219 82.5532 135.243 82.2181C135.27 81.7555 135.25 81.2898 135.25 80.7429C135.393 80.7429 135.556 80.7335 135.719 80.7429C140.138 81.059 144.557 80.9979 148.977 80.7429C151.962 80.5722 154.828 81.0453 157.555 82.3119C161.297 84.0494 163.675 87.8617 163.369 91.7952C163.114 95.087 161.473 97.6169 158.838 99.5494C158.136 100.059 157.4 100.519 156.634 100.927C156.219 101.15 156.222 101.315 156.46 101.664C158.195 104.227 159.896 106.813 161.647 109.365C163.093 111.472 164.579 113.556 166.077 115.63C166.445 116.111 166.862 116.553 167.322 116.949C168.241 117.784 169.331 118.246 170.589 118.235C171.043 118.235 171.293 118.371 171.21 118.867C171.207 118.902 171.207 118.937 171.21 118.972C171.21 119.837 171.21 119.858 170.343 119.885C168.746 119.933 167.143 120.043 165.551 119.965C163.36 119.859 161.495 118.931 160.178 117.176C159.101 115.742 158.163 114.204 157.191 112.694C155.19 109.584 153.2 106.468 151.222 103.345C151.035 103.05 150.831 102.947 150.459 102.964C148.583 103.054 146.704 103.107 144.826 103.153C144.534 103.16 144.371 103.184 144.374 103.532C144.41 106.965 144.427 110.399 144.471 113.832C144.494 114.332 144.564 114.829 144.683 115.315C144.989 116.761 145.766 117.483 147.257 117.695C147.808 117.772 148.364 117.807 148.921 117.801C149.302 117.801 149.404 117.932 149.386 118.282C149.356 118.733 149.377 119.179 149.377 119.661ZM144.408 100.362C144.476 100.387 144.547 100.404 144.619 100.413C147.176 100.453 149.732 100.508 152.288 100.512C152.702 100.496 153.104 100.368 153.451 100.142C156.688 98.0774 158.202 95.147 157.983 91.3126C157.742 87.0978 154.841 84.0705 150.598 83.6206C148.74 83.4246 146.918 83.6206 145.084 83.824C144.629 83.8735 144.509 84.0347 144.507 84.4657C144.49 87.1747 144.435 89.8827 144.418 92.5918C144.388 95.1776 144.401 97.7623 144.401 100.362H144.408Z" fill="#082755"/>
<path d="M99.5654 119.581C99.5431 119.515 99.5275 119.446 99.5189 119.377C99.5284 118.895 99.3762 118.295 99.6109 117.971C99.7821 117.735 100.464 117.855 100.92 117.831C102.313 117.756 103.351 117.011 103.593 115.654C103.875 114.165 104.041 112.656 104.088 111.141C104.185 106.553 104.185 101.963 104.231 97.3735C104.267 93.7677 104.321 90.163 104.352 86.5573C104.357 86.075 104.318 85.5932 104.236 85.1179C103.976 83.6427 103.097 82.8545 101.593 82.706C101.23 82.6623 100.865 82.637 100.499 82.6301C100.193 82.6301 100.114 82.5016 100.126 82.2202C100.145 81.7566 100.131 81.2919 100.131 80.745C100.274 80.745 100.438 80.7345 100.599 80.745C104.966 81.0611 109.331 80.9389 113.701 80.7682C116.597 80.6555 119.478 80.8515 122.181 82.079C124.969 83.3435 126.864 85.3518 127.386 88.416C127.922 91.5771 127.038 94.3167 124.581 96.4367C123.524 97.3482 122.305 98.0721 121.158 98.8803C121.024 98.974 120.883 99.0605 120.618 99.2343C120.993 99.3397 121.227 99.4177 121.463 99.4703C123.155 99.8402 124.774 100.394 126.25 101.313C129.365 103.249 130.519 106.142 130.173 109.637C129.75 113.898 127.229 116.616 123.346 118.21C120.212 119.498 116.92 119.828 113.57 119.652C109.098 119.416 104.627 119.32 100.154 119.581C99.9714 119.595 99.7832 119.581 99.5654 119.581ZM109.21 108.431H109.245C109.245 110.864 109.245 113.297 109.245 115.73C109.245 115.989 109.3 116.126 109.585 116.199C112.486 116.936 115.424 117.206 118.377 116.654C121.231 116.121 123.391 114.627 124.368 111.8C125.018 109.925 125.024 107.998 124.497 106.092C124.016 104.347 122.949 103.031 121.342 102.152C119.933 101.381 118.411 100.993 116.822 100.828C114.426 100.573 112.027 100.593 109.624 100.707C109.243 100.725 109.21 100.888 109.211 101.184C109.213 103.599 109.21 106.015 109.21 108.431ZM109.245 98.3155C112.183 98.2512 115.051 98.1964 117.913 98.1111C118.165 98.1037 118.442 97.9341 118.653 97.7718C121.126 95.8751 122.438 93.4516 122.219 90.2684C122 87.0852 120.098 84.6638 116.962 83.8408C114.67 83.2413 112.374 83.5036 110.073 83.8008C109.512 83.8724 109.38 84.0884 109.377 84.6195C109.349 88.7416 109.289 92.8636 109.242 96.9857C109.241 97.3777 109.245 97.7718 109.245 98.3102V98.3155Z" fill="#082755"/>
<path d="M34.7658 80.7313C35.6443 80.7724 36.4572 80.8009 37.2712 80.8494C40.4755 81.0411 43.6776 80.9484 46.8766 80.744C47.3375 80.7145 47.5172 80.7946 47.5056 81.3098C47.475 82.6154 47.5056 82.6154 46.1937 82.6954C44.3436 82.8071 43.4028 83.6659 43.3288 85.5109C43.1818 89.1293 43.0951 92.7509 43.0116 96.3725C42.926 99.9761 42.9641 103.586 42.7706 107.183C42.6321 109.76 42.0253 112.271 40.5453 114.475C38.7005 117.223 36.0471 118.848 32.8967 119.702C28.1511 120.99 23.4827 120.811 19.0247 118.611C15.0223 116.635 12.7166 113.374 11.9713 109.012C11.4702 106.082 11.596 103.131 11.6066 100.183C11.6235 95.6612 11.6531 91.1408 11.6415 86.6194C11.6247 85.9304 11.5217 85.2462 11.3349 84.5826C11.0304 83.4077 10.172 82.8293 8.99117 82.6975C8.5757 82.6522 8.15284 82.6617 7.74372 82.5869C7.60523 82.5616 7.40437 82.3646 7.39168 82.2308C7.25637 80.7261 7.26377 80.7313 8.78608 80.8125C12.8383 81.0287 16.8996 81.0114 20.9498 80.7608C21.1221 80.7503 21.2944 80.7608 21.5323 80.7608C21.5323 81.2993 21.5502 81.8282 21.5164 82.353C21.5101 82.4425 21.2923 82.5743 21.1601 82.5901C20.8514 82.628 20.5343 82.5901 20.2214 82.6101C18.6769 82.6923 17.6493 83.4657 17.3174 84.9619C17.0856 85.9699 16.9619 86.9995 16.9484 88.0335C16.9315 93.4695 16.9336 98.9056 17.0087 104.341C17.0351 106.23 17.1376 108.134 17.8142 109.948C19.2942 113.906 22.2469 116.006 26.3867 116.547C28.2611 116.792 30.146 116.731 31.9897 116.254C35.9931 115.217 38.3992 112.671 39.1329 108.633C39.5981 106.076 39.5843 103.479 39.5558 100.892C39.5114 96.6643 39.4257 92.4369 39.3243 88.2105C39.3013 87.1421 39.2056 86.0764 39.0378 85.021C38.8158 83.6564 37.9225 82.8725 36.5386 82.7028C36.0735 82.6449 35.5988 82.6638 35.1347 82.5974C35.0015 82.5795 34.7954 82.4109 34.7869 82.2992C34.7436 81.8093 34.7658 81.3098 34.7658 80.7313Z" fill="#082755"/>
<path d="M184.54 84.0084C184.434 88.731 184.328 93.3673 184.228 98.0942H185.35C187.944 98.1069 190.539 98.1427 193.134 98.1227C194.159 98.1108 195.183 98.0372 196.199 97.9024C197.933 97.6791 198.688 96.9288 198.976 95.1839C199.043 94.7835 199.181 94.7024 199.553 94.7624C199.908 94.8246 200.275 94.8193 200.716 94.8499C200.7 95.166 200.699 95.4705 200.667 95.7687C200.361 98.6242 200.256 101.483 200.577 104.343C200.636 104.87 200.479 105.042 199.943 105.05C198.886 105.064 198.886 105.091 198.732 104.095C198.436 102.21 197.712 101.461 195.795 101.145C195.076 101.02 194.348 100.949 193.618 100.934C190.693 100.896 187.766 100.894 184.843 100.878H184.235V101.567C184.24 106.242 184.244 110.918 184.249 115.595C184.249 116.386 184.267 116.426 185.09 116.447C188.155 116.52 191.221 116.602 194.278 116.602C195.478 116.589 196.675 116.477 197.856 116.267C200.464 115.833 202.177 114.265 203.197 111.898C203.381 111.47 203.509 111.019 203.704 110.597C203.759 110.478 203.99 110.329 204.091 110.358C204.637 110.517 205.165 110.728 205.737 110.935C205.565 111.515 205.4 112.057 205.242 112.599C204.608 114.782 203.963 116.961 203.362 119.151C203.247 119.573 203.092 119.696 202.666 119.678C199.517 119.567 196.367 119.434 193.216 119.393C189.91 119.349 186.601 119.369 183.296 119.419C180.528 119.46 177.76 119.57 174.995 119.681C174.449 119.703 174.313 119.539 174.334 119.02C174.376 117.971 174.348 117.966 175.379 117.939C177.323 117.88 178.357 116.955 178.609 114.787C178.828 112.885 178.95 110.974 178.974 109.06C179.08 101.969 179.129 94.8773 179.185 87.7859C179.21 86.9072 179.163 86.028 179.046 85.1569C178.806 83.6027 177.83 82.7977 176.233 82.6902C175.82 82.6617 175.281 82.7555 175.037 82.5353C174.826 82.3519 175.013 81.784 174.938 81.4026C174.832 80.8378 175.124 80.8241 175.546 80.8336C180.507 80.9389 185.468 81.1107 190.429 81.1233C194.258 81.1328 198.088 80.9526 201.916 80.8325C202.423 80.8167 202.597 80.9189 202.622 81.4647C202.727 83.8946 202.889 86.3212 203.051 88.7479C203.077 89.1399 202.945 89.2747 202.57 89.2895C202.171 89.3011 201.704 89.4908 201.407 89.339C201.195 89.2337 201.195 88.6847 201.132 88.3296C200.65 85.7491 199.353 84.4657 196.678 84.1738C194.918 83.981 193.138 83.9367 191.365 83.9072C189.347 83.8735 187.326 83.9283 185.305 83.9493C185.048 83.9546 184.792 83.9883 184.54 84.0084Z" fill="#082755"/>
<path d="M310.664 117.844V119.563H296.508V117.822C297.037 117.794 297.546 117.771 298.059 117.739C298.337 117.731 298.615 117.707 298.89 117.665C300.066 117.443 300.62 116.804 300.465 115.63C300.322 114.625 300.093 113.634 299.779 112.668C299.022 110.27 298.198 107.892 297.413 105.503C297.316 105.208 297.201 105.056 296.842 105.055C292.577 105.047 288.311 105.024 284.044 104.986C283.445 104.981 283.114 105.128 282.907 105.734C281.98 108.437 280.99 111.12 280.052 113.822C279.89 114.287 279.867 114.804 279.816 115.297C279.676 116.685 280.383 117.549 281.786 117.695C282.357 117.754 282.935 117.745 283.505 117.807C283.638 117.822 283.853 117.991 283.861 118.102C283.9 118.596 283.878 119.096 283.878 119.56H270.653C270.653 119.107 270.63 118.579 270.672 118.056C270.68 117.95 270.914 117.796 271.064 117.766C271.54 117.67 272.035 117.66 272.505 117.549C273.985 117.203 274.986 116.284 275.598 114.926C276.33 113.308 277.101 111.704 277.763 110.058C281.332 101.2 284.885 92.3347 288.422 83.4625C288.729 82.6944 289.006 81.9136 289.347 81.1602C289.43 80.9737 289.701 80.7566 289.891 80.7514C291.179 80.7155 292.467 80.745 293.756 80.724C294.113 80.724 294.185 80.9221 294.271 81.1792C295.565 85.0347 296.816 88.906 298.17 92.7414C300.126 98.2828 302.142 103.805 304.163 109.322C304.827 111.134 305.586 112.911 306.307 114.696C306.422 114.984 306.577 115.256 306.695 115.539C307.349 117.139 308.538 117.902 310.283 117.806C310.39 117.813 310.493 117.832 310.664 117.844ZM284.383 102.192H296.308C294.436 96.6907 292.598 91.2831 290.719 85.7638C288.591 91.282 286.513 96.6728 284.383 102.192Z" fill="#082755"/>
<path d="M238.872 82.6101V80.7577C239.12 80.7577 239.387 80.7577 239.654 80.7577C242.614 80.8272 245.569 80.9284 248.527 80.9558C249.759 80.9674 250.994 80.8399 252.227 80.745C252.625 80.7134 252.766 80.822 252.73 81.2171C252.691 81.6449 252.851 82.2076 252.632 82.4689C252.43 82.7081 251.839 82.6385 251.418 82.6796C249.727 82.8409 248.806 83.57 248.54 85.2233C248.312 86.6356 248.193 88.0634 248.185 89.4939C248.162 98.2944 248.185 107.091 248.185 115.896C248.185 116.26 248.291 116.364 248.657 116.369C251.024 116.392 253.392 116.503 255.757 116.452C257.473 116.415 259.191 116.218 260.899 116.009C262.967 115.756 264.459 114.6 265.444 112.822C265.852 112.063 266.202 111.275 266.491 110.464C266.645 110.048 266.819 109.956 267.212 110.119C267.516 110.247 267.831 110.347 268.154 110.417C268.488 110.49 268.567 110.628 268.471 110.959C267.643 113.786 266.83 116.616 266.011 119.445C265.992 119.51 265.957 119.571 265.905 119.7C256.742 119.384 247.557 119.248 238.283 119.714C238.283 119.171 238.263 118.711 238.298 118.255C238.306 118.158 238.519 117.991 238.627 117.999C240.319 118.113 241.236 117.166 241.816 115.76C242.409 114.337 242.727 112.815 242.754 111.275C242.859 103.618 242.927 95.9584 242.96 88.2959C242.947 87.2097 242.816 86.1281 242.567 85.0705C242.23 83.5331 241.319 82.8324 239.751 82.6954C239.476 82.6712 239.203 82.6417 238.872 82.6101Z" fill="#082755"/>
<path d="M159 0L165.716 13.5632H152.284L159 0Z" fill="#35B518"/>
<path d="M318 51.1666C198.904 -2.62219e-06 116.005 0.74707 0 51.5386C106.048 8.9712 212.048 8.84721 318 51.1666Z" fill="#C80919"/>
</g>
<defs>
<clipPath id="clip0_386_330">
<rect width="318" height="164" fill="white"/>
</clipPath>
</defs>
</svg>
