<svg width="76" height="40" viewBox="0 0 76 40" fill="none" xmlns="http://www.w3.org/2000/svg">
<path d="M53.3682 29.2734C52.855 28.7601 52.5404 28.2066 52.2921 27.6105C51.8569 26.5721 51.7505 25.4769 51.7103 24.3651C51.6819 23.5845 51.6299 22.8063 51.5518 22.0281C51.5258 21.7679 51.4123 21.5053 51.2917 21.2688C51.0741 20.8477 51.1025 20.4125 51.1569 19.9749C51.2751 19.0476 51.0576 18.1937 50.6224 17.3847C50.2132 16.6207 49.6385 15.9797 49.0567 15.3457C48.9739 15.2535 48.8912 15.1612 48.8084 15.069C48.7989 15.0595 48.8013 15.0406 48.7847 14.9791C48.9124 15.0264 49.0212 15.0501 49.1135 15.1045C50.199 15.7668 51.1593 16.5758 51.9894 17.5409C52.5452 18.1866 52.8148 18.2197 53.5007 17.723C54.9954 16.6444 56.6438 15.8425 58.2947 15.0453C58.3703 15.0075 58.465 15.0098 58.5501 14.9933C58.5596 15.0122 58.5714 15.0311 58.5808 15.0524C58.5099 15.1139 58.4437 15.1825 58.368 15.2369C57.0625 16.2091 55.7972 17.2286 54.721 18.461C54.4301 18.7922 54.1463 19.1328 53.8956 19.4947C53.3564 20.2682 53.2642 21.1032 53.6142 21.9855C53.95 22.837 54.021 23.7241 53.8554 24.6111C53.5882 26.0469 53.4486 27.4898 53.4155 28.9469C53.4132 29.0345 53.3895 29.1243 53.3682 29.2734Z" fill="#C80919"/>
<path d="M53.5953 16.247C53.5953 16.7626 53.1814 17.1789 52.6705 17.1789C52.1668 17.1766 51.7505 16.7508 51.7553 16.2375C51.76 15.7337 52.1668 15.3268 52.6705 15.3244C53.1885 15.3197 53.5953 15.7266 53.5953 16.247Z" fill="#C80919"/>
<path d="M52.9733 13.6143C52.8645 13.8934 52.7249 13.8177 52.5736 13.6947C52.233 13.4156 52.1502 13.0371 52.2519 12.6468C52.434 11.9443 52.9213 11.4404 53.4558 10.9839C53.4652 10.9768 53.4841 10.9792 53.5527 10.9721C53.6686 11.2252 53.8011 11.4925 53.9122 11.7669C54.073 12.1643 54.1653 12.5782 54.1132 13.0111C54.0659 13.4037 53.8625 13.6852 53.4865 13.8295C53.1885 13.943 53.1412 13.9241 52.9733 13.6143Z" fill="#35B518"/>
<path d="M47.5951 13.4463C47.64 13.4913 47.6826 13.5386 47.7275 13.5811C47.86 13.7089 47.8411 13.813 47.6684 13.8957C47.3799 14.0353 46.9542 13.9478 46.7011 13.6923C46.2849 13.2784 46.1193 12.7414 45.9774 12.195C45.9514 12.0957 45.9963 12.0436 46.1004 12.046C46.6467 12.0578 47.1859 12.1264 47.666 12.4008C47.9806 12.5806 48.1462 12.8668 48.1154 13.2429C48.0941 13.5102 48.0255 13.5504 47.7843 13.4439C47.7346 13.4227 47.6779 13.4085 47.6258 13.3895C47.6164 13.4108 47.6046 13.4274 47.5951 13.4463Z" fill="#35B518"/>
<path d="M50.4639 13.4629C50.4687 13.5244 50.4545 13.5953 50.4805 13.6474C50.5278 13.742 50.5988 13.8295 50.6626 13.9147C50.7809 14.0755 50.7359 14.2032 50.5325 14.2316C50.0832 14.2955 49.7024 14.1749 49.4399 13.7846C49.1939 13.4179 49.0827 12.9992 49.026 12.5664C49 12.3606 48.9905 12.1501 48.9787 11.9419C48.9716 11.8213 49.026 11.7337 49.156 11.7669C49.7804 11.9253 50.3977 12.1028 50.8826 12.5616C51.2208 12.881 51.3201 13.3351 51.1427 13.7018C51.0339 13.9241 50.9535 13.9383 50.7927 13.7562C50.7028 13.6545 50.6153 13.548 50.5278 13.4439C50.5065 13.451 50.4852 13.4581 50.4639 13.4629Z" fill="#35B518"/>
<path d="M56.1283 14.0164C56.0195 14.0897 55.9036 14.1583 55.7995 14.2387C55.6269 14.3735 55.4944 14.3381 55.44 14.1346C55.3289 13.7112 55.485 13.2902 55.8445 13.0253C56.3766 12.635 56.9962 12.5167 57.6325 12.4528C57.7531 12.441 57.8429 12.4812 57.8146 12.6184C57.6987 13.2098 57.6041 13.8082 57.2138 14.3026C56.8709 14.7378 56.4617 14.8939 56.0431 14.7426C55.7641 14.6408 55.7475 14.5533 55.9603 14.3452C56.0431 14.2647 56.1093 14.1701 56.185 14.0802C56.1661 14.0589 56.1472 14.0377 56.1283 14.0164Z" fill="#35B518"/>
<path d="M60.0992 9.98806C60.1016 10.402 60.0401 10.8018 59.8438 11.1731C59.6782 11.4901 59.4417 11.7101 59.0586 11.6746C58.7275 11.6462 58.4673 11.4806 58.3514 11.1589C58.2237 10.8065 58.3089 10.4943 58.5832 10.2317C58.964 9.86742 59.4441 9.69711 59.9313 9.541C59.9715 9.52917 60.0779 9.60959 60.0921 9.664C60.1181 9.76808 60.0992 9.88162 60.0992 9.98806Z" fill="#35B518"/>
<path d="M48.9219 10.499C48.8722 10.8822 48.5648 11.0785 48.2786 11.1873C48.0066 11.2914 47.7086 11.114 47.5076 10.8775C47.1694 10.4801 47.1055 9.98332 47.063 9.49131C47.0228 9.02533 47.044 9.00167 47.4816 9.17198C47.8434 9.31391 48.2029 9.47949 48.534 9.68291C48.8202 9.85795 48.9621 10.1465 48.9219 10.499Z" fill="#35B518"/>
<path d="M56.6982 10.3429C56.6699 10.5794 56.6486 10.816 56.606 11.0525C56.5894 11.1495 56.5421 11.2441 56.4901 11.3293C56.2607 11.7101 55.8042 11.852 55.466 11.6557C55.0072 11.3884 54.8748 10.9792 55.116 10.5416C55.3312 10.1465 55.686 9.89817 56.0715 9.69001C56.5989 9.40616 56.5965 9.29499 56.6604 10.0188C56.6699 10.1276 56.6722 10.2341 56.6793 10.3429C56.6864 10.3405 56.6935 10.3429 56.6982 10.3429Z" fill="#35B518"/>
<path d="M53.5622 9.71839C53.2381 9.96913 53.0797 9.93364 52.9378 9.53152C52.8763 9.35412 52.8692 9.1294 52.9212 8.94726C53.0773 8.40558 53.477 8.02948 53.8885 7.6723C53.9879 7.58714 54.0754 7.6108 54.1274 7.73143C54.3355 8.19979 54.5011 8.68234 54.468 9.2051C54.4467 9.54572 54.293 9.81064 53.976 9.96203C53.7348 10.0756 53.6851 10.0519 53.6095 9.79172C53.6024 9.76807 53.5787 9.74441 53.5622 9.71839Z" fill="#35B518"/>
<path d="M48.132 15.8898C48.1296 15.9276 48.1343 16.0294 48.1154 16.1263C48.0918 16.2588 48.0421 16.3487 47.8789 16.2517C47.8387 16.2257 47.7607 16.2612 47.6992 16.2683C47.7275 16.3156 47.7417 16.3818 47.7843 16.4078C47.938 16.5001 47.8813 16.571 47.7725 16.642C47.4556 16.8502 47.0559 16.7934 46.7318 16.4977C46.4291 16.2186 46.2494 15.8591 46.1004 15.4853C45.8899 14.9555 45.8923 14.9578 46.4599 14.9744C46.8572 14.9862 47.2451 15.0335 47.6069 15.2157C47.8624 15.3458 48.0658 15.5232 48.132 15.8898Z" fill="#35B518"/>
<path d="M60.7898 12.9614C60.9436 12.9803 61.128 12.985 61.3031 13.03C61.3598 13.0442 61.445 13.1861 61.4284 13.2216C61.1446 13.7822 60.849 14.3357 60.2908 14.6834C59.9408 14.901 59.5836 14.9554 59.21 14.7473C59.1792 14.7307 59.1272 14.7213 59.1177 14.6953C58.9971 14.4185 58.8126 14.1441 58.7843 13.8579C58.7582 13.5693 58.9616 13.3138 59.2336 13.1601C59.7161 12.8857 60.234 12.8644 60.7898 12.9614Z" fill="#35B518"/>
<path d="M51.2042 10.8562C51.2113 10.9508 51.216 11.0454 51.2231 11.14C51.2373 11.3505 51.1427 11.4286 50.9488 11.3434C50.665 11.2157 50.4639 11.0005 50.4214 10.6835C50.3457 10.0992 50.5467 9.56937 50.7998 9.05844C50.8211 9.01823 50.9653 8.98511 50.9961 9.01113C51.4076 9.36831 51.7931 9.75388 51.9468 10.2979C52.0391 10.6267 51.987 10.9295 51.7198 11.1684C51.6607 11.2204 51.5779 11.2488 51.5046 11.289C51.4667 11.2181 51.4265 11.1471 51.3934 11.0762C51.3556 10.9981 51.3248 10.9153 51.2917 10.8372C51.2633 10.8396 51.2349 10.8491 51.2042 10.8562Z" fill="#35B518"/>
<path d="M12.8404 39.4495C13.006 39.44 13.1384 39.4187 13.2378 39.3809C13.3371 39.343 13.427 39.2839 13.5074 39.2011C13.5949 39.1112 13.6564 38.9953 13.6895 38.8534C13.7226 38.7115 13.7391 38.4962 13.7391 38.2076V35.0616C13.7391 34.7494 13.7202 34.5199 13.6824 34.3756C13.6445 34.2313 13.5689 34.1107 13.4577 34.0161C13.3182 33.9002 13.1124 33.8339 12.8428 33.8197V33.7204H15.1889C15.7093 33.7204 16.0404 33.7251 16.1823 33.737C16.783 33.7819 17.2915 33.9522 17.7101 34.2503C18.1074 34.5317 18.4196 34.9007 18.6396 35.3573C18.8619 35.8138 18.973 36.3105 18.973 36.8499C18.973 37.2425 18.9092 37.6139 18.7838 37.9616C18.6561 38.3093 18.4811 38.6003 18.2564 38.8297C17.9395 39.1538 17.5469 39.3596 17.0739 39.4495C16.7215 39.5157 16.362 39.5488 15.9954 39.5488H12.8428V39.4495H12.8404ZM14.671 33.8552V38.0964C14.671 38.3756 14.6875 38.5861 14.7183 38.7327C14.749 38.877 14.8082 39.0024 14.8933 39.1041C15.0754 39.3265 15.371 39.4376 15.7802 39.4376C16.1302 39.4376 16.4306 39.3809 16.6789 39.265C16.9273 39.1491 17.1496 38.9622 17.3459 38.7044C17.5398 38.4536 17.6865 38.1674 17.7882 37.8433C17.8899 37.5193 17.9395 37.1763 17.9395 36.812C17.9395 36.4075 17.878 36.0243 17.755 35.6601C17.6321 35.2958 17.457 34.9764 17.23 34.7044C16.9154 34.3259 16.537 34.0752 16.0995 33.9522C15.8606 33.886 15.5555 33.8529 15.1866 33.8529H14.671V33.8552Z" fill="#C80919" stroke="#C80919" stroke-width="0.5" stroke-miterlimit="10"/>
<path d="M21.1844 37.2259C21.1726 37.3655 21.1678 37.4672 21.1678 37.5287C21.1678 37.7771 21.2033 38.0184 21.2766 38.2549C21.35 38.4914 21.4469 38.6878 21.5723 38.8439C21.7 39.0024 21.8584 39.1277 22.0453 39.22C22.2345 39.3122 22.4308 39.3572 22.6389 39.3572C22.7926 39.3572 22.9369 39.3312 23.0741 39.2815C23.2113 39.2295 23.3248 39.1585 23.417 39.0686C23.5187 38.9693 23.6062 38.8108 23.6795 38.5908L23.7694 38.6215C23.6961 38.9551 23.5376 39.2058 23.294 39.3737C23.0504 39.5441 22.7264 39.6268 22.3244 39.6268C21.9743 39.6268 21.674 39.5724 21.4233 39.4613C21.1726 39.3501 20.9621 39.1798 20.7871 38.948C20.5458 38.6263 20.4252 38.2312 20.4252 37.7605C20.4252 37.1195 20.6546 36.618 21.1111 36.2538C21.4446 35.9888 21.823 35.8564 22.251 35.8564C22.4781 35.8564 22.6886 35.8966 22.8825 35.977C23.0764 36.0574 23.2396 36.1757 23.3744 36.3294C23.5826 36.5683 23.6866 36.8664 23.6866 37.2259H21.1844ZM23.0433 37.0604C23.0244 36.7765 22.97 36.5565 22.8872 36.4028C22.8116 36.2632 22.7099 36.152 22.5821 36.0716C22.4544 35.9912 22.3196 35.951 22.1754 35.951C21.9318 35.951 21.7189 36.0574 21.5368 36.2679C21.3547 36.4785 21.2459 36.7434 21.2128 37.0627H23.0433V37.0604Z" fill="#C80919" stroke="#C80919" stroke-width="0.5" stroke-miterlimit="10"/>
<path d="M26.2196 35.8564C26.2598 36.0219 26.2787 36.1757 26.2787 36.32V36.3886C26.6311 36.0338 27.0521 35.8564 27.537 35.8564C27.9012 35.8564 28.1944 35.9415 28.4168 36.1118C28.6367 36.2798 28.7455 36.5187 28.7455 36.8285V38.6357C28.7455 38.8297 28.7573 38.9693 28.7786 39.0591C28.8023 39.149 28.8448 39.2224 28.9111 39.2839C28.9915 39.3596 29.1381 39.4187 29.351 39.4589V39.5488H27.466V39.4589C27.6363 39.4352 27.7593 39.4045 27.8326 39.3619C27.9059 39.3193 27.9674 39.2507 28.0123 39.1514C28.0431 39.0852 28.0667 38.9882 28.0786 38.8557C28.0904 38.7233 28.0975 38.534 28.0975 38.2857V37.3821C28.0975 37.0722 28.088 36.8451 28.0644 36.7008C28.0431 36.5565 28.0029 36.4383 27.9437 36.3507C27.8775 36.2514 27.7853 36.1733 27.6623 36.1189C27.5393 36.0645 27.4045 36.0361 27.2579 36.0361C27.0994 36.0361 26.9504 36.0669 26.8133 36.1307C26.6761 36.1922 26.5673 36.2774 26.4869 36.3862C26.4017 36.4998 26.345 36.6275 26.3189 36.7718C26.2929 36.9161 26.2787 37.1526 26.2787 37.4861V38.3211L26.2835 38.6357C26.2835 38.8297 26.2953 38.9716 26.3166 39.0591C26.3402 39.149 26.3828 39.2224 26.449 39.2839C26.5294 39.3596 26.6761 39.4187 26.8889 39.4589V39.5488H25.004V39.4589C25.1743 39.4352 25.2972 39.4045 25.3706 39.3643C25.4439 39.3241 25.5054 39.2531 25.5503 39.1538C25.581 39.0875 25.6047 38.9905 25.6165 38.8581C25.6284 38.7256 25.6355 38.5364 25.6355 38.288V37.2401C25.6355 36.9492 25.6283 36.7434 25.6142 36.6275C25.6 36.5092 25.5692 36.4146 25.5196 36.3413C25.4722 36.2632 25.4131 36.2041 25.3445 36.1686C25.276 36.1331 25.179 36.1118 25.0513 36.1024V36.0125L26.2196 35.8564Z" fill="#C80919" stroke="#C80919" stroke-width="0.5" stroke-miterlimit="10"/>
<path d="M31.444 35.9202H32.5272V36.0835H31.444V38.5648C31.444 38.8628 31.4961 39.0757 31.5978 39.2058C31.6522 39.2768 31.7231 39.3336 31.8106 39.3714C31.8981 39.4116 31.9927 39.4305 32.0968 39.4305C32.2245 39.4305 32.3309 39.4045 32.4161 39.3525C32.5012 39.3004 32.5958 39.2034 32.6975 39.0639L32.7614 39.1183C32.6668 39.2886 32.5367 39.4163 32.3664 39.4991C32.1961 39.5819 31.9856 39.6221 31.7326 39.6221C31.3967 39.6221 31.1531 39.5559 30.9994 39.4258C30.9166 39.3572 30.8622 39.2768 30.8362 39.1798C30.8102 39.0852 30.7984 38.9125 30.7984 38.6665V36.0811H30.3419V36.0125C30.5264 35.9534 30.6967 35.8375 30.8551 35.6671C30.9498 35.5607 31.0254 35.4566 31.0822 35.3525C31.1389 35.2485 31.1933 35.1136 31.2454 34.948L31.2879 34.8061H31.4464V35.9202H31.444Z" fill="#C80919" stroke="#C80919" stroke-width="0.5" stroke-miterlimit="10"/>
<path d="M37.0446 39.1325L37.1179 39.175C37.0162 39.4731 36.7797 39.6221 36.4131 39.6221C36.2097 39.6221 36.0418 39.5724 35.9093 39.4731C35.8218 39.4069 35.7296 39.2933 35.635 39.1325C35.4434 39.3028 35.2991 39.4163 35.2022 39.4707C35.0177 39.5724 34.8025 39.6245 34.5565 39.6245C34.2419 39.6245 33.9936 39.5488 33.8115 39.3974C33.627 39.246 33.5348 39.0426 33.5348 38.7871C33.5348 38.5506 33.6105 38.3542 33.7618 38.1934C33.847 38.1059 33.9463 38.0349 34.0575 37.9829C34.1686 37.9308 34.3295 37.8764 34.5399 37.822C34.7883 37.7605 34.9704 37.7061 35.0886 37.6635C35.2069 37.621 35.3062 37.5689 35.3843 37.5098C35.4741 37.4436 35.538 37.3679 35.5711 37.2803C35.6042 37.1928 35.6231 37.0698 35.6231 36.9137C35.6231 36.5802 35.5617 36.3365 35.4363 36.1828C35.3796 36.1118 35.3062 36.0551 35.2164 36.0125C35.1265 35.9699 35.0342 35.9486 34.9373 35.9486C34.8214 35.9486 34.7173 35.9794 34.6251 36.0385C34.5328 36.0976 34.4666 36.1804 34.4193 36.2869L34.3129 36.5352C34.2561 36.6701 34.1544 36.7363 34.0054 36.7363C33.9085 36.7363 33.8281 36.7032 33.7618 36.6393C33.6956 36.5754 33.6649 36.495 33.6649 36.398C33.6649 36.2537 33.7666 36.1307 33.9723 36.0314C34.0835 35.9794 34.2207 35.9391 34.3839 35.906C34.547 35.8729 34.7079 35.8564 34.864 35.8564C35.0413 35.8564 35.2235 35.88 35.415 35.925C35.6066 35.9699 35.7651 36.029 35.8928 36.1C36.0772 36.2064 36.1931 36.3413 36.2381 36.5092C36.2617 36.5944 36.2712 36.7387 36.2712 36.9397V38.5198C36.2712 38.7871 36.283 38.9693 36.3043 39.0662C36.3516 39.2673 36.4698 39.369 36.6543 39.369C36.7418 39.369 36.8104 39.3525 36.8624 39.3217C36.9168 39.291 36.976 39.2271 37.0446 39.1325ZM35.6326 37.453C35.4789 37.5807 35.311 37.6943 35.1265 37.7913C34.9184 37.9025 34.7765 37.9852 34.696 38.042C34.6156 38.0988 34.5447 38.1674 34.4785 38.2478C34.346 38.4134 34.2774 38.605 34.2774 38.825C34.2774 39.0118 34.3295 39.168 34.4335 39.291C34.5376 39.414 34.6677 39.4755 34.8261 39.4755C34.9657 39.4755 35.0957 39.4329 35.2187 39.3454C35.3417 39.2578 35.4339 39.1419 35.4978 38.9976C35.5853 38.806 35.6302 38.5317 35.6302 38.1697V37.453H35.6326Z" fill="#C80919" stroke="#C80919" stroke-width="0.5" stroke-miterlimit="10"/>
<path d="M37.9551 33.7038L39.1849 33.5501V38.3093L39.1897 38.6334C39.1897 38.8274 39.2015 38.9693 39.2228 39.0568C39.2464 39.1467 39.289 39.22 39.3552 39.2815C39.4356 39.3572 39.5823 39.4163 39.7951 39.4565V39.5464H37.9102V39.4565C38.0804 39.4329 38.2034 39.4021 38.2767 39.3596C38.3501 39.3194 38.4116 39.2484 38.4565 39.149C38.4872 39.0828 38.5109 38.9858 38.5227 38.8534C38.5345 38.7209 38.5416 38.5293 38.5416 38.2809V34.9362C38.5416 34.6476 38.5345 34.4418 38.5203 34.3236C38.5062 34.2053 38.4754 34.1083 38.4257 34.0326C38.3784 33.9522 38.3193 33.8954 38.2507 33.8623C38.1821 33.8292 38.0852 33.8079 37.9575 33.7985V33.7038H37.9551Z" fill="#C80919" stroke="#C80919" stroke-width="0.5" stroke-miterlimit="10"/>
<path d="M49.1253 33.692L49.1774 35.5985H49.078C49.0473 35.5157 49.0236 35.4542 49.0047 35.4117C48.9054 35.1396 48.825 34.9362 48.7611 34.8014C48.6499 34.5625 48.4891 34.3425 48.2786 34.1438C48.1202 33.9924 47.9546 33.8836 47.7843 33.815C47.614 33.7464 47.4225 33.7133 47.2072 33.7133C46.8856 33.7133 46.6065 33.7819 46.37 33.9214C46.1619 34.0445 45.968 34.2195 45.7906 34.4489C45.6108 34.6784 45.4642 34.9386 45.3507 35.2319C45.1875 35.6435 45.1071 36.1142 45.1071 36.6393C45.1071 37.0864 45.1615 37.4885 45.2726 37.8481C45.3838 38.2076 45.5446 38.5056 45.7598 38.7493C46.1524 39.1987 46.6728 39.4234 47.3208 39.4234C47.6448 39.4234 47.9357 39.3667 48.1958 39.2555C48.4536 39.1419 48.6547 38.9835 48.7966 38.78C48.9621 38.5435 49.0804 38.2242 49.1561 37.8244L49.2554 37.841C49.201 38.2904 49.078 38.6476 48.8888 38.9125C48.7067 39.1656 48.456 39.3596 48.1367 39.492C47.8174 39.6269 47.4461 39.6931 47.0251 39.6931C46.6325 39.6931 46.2565 39.634 45.8994 39.518C45.327 39.3312 44.88 38.9906 44.5584 38.5009C44.2367 38.0113 44.0759 37.4246 44.0759 36.7458C44.0759 36.2254 44.1705 35.7452 44.3573 35.3052C44.5442 34.8653 44.8067 34.5128 45.1425 34.2455C45.4003 34.0397 45.7102 33.8789 46.0696 33.7559C46.4291 33.6352 46.791 33.5737 47.1505 33.5737C47.4958 33.5737 47.86 33.64 48.2431 33.7701L48.5932 33.886C48.6618 33.912 48.7209 33.9238 48.7729 33.9238C48.8439 33.9238 48.903 33.8931 48.9479 33.8339C48.9669 33.8055 48.9929 33.7582 49.0213 33.692H49.1253Z" fill="#C80919" stroke="#C80919" stroke-width="0.5" stroke-miterlimit="10"/>
<path d="M54.0707 39.1325L54.144 39.175C54.0423 39.4731 53.8058 39.6221 53.4392 39.6221C53.2358 39.6221 53.0679 39.5724 52.9355 39.4731C52.8479 39.4069 52.7557 39.2933 52.6611 39.1325C52.4695 39.3028 52.3253 39.4163 52.2283 39.4707C52.0438 39.5724 51.8286 39.6245 51.5826 39.6245C51.2681 39.6245 51.0197 39.5488 50.8376 39.3974C50.6532 39.246 50.5609 39.0426 50.5609 38.7871C50.5609 38.5506 50.6366 38.3542 50.788 38.1934C50.8731 38.1059 50.9724 38.0349 51.0836 37.9829C51.1948 37.9308 51.3556 37.8764 51.5661 37.822C51.8144 37.7605 51.9965 37.7061 52.1148 37.6635C52.233 37.621 52.3324 37.5689 52.4104 37.5098C52.5003 37.4436 52.5641 37.3679 52.5972 37.2803C52.6304 37.1928 52.6493 37.0698 52.6493 36.9137C52.6493 36.5802 52.5878 36.3365 52.4624 36.1828C52.4057 36.1118 52.3324 36.0551 52.2425 36.0125C52.1526 35.9699 52.0604 35.9486 51.9634 35.9486C51.8475 35.9486 51.7435 35.9794 51.6512 36.0385C51.559 36.0976 51.4928 36.1804 51.4455 36.2869L51.339 36.5352C51.2823 36.6701 51.1806 36.7363 51.0316 36.7363C50.9346 36.7363 50.8542 36.7032 50.788 36.6393C50.7217 36.5754 50.691 36.495 50.691 36.398C50.691 36.2537 50.7927 36.1307 50.9985 36.0314C51.1096 35.9794 51.2468 35.9391 51.41 35.906C51.5732 35.8729 51.734 35.8564 51.8901 35.8564C52.0675 35.8564 52.2496 35.88 52.4411 35.925C52.6327 35.9699 52.7912 36.029 52.9189 36.1C53.1034 36.2064 53.2193 36.3413 53.2642 36.5092C53.2879 36.5944 53.2973 36.7387 53.2973 36.9397V38.5198C53.2973 38.7871 53.3091 38.9693 53.3304 39.0662C53.3777 39.2673 53.496 39.369 53.6804 39.369C53.7679 39.369 53.8365 39.3525 53.8886 39.3217C53.9453 39.291 54.0021 39.2271 54.0707 39.1325ZM52.6587 37.453C52.505 37.5807 52.3371 37.6943 52.1526 37.7913C51.9445 37.9025 51.8026 37.9852 51.7222 38.042C51.6418 38.0988 51.5708 38.1674 51.5046 38.2478C51.3721 38.4134 51.3035 38.605 51.3035 38.825C51.3035 39.0118 51.3556 39.168 51.4597 39.291C51.5637 39.414 51.6938 39.4755 51.8522 39.4755C51.9918 39.4755 52.1219 39.4329 52.2448 39.3454C52.3678 39.2578 52.4601 39.1419 52.5239 38.9976C52.6114 38.806 52.6564 38.5317 52.6564 38.1697V37.453H52.6587Z" fill="#C80919" stroke="#C80919" stroke-width="0.5" stroke-miterlimit="10"/>
<path d="M56.1543 36.5116C56.256 36.3318 56.3719 36.197 56.4996 36.1071C56.7361 35.9391 57.0034 35.8564 57.3061 35.8564C57.4906 35.8564 57.6325 35.8966 57.7294 35.9794C57.8169 36.0527 57.8619 36.1449 57.8619 36.2514C57.8619 36.3318 57.8359 36.3957 57.7838 36.4477C57.7318 36.4997 57.6632 36.5234 57.5804 36.5234C57.4835 36.5234 57.4007 36.4832 57.3297 36.4051L57.1973 36.2608C57.0909 36.1497 56.9679 36.0953 56.826 36.0953C56.632 36.0953 56.4807 36.2206 56.3742 36.4714C56.2655 36.7221 56.2111 37.0698 56.2111 37.5145V38.3117L56.2158 38.6357C56.2158 38.8297 56.2276 38.9693 56.2489 39.0591C56.2726 39.149 56.3151 39.2224 56.3813 39.2839C56.4618 39.3596 56.6084 39.4187 56.8212 39.4589V39.5488H54.9363V39.4589C55.1066 39.4352 55.2296 39.4045 55.3029 39.3643C55.3762 39.3241 55.4377 39.2531 55.4826 39.1538C55.5134 39.0875 55.537 38.9905 55.5488 38.8581C55.5607 38.7256 55.5678 38.5364 55.5678 38.288V37.2401C55.5678 36.9492 55.5607 36.7434 55.5465 36.6275C55.5323 36.5092 55.5015 36.4146 55.4519 36.3413C55.4046 36.2632 55.3454 36.2041 55.2768 36.1686C55.2083 36.1331 55.1113 36.1118 54.9836 36.1024V36.0125L56.0833 35.8587C56.1306 36.1118 56.1543 36.3294 56.1543 36.5116Z" fill="#C80919" stroke="#C80919" stroke-width="0.5" stroke-miterlimit="10"/>
<path d="M59.6641 37.2259C59.6522 37.3655 59.6475 37.4672 59.6475 37.5287C59.6475 37.7771 59.683 38.0184 59.7563 38.2549C59.8296 38.4914 59.9266 38.6878 60.0519 38.8439C60.1796 39.0024 60.3381 39.1277 60.5249 39.22C60.7141 39.3122 60.9105 39.3572 61.1186 39.3572C61.2723 39.3572 61.4166 39.3312 61.5538 39.2815C61.6909 39.2295 61.8045 39.1585 61.8967 39.0686C61.9984 38.9693 62.0859 38.8108 62.1616 38.5908L62.2515 38.6215C62.1781 38.9551 62.0197 39.2058 61.7761 39.3737C61.5325 39.5441 61.2084 39.6268 60.804 39.6268C60.454 39.6268 60.1536 39.5724 59.9029 39.4613C59.6522 39.3501 59.4417 39.1798 59.2667 38.948C59.0255 38.6263 58.9049 38.2312 58.9049 37.7605C58.9049 37.1195 59.1343 36.618 59.5908 36.2538C59.9242 35.9888 60.3026 35.8564 60.7307 35.8564C60.9577 35.8564 61.1683 35.8966 61.3622 35.977C61.5561 36.0574 61.7193 36.1757 61.8541 36.3294C62.0622 36.5683 62.1663 36.8664 62.1663 37.2259H59.6641ZM61.5254 37.0604C61.5065 36.7765 61.4521 36.5565 61.3693 36.4028C61.2936 36.2632 61.1919 36.152 61.0642 36.0716C60.9365 35.9912 60.8017 35.951 60.6574 35.951C60.4138 35.951 60.2009 36.0574 60.0188 36.2679C59.8367 36.4785 59.7279 36.7434 59.6948 37.0627H61.5254V37.0604Z" fill="#C80919" stroke="#C80919" stroke-width="0.5" stroke-miterlimit="10"/>
<path d="M1.28705 31.8399C24.8077 31.0025 51.1924 30.9954 74.713 31.8399C51.1924 32.6843 24.8077 32.6772 1.28705 31.8399Z" fill="#35B518"/>
<path d="M20.4512 21.6023C19.6542 23.4332 18.8572 25.264 18.0578 27.0925C17.9182 27.4118 17.7645 27.7217 17.6392 28.0457C17.5233 28.3462 17.4334 28.656 17.3412 28.9635C17.3175 29.0392 17.2915 29.0723 17.2111 29.0747C16.9154 29.0842 16.9343 29.0794 16.8279 28.8027C16.6458 28.332 16.4448 27.866 16.2414 27.4023C15.4704 25.6519 14.6946 23.9062 13.9189 22.1582C13.8881 22.0872 13.8598 22.0163 13.8006 21.95C13.7888 22.1274 13.7746 22.3049 13.7652 22.4823C13.7084 23.3929 13.6398 24.3013 13.5996 25.212C13.557 26.1723 13.5405 27.1327 13.5168 28.0931C13.5145 28.1735 13.531 28.2563 13.5499 28.3343C13.6114 28.5945 13.7817 28.7317 14.0726 28.7554C14.2122 28.7672 14.3517 28.7743 14.4912 28.779C14.5598 28.7814 14.5882 28.8074 14.5858 28.876C14.5835 28.9612 14.5882 29.0487 14.5906 29.1338C14.5929 29.1953 14.5669 29.219 14.5007 29.2143C13.5854 29.1599 12.6678 29.1528 11.7525 29.219C11.6886 29.2237 11.6224 29.219 11.5515 29.219C11.5515 29.0747 11.5515 28.9328 11.5515 28.7648C11.6886 28.7648 11.8187 28.7719 11.9488 28.7625C12.3745 28.7364 12.5992 28.5425 12.6512 28.1191C12.7151 27.6081 12.76 27.0948 12.8002 26.5815C12.8593 25.853 12.909 25.1221 12.9634 24.3912C13.0178 23.6531 13.0698 22.9151 13.1219 22.1771C13.1431 21.8743 13.1644 21.5739 13.1763 21.2712C13.181 21.1387 13.1739 21.0015 13.1479 20.869C13.11 20.6656 12.9705 20.5331 12.7718 20.4906C12.6016 20.4527 12.4218 20.4409 12.2468 20.4291C12.164 20.4243 12.1262 20.4078 12.1333 20.3179C12.1404 20.2138 12.1356 20.1074 12.1356 20.0199C12.9303 20.0199 13.7131 20.0199 14.4818 20.0199C14.7325 21.1292 15.2457 22.1558 15.7022 23.2014C16.2485 24.455 16.8208 25.6969 17.3932 26.9671C17.4428 26.8512 17.4854 26.7519 17.5304 26.6525C18.3179 24.8666 19.1102 23.0807 19.8883 21.2901C20.042 20.9353 20.1414 20.5592 20.262 20.1902C20.2809 20.1334 20.2738 20.0695 20.2786 20.0128C21.0827 20.0128 21.8821 20.0128 22.6886 20.0128C22.6886 20.1263 22.6933 20.2564 22.6838 20.3841C22.6815 20.4054 22.6223 20.4362 22.5869 20.4409C22.445 20.4575 22.2983 20.4504 22.1588 20.4787C21.8395 20.5426 21.6574 20.7271 21.6432 21.0488C21.6243 21.484 21.6243 21.924 21.6479 22.3593C21.7212 23.7974 21.8064 25.2333 21.8915 26.6714C21.9223 27.1824 21.9672 27.6909 22.0098 28.1995C22.0382 28.5378 22.2416 28.7341 22.5845 28.7554C22.6862 28.7625 22.7903 28.7648 22.892 28.779C22.9227 28.7838 22.9724 28.824 22.9747 28.85C22.9842 28.9683 22.9795 29.0865 22.9795 29.219C22.918 29.219 22.8612 29.2214 22.8045 29.219C21.7733 29.1504 20.7421 29.1551 19.7086 29.219C19.6282 29.2237 19.5951 29.2024 19.5998 29.1196C19.6045 29.0037 19.6022 28.8855 19.6022 28.7838C19.8434 28.7648 20.0562 28.7648 20.2644 28.7317C20.5766 28.6797 20.7303 28.507 20.7492 28.19C20.7634 27.9488 20.7587 27.7075 20.7468 27.4662C20.7114 26.6643 20.6688 25.8648 20.6333 25.0653C20.5908 24.0884 20.5553 23.1115 20.5174 22.1369C20.5103 21.9571 20.4985 21.775 20.4867 21.5952C20.4725 21.5976 20.463 21.6 20.4512 21.6023Z" fill="#082755"/>
<path d="M35.7272 29.2213C34.5612 29.1575 33.4142 29.1575 32.2505 29.2355C32.2505 29.0936 32.2458 28.9706 32.2553 28.85C32.2576 28.8287 32.3215 28.8027 32.3593 28.7956C32.5273 28.7672 32.707 28.7719 32.8631 28.7128C33.1564 28.6016 33.232 28.3296 33.2557 28.0552C33.2959 27.575 33.3314 27.0925 33.3408 26.6123C33.3574 25.6354 33.3503 24.6584 33.3598 23.6791C33.3669 22.9033 33.3787 22.1251 33.3858 21.3492C33.3858 21.2428 33.3763 21.1363 33.3598 21.0322C33.3006 20.6822 33.0949 20.4953 32.7377 20.4598C32.655 20.4527 32.5746 20.4432 32.4918 20.4432C32.4208 20.4432 32.3854 20.4243 32.3901 20.3463C32.3972 20.2374 32.3925 20.1263 32.3925 19.9962C32.4256 19.9962 32.4658 19.9938 32.5036 19.9962C33.5466 20.0695 34.592 20.0577 35.635 19.9962C36.3397 19.956 37.0162 20.0671 37.6618 20.3675C38.5464 20.7791 39.1069 21.6827 39.0359 22.6147C38.9768 23.3953 38.5889 23.9937 37.9669 24.4526C37.8014 24.5733 37.6263 24.6821 37.4466 24.7791C37.3473 24.8311 37.3496 24.8713 37.4064 24.9541C37.8155 25.562 38.2176 26.1747 38.6315 26.7802C38.9721 27.2793 39.3245 27.7737 39.6769 28.2657C39.7596 28.3816 39.8661 28.4833 39.9701 28.5779C40.1877 28.7766 40.4431 28.8854 40.7411 28.8831C40.8476 28.8831 40.9067 28.9162 40.8878 29.0321C40.8854 29.0392 40.8878 29.0487 40.8878 29.0558C40.8878 29.2615 40.8901 29.2663 40.682 29.271C40.306 29.2828 39.9252 29.3089 39.5515 29.2899C39.0336 29.2639 38.5937 29.0439 38.2815 28.63C38.0284 28.2894 37.8061 27.9251 37.5767 27.5679C37.1037 26.8299 36.6354 26.0919 36.1671 25.3515C36.1222 25.2805 36.0749 25.2569 35.9873 25.2616C35.5451 25.2829 35.1004 25.2947 34.6558 25.3066C34.5872 25.3089 34.5494 25.3137 34.5494 25.3964C34.5589 26.2102 34.5612 27.0239 34.573 27.8376C34.5754 27.9558 34.5967 28.0741 34.6227 28.19C34.696 28.533 34.8781 28.7033 35.2305 28.753C35.3606 28.7719 35.4931 28.7814 35.6231 28.779C35.713 28.779 35.7367 28.8098 35.7319 28.8925C35.7225 29.0014 35.7272 29.1078 35.7272 29.2213ZM34.5517 24.6466C34.5707 24.6513 34.5849 24.6584 34.6014 24.6584C35.2045 24.6679 35.81 24.6821 36.4131 24.6821C36.5053 24.6821 36.6094 24.6442 36.6874 24.5946C37.4513 24.1049 37.8084 23.4119 37.7588 22.5012C37.702 21.5006 37.0162 20.7839 36.0134 20.6774C35.5758 20.6301 35.1454 20.6774 34.7102 20.7247C34.6038 20.7366 34.5754 20.7744 34.573 20.8761C34.5683 21.5171 34.5565 22.1605 34.5517 22.8016C34.5494 23.4189 34.5517 24.0316 34.5517 24.6466Z" fill="#082755"/>
<path d="M23.9633 29.2024C23.9586 29.1764 23.9515 29.1646 23.9515 29.1528C23.9539 29.0392 23.9184 28.8973 23.9728 28.8192C24.013 28.7625 24.1738 28.7909 24.2826 28.7861C24.6114 28.7696 24.8573 28.5922 24.9141 28.2705C24.978 27.918 25.0229 27.5585 25.03 27.2013C25.0536 26.1132 25.0536 25.0251 25.0631 23.9394C25.0726 23.0854 25.0844 22.2315 25.0915 21.3752C25.0915 21.2617 25.082 21.1458 25.0631 21.0346C25.0016 20.6869 24.7935 20.4977 24.4411 20.4622C24.3559 20.4527 24.2684 20.4433 24.1833 20.4433C24.11 20.4433 24.0934 20.4125 24.0958 20.3463C24.1005 20.2375 24.0982 20.1263 24.0982 19.9962C24.1313 19.9962 24.1715 19.9938 24.2093 19.9962C25.2405 20.0719 26.2717 20.0411 27.3028 20.0009C27.9863 19.9749 28.6675 20.0199 29.306 20.3108C29.9635 20.6112 30.4129 21.0867 30.5359 21.8128C30.6636 22.5603 30.4531 23.2108 29.8737 23.7147C29.6253 23.9299 29.3368 24.1026 29.0648 24.2942C29.0341 24.3155 29.0009 24.3368 28.9371 24.3793C29.0246 24.403 29.0814 24.4219 29.1381 24.4361C29.5378 24.5236 29.921 24.6561 30.2686 24.8737C31.0042 25.3326 31.2761 26.0186 31.1957 26.8465C31.0964 27.8565 30.5004 28.4999 29.5828 28.8784C28.8425 29.1835 28.0644 29.2616 27.2744 29.219C26.2173 29.1622 25.1624 29.1409 24.1052 29.2024C24.0579 29.2048 24.013 29.2024 23.9633 29.2024ZM26.2409 26.5603C26.2433 26.5603 26.2456 26.5603 26.248 26.5603C26.248 27.1374 26.248 27.7122 26.248 28.2894C26.248 28.3509 26.2622 28.384 26.3284 28.4006C27.0143 28.5756 27.7072 28.6395 28.4049 28.5094C29.079 28.384 29.5898 28.0292 29.8193 27.3598C29.973 26.9151 29.973 26.4585 29.85 26.0067C29.7365 25.5928 29.4834 25.2806 29.105 25.0724C28.7715 24.8903 28.412 24.798 28.0384 24.7578C27.4731 24.6963 26.9055 24.701 26.3379 24.7294C26.248 24.7341 26.2409 24.772 26.2409 24.843C26.2409 25.4154 26.2409 25.9878 26.2409 26.5603ZM26.248 24.1617C26.941 24.1475 27.6197 24.1333 28.2962 24.1144C28.3553 24.112 28.4215 24.0718 28.4712 24.034C29.0553 23.5846 29.3652 23.0121 29.3131 22.2552C29.2611 21.4982 28.8117 20.9258 28.0715 20.7318C27.5299 20.5899 26.9883 20.6514 26.4443 20.7224C26.3119 20.7389 26.2811 20.791 26.2787 20.9164C26.2717 21.8933 26.2575 22.8702 26.2456 23.8471C26.248 23.9417 26.248 24.034 26.248 24.1617Z" fill="#082755"/>
<path d="M8.65661 19.9958C8.86474 20.0053 9.05631 20.0123 9.24788 20.0242C10.0047 20.0691 10.7615 20.0478 11.516 20.0005C11.6248 19.9934 11.6674 20.0123 11.665 20.1353C11.6579 20.4452 11.665 20.4452 11.3552 20.4641C10.9176 20.4902 10.6953 20.6936 10.6787 21.1312C10.6433 21.9898 10.6244 22.8461 10.6031 23.7048C10.5818 24.5587 10.5912 25.415 10.5463 26.2665C10.5132 26.8768 10.3713 27.4729 10.0213 27.9957C9.58609 28.6462 8.95934 29.0317 8.21434 29.2351C7.0933 29.5403 5.99118 29.4977 4.93873 28.9773C3.9927 28.509 3.44873 27.7355 3.27371 26.7018C3.15546 26.0087 3.18621 25.3085 3.18857 24.6084C3.1933 23.5368 3.2004 22.4653 3.19567 21.3938C3.19567 21.2329 3.16493 21.0673 3.12236 20.9112C3.05141 20.6321 2.848 20.4949 2.56893 20.4641C2.47196 20.4523 2.37026 20.4547 2.27329 20.4381C2.24018 20.431 2.19289 20.3861 2.19052 20.353C2.15741 19.9958 2.15976 19.9982 2.51925 20.0171C3.47711 20.0691 4.43497 20.0644 5.39282 20.0052C5.43302 20.0029 5.47323 20.0052 5.53 20.0052C5.53 20.133 5.53472 20.2584 5.52526 20.3837C5.5229 20.405 5.47323 20.4358 5.44012 20.4405C5.36681 20.45 5.29112 20.4405 5.21781 20.4452C4.85359 20.4641 4.60998 20.6486 4.53193 21.0035C4.4799 21.2424 4.44442 21.4884 4.44442 21.732C4.43969 23.0212 4.44206 24.308 4.45861 25.5971C4.46571 26.0442 4.48936 26.496 4.64782 26.9265C4.99785 27.8656 5.69556 28.3623 6.67233 28.49C7.1146 28.5492 7.55922 28.5326 7.99439 28.4214C8.94042 28.1754 9.50804 27.5723 9.68069 26.6143C9.78948 26.0087 9.78711 25.3937 9.78002 24.7787C9.77056 23.7757 9.74928 22.7752 9.72563 21.7722C9.71853 21.5191 9.69725 21.266 9.65704 21.0153C9.60501 20.6912 9.39451 20.5067 9.06813 20.4665C8.95934 20.4523 8.84582 20.457 8.73703 20.4429C8.70628 20.4381 8.65661 20.3979 8.65424 20.3719C8.65188 20.2513 8.65661 20.133 8.65661 19.9958Z" fill="#082755"/>
<path d="M44.0333 20.772C44.0097 21.8909 43.9837 22.9908 43.96 24.1097C44.0546 24.1097 44.1397 24.1097 44.2249 24.1097C44.8374 24.112 45.45 24.1215 46.0626 24.1168C46.3038 24.1144 46.5474 24.0955 46.7886 24.0647C47.1978 24.0127 47.3775 23.8353 47.4437 23.4213C47.4603 23.3267 47.491 23.3078 47.5786 23.322C47.6613 23.3362 47.7488 23.3362 47.8529 23.3433C47.8482 23.419 47.8482 23.4899 47.8411 23.5609C47.7701 24.2374 47.7441 24.9163 47.8198 25.5928C47.834 25.7181 47.7961 25.7584 47.6708 25.7607C47.4225 25.7631 47.4225 25.7702 47.3846 25.5336C47.3137 25.0866 47.1434 24.9092 46.6917 24.8335C46.5214 24.8051 46.3487 24.7862 46.1761 24.7838C45.4855 24.7743 44.7949 24.7743 44.1043 24.7696C44.0641 24.7696 44.0239 24.7696 43.96 24.7696C43.96 24.8311 43.96 24.8808 43.96 24.9328C43.96 26.0422 43.96 27.1492 43.9624 28.2586C43.9624 28.4455 43.9671 28.4549 44.161 28.4597C44.8847 28.4762 45.6084 28.4975 46.3322 28.4975C46.6136 28.4975 46.8974 28.4644 47.1765 28.4171C47.7914 28.313 48.1982 27.9416 48.4371 27.381C48.4796 27.2793 48.5104 27.1729 48.5577 27.0735C48.5719 27.0452 48.6263 27.0097 48.6499 27.0168C48.7777 27.0546 48.903 27.1043 49.0378 27.154C48.9976 27.2912 48.9574 27.4189 48.9219 27.549C48.7729 28.067 48.6192 28.5827 48.4773 29.1007C48.4513 29.2001 48.4134 29.2308 48.3141 29.2261C47.5691 29.2001 46.8265 29.1669 46.0815 29.1575C45.301 29.148 44.5182 29.1527 43.7377 29.1646C43.0849 29.174 42.4298 29.2001 41.777 29.2261C41.6493 29.2308 41.6162 29.193 41.6209 29.07C41.6304 28.8216 41.6233 28.8216 41.8669 28.8145C42.3257 28.8003 42.5693 28.5827 42.6308 28.067C42.6829 27.6176 42.7112 27.1634 42.716 26.7093C42.7396 25.0298 42.7538 23.348 42.7656 21.6662C42.768 21.458 42.7633 21.2475 42.7325 21.0441C42.6758 20.6751 42.4464 20.4858 42.0679 20.4598C41.971 20.4527 41.8433 20.4764 41.7865 20.4243C41.7368 20.3817 41.7818 20.2469 41.7629 20.1547C41.7368 20.0198 41.8078 20.0175 41.9071 20.0198C43.0778 20.0459 44.2509 20.0861 45.4216 20.0884C46.3251 20.0908 47.2309 20.0482 48.1344 20.0198C48.255 20.0151 48.2952 20.0411 48.2999 20.1689C48.3259 20.7437 48.3638 21.3208 48.4016 21.8956C48.4087 21.9879 48.3756 22.021 48.2881 22.0234C48.1935 22.0257 48.0847 22.0707 48.0114 22.0352C47.9617 22.0092 47.9617 21.8791 47.9475 21.7963C47.834 21.186 47.5265 20.8808 46.895 20.8123C46.4788 20.7673 46.0578 20.7555 45.6392 20.7484C45.1615 20.7413 44.6861 20.7531 44.2083 20.7578C44.1516 20.7602 44.0924 20.7673 44.0333 20.772Z" fill="#082755"/>
<path d="M73.8214 28.7908C73.8214 28.9375 73.8214 29.0747 73.8214 29.1977C72.705 29.1977 71.5935 29.1977 70.4771 29.1977C70.4771 29.0747 70.4771 28.9375 70.4771 28.7838C70.6001 28.7767 70.7231 28.7719 70.8437 28.7648C70.9099 28.7601 70.9762 28.7601 71.04 28.7459C71.3167 28.6939 71.4492 28.5425 71.4113 28.2634C71.3806 28.0268 71.3215 27.7903 71.2505 27.5608C71.0708 26.9931 70.8768 26.4278 70.6924 25.8624C70.6687 25.7915 70.6427 25.756 70.5576 25.756C69.55 25.7536 68.5425 25.7489 67.535 25.7394C67.3931 25.7371 67.315 25.7726 67.2654 25.9169C67.0478 26.5579 66.8136 27.1942 66.5913 27.8329C66.5535 27.944 66.5488 28.0647 66.5369 28.1829C66.5038 28.5117 66.6694 28.7175 67.0029 28.7506C67.1377 28.7648 67.2748 28.7625 67.4097 28.7767C67.4404 28.779 67.4924 28.8192 67.4948 28.8476C67.5043 28.9659 67.4995 29.0818 67.4995 29.193C66.4612 29.193 65.4254 29.193 64.3753 29.193C64.3753 29.0865 64.3705 28.9612 64.38 28.8358C64.3824 28.8098 64.4368 28.7743 64.4722 28.7672C64.5834 28.7435 64.7016 28.7412 64.8128 28.7152C65.1628 28.6324 65.3993 28.4147 65.5436 28.0931C65.7163 27.7099 65.8984 27.329 66.0545 26.9387C66.8964 24.8382 67.7337 22.7377 68.5709 20.6349C68.6442 20.4527 68.7081 20.2682 68.7885 20.0884C68.8074 20.0435 68.8713 19.9938 68.9162 19.9915C69.2213 19.982 69.524 19.9891 69.8291 19.9844C69.9143 19.982 69.9308 20.0317 69.9497 20.0932C70.2548 21.0062 70.5505 21.924 70.8697 22.8323C71.3309 24.1452 71.8087 25.4532 72.2864 26.7613C72.4425 27.1918 72.6223 27.6129 72.7925 28.0363C72.8209 28.1049 72.8564 28.1687 72.8848 28.2373C73.0385 28.6158 73.32 28.7979 73.7315 28.7743C73.7575 28.7837 73.7811 28.7885 73.8214 28.7908ZM67.6154 25.0819C68.5662 25.0819 69.4933 25.0819 70.4322 25.0819C69.9899 23.7785 69.5548 22.4964 69.1125 21.1884C68.6087 22.4964 68.1168 23.7738 67.6154 25.0819Z" fill="#082755"/>
<path d="M56.8638 20.4409C56.8638 20.2871 56.8638 20.1547 56.8638 20.0033C56.923 20.0033 56.9868 20.0009 57.0483 20.0033C57.746 20.0198 58.4461 20.0435 59.1438 20.0506C59.4347 20.053 59.7256 20.0222 60.0165 20.0009C60.1111 19.9938 60.1442 20.0198 60.1347 20.1121C60.1253 20.2138 60.1631 20.3463 60.1111 20.4078C60.0638 20.4645 59.9242 20.448 59.8249 20.4574C59.4252 20.4953 59.2076 20.668 59.1461 21.0606C59.0917 21.3942 59.0633 21.7348 59.0633 22.073C59.0586 24.1593 59.0633 26.2456 59.0633 28.3296C59.0633 28.4147 59.0894 28.4408 59.1745 28.4408C59.7327 28.4455 60.2932 28.4739 60.8513 28.4597C61.2558 28.4502 61.6626 28.4029 62.0646 28.3556C62.5542 28.2965 62.9066 28.0221 63.1384 27.601C63.2377 27.4236 63.3157 27.232 63.3843 27.0428C63.4198 26.9434 63.4624 26.9222 63.5546 26.9624C63.6256 26.9931 63.7012 27.0168 63.7769 27.0333C63.855 27.0499 63.8739 27.083 63.8526 27.1611C63.6563 27.8305 63.4648 28.5023 63.2708 29.1717C63.2661 29.1882 63.259 29.2024 63.2448 29.2332C61.0807 29.1575 58.912 29.1267 56.7196 29.2355C56.7196 29.1078 56.7148 28.9966 56.7243 28.8902C56.7267 28.8665 56.7763 28.8287 56.8023 28.8287C57.1997 28.8571 57.4196 28.6324 57.5544 28.2988C57.694 27.9582 57.772 27.5987 57.7767 27.2368C57.8004 25.4225 57.817 23.6058 57.8264 21.7915C57.8264 21.5361 57.7886 21.2782 57.7342 21.0275C57.6538 20.6632 57.4385 20.4977 57.0696 20.4645C57.0081 20.4551 56.9442 20.448 56.8638 20.4409Z" fill="#082755"/>
<path d="M38 0.862244L39.587 4.07686H36.4131L38 0.862244Z" fill="#35B518"/>
<path d="M75.5549 12.9874C46.5639 0.859881 27.8468 1.03729 0.447449 13.0749C25.4935 2.98877 50.4048 3.08102 75.5549 12.9874Z" fill="#C80919" stroke="#C80919" stroke-miterlimit="10"/>
</svg>
