<svg width="253" height="135" viewBox="0 0 253 135" fill="none" xmlns="http://www.w3.org/2000/svg">
<g clip-path="url(#clip0_7_814)">
    <defs>
        <clipPath id="clip0_7_814">
            <rect width="253" height="135" fill="white"/>
        </clipPath>
    </defs>
<path d="M178.264 96.6778C176.537 94.9319 175.476 93.0457 174.636 91.0229C173.17 87.4914 172.808 83.7617 172.675 79.9792C172.581 77.3257 172.406 74.6715 172.142 72.031C172.054 71.1465 171.676 70.2519 171.264 69.4491C170.532 68.0186 170.625 66.5338 170.811 65.0461C171.206 61.8907 170.473 58.9848 169.012 56.2307C167.632 53.6271 165.7 51.4488 163.742 49.2921C163.46 48.9826 163.182 48.6692 162.908 48.3519C162.878 48.3179 162.881 48.255 162.83 48.0438C163.26 48.2058 163.629 48.2846 163.934 48.472C167.573 50.7051 170.842 53.5028 173.62 56.7623C175.492 58.9587 176.4 59.0694 178.712 57.3828C183.745 53.7117 189.297 50.9815 194.861 48.2702C195.118 48.1458 195.434 48.148 195.72 48.0908L195.822 48.2883C195.584 48.4994 195.36 48.7287 195.106 48.9196C190.709 52.2306 186.445 55.6991 182.823 59.8881C181.846 61.017 180.89 62.1749 180.041 63.4022C178.224 66.0347 177.916 68.8792 179.091 71.8798C180.223 74.7727 180.459 77.7944 179.902 80.8131C179.003 85.6949 178.534 90.607 178.42 95.5626C178.416 95.8663 178.339 96.165 178.264 96.6778Z" fill="#C80919"/>
<path d="M179.032 52.3492C179.032 54.1066 177.639 55.5241 175.921 55.5183C174.22 55.5126 172.819 54.0589 172.834 52.3145C172.839 51.4841 173.17 50.6896 173.754 50.1057C174.338 49.5218 175.128 49.1964 175.95 49.201C176.772 49.2056 177.559 49.5399 178.137 50.1303C178.714 50.7207 179.037 51.5188 179.032 52.3492Z" fill="#C80919"/>
<path d="M176.937 43.3935C176.572 44.3416 176.101 44.087 175.587 43.6625C174.442 42.7144 174.156 41.4256 174.501 40.0977C175.116 37.7111 176.753 35.9956 178.557 34.4392C178.589 34.411 178.656 34.4255 178.887 34.4002C179.276 35.263 179.722 36.1685 180.097 37.1029C180.638 38.4575 180.947 39.867 180.773 41.3402C180.616 42.6782 179.928 43.6358 178.663 44.1254C177.661 44.5094 177.506 44.4458 176.937 43.3935Z" fill="#35B518"/>
<path d="M158.817 42.8207C158.966 42.974 159.109 43.1309 159.263 43.2785C159.711 43.7124 159.646 44.0632 159.062 44.351C158.09 44.8298 156.657 44.5246 155.801 43.6611C154.401 42.2479 153.844 40.4246 153.367 38.5645C153.28 38.2246 153.431 38.051 153.785 38.0582C155.625 38.1002 157.436 38.3309 159.062 39.2675C160.117 39.8764 160.676 40.8499 160.577 42.1322C160.505 43.0391 160.276 43.1816 159.464 42.8185C159.293 42.7462 159.106 42.697 158.93 42.637L158.817 42.8207Z" fill="#35B518"/>
<path d="M168.485 42.8785C168.499 43.089 168.453 43.3298 168.54 43.5034C168.703 43.8281 168.936 44.1196 169.153 44.4147C169.555 44.9614 169.4 45.3968 168.712 45.4944C167.202 45.7114 165.914 45.3028 165.032 43.9757C164.203 42.7252 163.825 41.3055 163.635 39.8338C163.544 39.1315 163.519 38.4206 163.479 37.7125C163.456 37.2989 163.641 37.0016 164.079 37.1144C166.181 37.6547 168.261 38.2607 169.896 39.8207C171.033 40.9056 171.368 42.4562 170.77 43.7023C170.405 44.4624 170.126 44.5072 169.589 43.8838C169.286 43.5338 168.994 43.1736 168.697 42.8185L168.485 42.8785Z" fill="#35B518"/>
<path d="M187.567 44.7676C187.197 45.0186 186.812 45.2485 186.46 45.5241C185.876 45.9819 185.431 45.8604 185.251 45.1661C184.878 43.7247 185.402 42.292 186.616 41.3916C188.41 40.063 190.494 39.6624 192.637 39.4389C193.046 39.3969 193.344 39.5336 193.253 40.0001C192.862 42.0121 192.541 44.0502 191.226 45.7338C190.071 47.2143 188.692 47.7466 187.285 47.2338C186.342 46.8895 186.288 46.5937 187.005 45.8792C187.281 45.6044 187.506 45.2796 187.76 44.9781L187.567 44.7676Z" fill="#35B518"/>
<path d="M200.944 31.0574C200.948 32.4648 200.743 33.8296 200.085 35.093C199.526 36.1677 198.731 36.917 197.436 36.8027C196.317 36.7029 195.447 36.1439 195.053 35.0511C194.619 33.8484 194.909 32.7867 195.84 31.8949C197.124 30.656 198.741 30.0738 200.378 29.5437C200.509 29.5011 200.87 29.7773 200.917 29.9596C201.008 30.3031 200.944 30.6886 200.944 31.0574Z" fill="#35B518"/>
<path d="M163.292 32.7946C163.128 34.0964 162.087 34.7654 161.126 35.1371C160.207 35.493 159.207 34.8898 158.53 34.0863C157.391 32.7303 157.177 31.0488 157.034 29.3673C156.897 27.7841 156.972 27.7038 158.445 28.2824C159.668 28.7634 160.879 29.3282 161.994 30.0182C162.949 30.6127 163.427 31.5933 163.292 32.7946Z" fill="#35B518"/>
<path d="M189.483 32.2616C189.385 33.0665 189.313 33.8751 189.176 34.6728C189.12 34.9997 188.962 35.3237 188.789 35.613C188.019 36.9083 186.48 37.3943 185.339 36.7225C183.797 35.8141 183.349 34.4211 184.156 32.9284C184.883 31.5825 186.074 30.7399 187.372 30.0355C189.146 29.0715 189.139 28.6918 189.359 31.1536C189.392 31.5196 189.402 31.8877 189.423 32.2551L189.483 32.2616Z" fill="#35B518"/>
<path d="M178.923 30.1397C177.832 30.9945 177.295 30.8752 176.817 29.5018C176.608 28.8597 176.59 28.1698 176.764 27.5173C177.29 25.6745 178.635 24.3958 180.019 23.1779C180.351 22.8886 180.647 22.9711 180.827 23.3782C181.53 24.9758 182.089 26.6118 181.972 28.396C181.9 29.5575 181.386 30.455 180.314 30.9706C179.505 31.3597 179.336 31.2773 179.076 30.3921C179.054 30.3031 178.978 30.2257 178.923 30.1397Z" fill="#35B518"/>
<path d="M160.626 51.132C160.627 51.4015 160.609 51.6708 160.571 51.9377C160.491 52.3846 160.321 52.697 159.776 52.3607C159.638 52.2761 159.376 52.3955 159.171 52.4208C159.263 52.5828 159.314 52.8113 159.457 52.8952C159.976 53.2098 159.784 53.447 159.417 53.6908C158.352 54.3952 156.999 54.2079 155.909 53.1975C154.886 52.2472 154.285 51.0228 153.781 49.7485C153.069 47.9469 153.083 47.952 154.993 48.0127C156.331 48.0554 157.641 48.2123 158.854 48.8329C159.722 49.2813 160.407 49.8909 160.626 51.132Z" fill="#35B518"/>
<path d="M203.27 41.1688C203.791 41.2289 204.412 41.2491 204.999 41.3995C205.192 41.4487 205.481 41.9289 205.418 42.0555C204.465 43.9626 203.464 45.8445 201.584 47.0277C200.408 47.7675 199.204 47.9491 197.946 47.2446C197.839 47.1846 197.67 47.155 197.633 47.0667C197.224 46.1265 196.602 45.195 196.511 44.2179C196.421 43.2409 197.109 42.3665 198.025 41.84C199.648 40.9092 201.394 40.8419 203.27 41.1688Z" fill="#35B518"/>
<path d="M170.982 34.0039C171.002 34.3264 171.022 34.649 171.045 34.9708C171.096 35.6832 170.773 35.9537 170.119 35.6593C169.159 35.2254 168.482 34.4913 168.343 33.4173C168.088 31.427 168.768 29.6276 169.618 27.8897C169.69 27.7509 170.174 27.6373 170.278 27.7292C171.662 28.9485 172.963 30.2539 173.484 32.1112C173.797 33.2271 173.619 34.2628 172.718 35.0692C172.516 35.25 172.239 35.3433 171.996 35.4763C171.869 35.2348 171.733 34.9968 171.619 34.7495C171.495 34.4819 171.391 34.2049 171.278 33.9323L170.982 34.0039Z" fill="#35B518"/>
<path d="M13.3261 122.126H21.5805V118.355C21.5805 117.548 21.5361 116.953 21.4473 116.569C21.3792 116.243 21.2305 115.939 21.015 115.686C20.7995 115.433 20.5242 115.239 20.2147 115.123C19.8632 115.007 19.4969 114.944 19.1273 114.935V114.664H26.5577V114.935C26.1927 114.944 25.8309 115.008 25.484 115.123C25.1735 115.239 24.8975 115.433 24.6818 115.687C24.4662 115.941 24.318 116.246 24.2513 116.574C24.1621 116.959 24.1174 117.552 24.1174 118.353V127.01C24.1174 127.809 24.1621 128.4 24.2513 128.784C24.3278 129.144 24.4984 129.476 24.7452 129.747C24.9541 129.961 25.2061 130.127 25.484 130.235C25.8302 130.354 26.1922 130.419 26.5577 130.429V130.698H19.1273V130.429C19.5769 130.405 19.9393 130.34 20.2147 130.235C20.4923 130.127 20.744 129.961 20.9527 129.746C21.2009 129.481 21.372 129.152 21.4473 128.795C21.5361 128.409 21.5805 127.814 21.5805 127.009V122.675H13.3261V127.009C13.3261 127.808 13.3705 128.401 13.4593 128.789C13.5254 129.115 13.672 129.418 13.8856 129.671C14.0991 129.924 14.3726 130.118 14.6805 130.235C14.9554 130.341 15.3176 130.406 15.7671 130.429V130.699H8.33813V130.429C8.78768 130.406 9.15014 130.341 9.4255 130.235C9.70054 130.129 9.94876 129.963 10.1521 129.748C10.4064 129.486 10.5804 129.156 10.6532 128.796C10.7381 128.41 10.7808 127.815 10.7813 127.011V118.354C10.7813 117.547 10.7386 116.952 10.6532 116.568C10.5804 116.209 10.4064 115.878 10.1521 115.617C9.95053 115.395 9.69909 115.226 9.41906 115.124C9.0696 115.009 8.70553 114.945 8.33813 114.936V114.665H15.7671V114.936C15.4021 114.945 15.0403 115.008 14.6934 115.124C14.3824 115.24 14.1058 115.434 13.8897 115.688C13.6735 115.942 13.5249 116.248 13.4578 116.576C13.3691 116.962 13.3247 117.555 13.3247 118.355L13.3261 122.126Z" fill="#C80919"/>
<path d="M32.0604 124.311C32.0289 124.696 32.0134 124.974 32.0139 125.145C32.0131 125.821 32.1125 126.494 32.3088 127.141C32.5059 127.792 32.7743 128.332 33.1141 128.763C33.4651 129.201 33.9081 129.555 34.4112 129.799C34.9142 130.043 35.4647 130.17 36.0226 130.172C36.4278 130.175 36.8301 130.103 37.2102 129.961C37.559 129.836 37.8766 129.635 38.1408 129.373C38.419 129.099 38.6576 128.661 38.8566 128.058L39.1007 128.14C38.8988 129.056 38.4667 129.747 37.8043 130.213C37.1419 130.679 36.2603 130.912 35.1593 130.912C34.2048 130.912 33.3871 130.759 32.7061 130.454C32.0176 130.143 31.4206 129.658 30.9738 129.044C30.3152 128.16 29.9859 127.071 29.9859 125.779C29.9859 124.017 30.6096 122.635 31.8571 121.633C32.7347 120.915 33.8325 120.528 34.9617 120.54C35.5508 120.534 36.135 120.648 36.6797 120.875C37.1938 121.089 37.6516 121.42 38.0169 121.844C38.5858 122.502 38.8702 123.324 38.8702 124.311H32.0604ZM37.1293 123.852C37.0749 123.07 36.9317 122.467 36.6998 122.044C36.5036 121.674 36.2167 121.36 35.8665 121.134C35.536 120.916 35.1501 120.8 34.7556 120.799C34.0917 120.799 33.5109 121.089 33.0132 121.667C32.5154 122.246 32.2205 122.974 32.1284 123.852H37.1293Z" fill="#C80919"/>
<path d="M52.4218 129.561L52.6194 129.679C52.3407 130.501 51.7014 130.912 50.7017 130.912C50.1505 130.912 49.6923 130.775 49.3272 130.501C49.0886 130.321 48.8402 130.008 48.582 129.561C48.0619 130.031 47.6698 130.34 47.4059 130.489C46.9015 130.771 46.3154 130.912 45.6478 130.912C44.794 130.912 44.1169 130.704 43.6162 130.289C43.1156 129.874 42.8653 129.314 42.8653 128.609C42.8653 127.959 43.0705 127.415 43.4809 126.977C43.7116 126.736 43.9835 126.54 44.2834 126.398C44.7071 126.211 45.1467 126.064 45.597 125.958C46.2713 125.785 46.7693 125.641 47.0909 125.524C47.3794 125.423 47.6518 125.281 47.8991 125.101C48.128 124.945 48.3061 124.724 48.411 124.466C48.5064 124.225 48.5541 123.888 48.5541 123.454C48.5541 122.538 48.3835 121.868 48.0423 121.445C47.8809 121.245 47.6762 121.084 47.4439 120.975C47.2063 120.86 46.9459 120.8 46.6822 120.799C46.3812 120.794 46.0856 120.88 45.8332 121.046C45.5841 121.212 45.3899 121.449 45.2756 121.727L44.9849 122.409C44.8298 122.777 44.5507 122.96 44.1474 122.96C44.025 122.964 43.9033 122.942 43.7894 122.897C43.6755 122.851 43.5719 122.783 43.4845 122.697C43.397 122.611 43.328 122.507 43.282 122.393C43.2361 122.279 43.2141 122.156 43.2175 122.033C43.2175 121.633 43.4969 121.296 44.0558 121.02C44.4159 120.861 44.7931 120.745 45.1796 120.674C45.6109 120.585 46.0496 120.54 46.4896 120.538C46.9963 120.542 47.5008 120.605 47.9929 120.726C48.4459 120.829 48.8831 120.992 49.2929 121.212C49.7973 121.502 50.1118 121.878 50.2364 122.34C50.2979 122.575 50.3289 122.971 50.3294 123.527V127.873C50.3294 128.609 50.3604 129.11 50.4225 129.376C50.5542 129.933 50.872 130.211 51.376 130.21C51.6158 130.21 51.8055 130.167 51.9393 130.081C52.0732 129.995 52.2357 129.819 52.4218 129.561ZM48.5734 124.933C48.1478 125.291 47.6856 125.602 47.1947 125.861C46.7919 126.069 46.4009 126.301 46.0236 126.553C45.8031 126.715 45.6046 126.904 45.4331 127.118C45.0721 127.565 44.8792 128.126 44.8883 128.703C44.8883 129.22 45.0291 129.647 45.3106 129.984C45.4395 130.145 45.6033 130.275 45.7894 130.363C45.9755 130.45 46.1791 130.494 46.3844 130.49C46.7711 130.487 47.147 130.36 47.4582 130.128C47.7954 129.888 48.0585 129.556 48.217 129.171C48.4556 128.647 48.5749 127.887 48.5749 126.892L48.5734 124.933Z" fill="#C80919"/>
<path d="M54.9051 114.62L58.2538 114.196V127.296L58.2652 128.189C58.2652 128.719 58.2963 129.108 58.3583 129.357C58.4139 129.594 58.5385 129.808 58.7162 129.973C58.9329 130.184 59.3321 130.344 59.9138 130.454V130.7H54.7741V130.454C55.2394 130.392 55.5734 130.304 55.7762 130.191C55.9791 130.077 56.1418 129.884 56.2645 129.612C56.3494 129.432 56.4095 129.16 56.4448 128.797C56.4802 128.433 56.4976 127.907 56.4971 127.219V118.012C56.4971 117.215 56.4778 116.652 56.4391 116.323C56.4155 116.041 56.3281 115.769 56.1836 115.527C56.072 115.328 55.9067 115.165 55.7068 115.058C55.5207 114.964 55.2532 114.905 54.9044 114.882L54.9051 114.62Z" fill="#C80919"/>
<path d="M65.6957 120.716H68.6492V121.163H65.6957V127.999C65.6957 128.822 65.8348 129.409 66.113 129.761C66.2644 129.961 66.4637 130.118 66.6921 130.219C66.9362 130.33 67.2012 130.386 67.4688 130.384C67.7729 130.395 68.0741 130.32 68.3379 130.167C68.5698 130.022 68.8246 129.757 69.1024 129.371L69.2763 129.524C69.0368 129.978 68.6609 130.344 68.2026 130.57C67.7416 130.797 67.166 130.91 66.4759 130.91C65.5611 130.91 64.8944 130.73 64.4759 130.37C64.2616 130.198 64.1069 129.961 64.0342 129.694C63.9645 129.432 63.9297 128.96 63.9297 128.279V121.16H62.6841V120.972C63.1881 120.808 63.6536 120.491 64.0807 120.021C64.3188 119.758 64.5268 119.468 64.7007 119.158C64.8846 118.803 65.0334 118.432 65.1452 118.048L65.2626 117.66H65.6921L65.6957 120.716Z" fill="#C80919"/>
<path d="M74.4776 114.197V122.242C74.6971 121.962 74.9381 121.699 75.1985 121.456C75.4257 121.256 75.68 121.09 75.9537 120.963C76.5569 120.673 77.2185 120.528 77.8865 120.541C78.8013 120.541 79.5572 120.724 80.1542 121.092C80.5799 121.366 80.8725 121.7 81.0319 122.095C81.1913 122.491 81.2707 123.083 81.2703 123.872V127.298L81.2817 128.19C81.2817 128.72 81.3127 129.11 81.3748 129.357C81.4304 129.594 81.5551 129.809 81.7327 129.974C81.9498 130.185 82.3488 130.345 82.9296 130.455V130.701H77.7948V130.455C78.2053 130.401 78.4971 130.334 78.6703 130.256C78.8585 130.166 79.0205 130.028 79.1406 129.856C79.2947 129.617 79.3926 129.345 79.427 129.061C79.4814 128.723 79.5083 128.227 79.5078 127.571V123.852C79.5078 123.289 79.4654 122.843 79.3804 122.514C79.3023 122.2 79.1556 121.907 78.9509 121.658C78.5572 121.197 78.0005 120.966 77.2809 120.966C75.4096 120.966 74.474 122.46 74.474 125.45V127.33L74.4855 128.198C74.4855 128.728 74.5163 129.118 74.5778 129.366C74.6339 129.603 74.7585 129.817 74.9358 129.982C75.1519 130.193 75.5502 130.353 76.1305 130.462V130.709H71.0008V130.462C71.4661 130.4 71.8001 130.313 72.003 130.199C72.2229 130.064 72.3941 129.861 72.4912 129.621C72.5766 129.441 72.6367 129.169 72.6716 128.806C72.7064 128.442 72.7238 127.916 72.7238 127.228V118.021C72.7238 117.223 72.7045 116.66 72.6658 116.331C72.6422 116.05 72.5548 115.778 72.4103 115.536C72.2985 115.337 72.1332 115.174 71.9335 115.066C71.7474 114.972 71.4799 114.914 71.1311 114.891V114.632L74.4776 114.197Z" fill="#C80919"/>
<path d="M108.272 114.585L108.415 119.835H108.147C108.062 119.608 107.996 119.435 107.95 119.318C107.679 118.566 107.458 118.006 107.287 117.638C106.967 116.957 106.521 116.343 105.973 115.83C105.585 115.445 105.127 115.138 104.625 114.926C104.124 114.732 103.591 114.636 103.055 114.644C102.179 114.644 101.42 114.837 100.776 115.223C100.21 115.56 99.6827 116.042 99.1949 116.669C98.693 117.324 98.2894 118.051 97.9973 118.825C97.5554 119.961 97.3345 121.253 97.3345 122.702C97.3345 123.931 97.4857 125.04 97.7883 126.028C98.0909 127.017 98.5325 127.843 99.1133 128.507C100.184 129.745 101.602 130.363 103.369 130.363C104.252 130.363 105.047 130.208 105.752 129.899C106.457 129.59 107.004 129.153 107.392 128.589C107.841 127.939 108.166 127.062 108.368 125.958L108.635 126.005C108.489 127.242 108.155 128.225 107.633 128.953C107.137 129.65 106.453 130.183 105.581 130.551C104.709 130.919 103.699 131.103 102.552 131.103C101.51 131.108 100.474 130.945 99.4827 130.622C97.925 130.105 96.7081 129.171 95.8319 127.82C94.9557 126.469 94.5179 124.858 94.5183 122.987C94.5183 121.553 94.7741 120.232 95.2857 119.022C95.7973 117.812 96.5103 116.839 97.4246 116.103C98.1295 115.539 98.9725 115.09 99.9537 114.758C100.903 114.43 101.898 114.262 102.901 114.259C103.839 114.259 104.831 114.439 105.877 114.799L106.831 115.116C106.986 115.18 107.151 115.216 107.319 115.222C107.412 115.223 107.505 115.201 107.588 115.158C107.671 115.115 107.742 115.052 107.796 114.975C107.873 114.852 107.94 114.723 107.993 114.588L108.272 114.585Z" fill="#C80919"/>
<path d="M121.751 129.561L121.949 129.679C121.67 130.501 121.03 130.912 120.03 130.912C119.479 130.912 119.021 130.775 118.656 130.501C118.417 130.321 118.169 130.008 117.911 129.561C117.391 130.031 116.999 130.34 116.734 130.489C116.23 130.771 115.644 130.912 114.976 130.912C114.123 130.912 113.445 130.704 112.945 130.289C112.444 129.874 112.194 129.314 112.194 128.609C112.194 127.959 112.399 127.415 112.81 126.977C113.041 126.736 113.312 126.54 113.612 126.398C114.036 126.211 114.476 126.063 114.926 125.958C115.601 125.785 116.099 125.641 116.42 125.524C116.708 125.423 116.981 125.281 117.228 125.101C117.457 124.945 117.635 124.724 117.74 124.466C117.833 124.225 117.88 123.888 117.883 123.454C117.883 122.538 117.712 121.868 117.371 121.445C117.21 121.244 117.005 121.084 116.772 120.975C116.535 120.86 116.275 120.8 116.011 120.799C115.71 120.794 115.414 120.88 115.162 121.046C114.913 121.212 114.718 121.449 114.604 121.727L114.314 122.409C114.158 122.777 113.879 122.96 113.476 122.96C113.354 122.964 113.232 122.942 113.118 122.897C113.005 122.851 112.901 122.783 112.814 122.697C112.726 122.611 112.657 122.507 112.611 122.393C112.565 122.279 112.543 122.156 112.546 122.033C112.546 121.633 112.826 121.296 113.384 121.02C113.745 120.861 114.122 120.745 114.508 120.674C114.939 120.585 115.378 120.54 115.818 120.538C116.325 120.542 116.829 120.605 117.321 120.726C117.776 120.827 118.214 120.989 118.626 121.208C119.131 121.497 119.445 121.873 119.569 122.336C119.632 122.571 119.663 122.967 119.662 123.522V127.868C119.662 128.605 119.693 129.106 119.755 129.372C119.887 129.928 120.205 130.206 120.709 130.206C120.949 130.206 121.138 130.163 121.272 130.077C121.406 129.991 121.565 129.819 121.751 129.561ZM117.902 124.933C117.477 125.291 117.014 125.602 116.523 125.861C116.121 126.069 115.73 126.301 115.352 126.553C115.132 126.715 114.933 126.904 114.762 127.118C114.401 127.565 114.208 128.126 114.217 128.703C114.217 129.22 114.358 129.647 114.64 129.984C114.769 130.145 114.932 130.275 115.119 130.363C115.305 130.451 115.508 130.494 115.714 130.49C116.1 130.487 116.476 130.36 116.787 130.128C117.125 129.888 117.388 129.556 117.546 129.171C117.785 128.647 117.904 127.887 117.904 126.892L117.902 124.933Z" fill="#C80919"/>
<path d="M127.428 122.347C127.708 121.855 128.021 121.483 128.37 121.233C129.011 120.771 129.781 120.529 130.567 120.54C131.071 120.54 131.455 120.653 131.718 120.88C131.831 120.969 131.922 121.083 131.984 121.214C132.046 121.344 132.078 121.487 132.076 121.631C132.08 121.731 132.062 121.831 132.025 121.924C131.988 122.017 131.933 122.101 131.862 122.171C131.788 122.242 131.702 122.297 131.607 122.334C131.512 122.37 131.411 122.386 131.31 122.383C131.178 122.382 131.049 122.353 130.93 122.296C130.812 122.239 130.707 122.157 130.623 122.054L130.265 121.655C130.138 121.511 129.982 121.396 129.808 121.317C129.634 121.238 129.445 121.198 129.254 121.198C128.727 121.198 128.316 121.542 128.021 122.23C127.727 122.918 127.579 123.876 127.579 125.104V127.298L127.591 128.19C127.591 128.72 127.622 129.11 127.684 129.357C127.74 129.594 127.864 129.808 128.042 129.973C128.259 130.184 128.658 130.344 129.24 130.454V130.7H124.1V130.454C124.565 130.392 124.899 130.304 125.103 130.191C125.306 130.078 125.469 129.886 125.592 129.613C125.677 129.433 125.737 129.163 125.771 128.801C125.806 128.438 125.823 127.914 125.824 127.228V124.342C125.824 123.539 125.804 122.976 125.766 122.653C125.742 122.374 125.654 122.104 125.51 121.864C125.397 121.665 125.232 121.501 125.033 121.39C124.847 121.294 124.58 121.234 124.231 121.21V120.963L127.228 120.54C127.35 121.135 127.417 121.74 127.428 122.347Z" fill="#C80919"/>
<path d="M136.989 124.311C136.958 124.696 136.942 124.974 136.943 125.145C136.942 125.821 137.041 126.494 137.238 127.141C137.435 127.792 137.704 128.332 138.043 128.763C138.394 129.201 138.837 129.555 139.34 129.799C139.843 130.043 140.394 130.17 140.952 130.172C141.357 130.174 141.759 130.103 142.139 129.961C142.488 129.835 142.805 129.635 143.07 129.373C143.347 129.099 143.586 128.661 143.785 128.058L144.03 128.14C143.829 129.056 143.397 129.747 142.733 130.213C142.07 130.679 141.187 130.912 140.085 130.912C139.13 130.912 138.312 130.759 137.631 130.454C136.943 130.143 136.346 129.658 135.899 129.044C135.24 128.16 134.911 127.071 134.911 125.779C134.911 124.017 135.535 122.635 136.783 121.633C137.66 120.915 138.758 120.528 139.887 120.54C140.476 120.534 141.06 120.648 141.605 120.875C142.119 121.089 142.577 121.42 142.942 121.844C143.508 122.502 143.791 123.324 143.791 124.311H136.989ZM142.058 123.852C142.005 123.07 141.861 122.467 141.629 122.044C141.432 121.674 141.146 121.36 140.795 121.134C140.465 120.916 140.079 120.8 139.684 120.799C139.021 120.799 138.44 121.089 137.943 121.667C137.445 122.246 137.15 122.974 137.057 123.852H142.058Z" fill="#C80919"/>
<path d="M156.32 130.653L156.355 125.803L156.623 125.814C156.948 127.049 157.335 128.022 157.785 128.732C158.63 130.044 159.692 130.7 160.971 130.7C161.862 130.7 162.598 130.399 163.18 129.796C163.761 129.194 164.052 128.43 164.052 127.506C164.049 127.091 163.985 126.679 163.86 126.284C163.747 125.901 163.572 125.54 163.342 125.215C163.076 124.871 162.756 124.573 162.395 124.334C161.988 124.052 161.366 123.696 160.529 123.265C159.949 122.978 159.384 122.661 158.837 122.314C158.49 122.093 158.172 121.828 157.89 121.526C157.222 120.791 156.887 119.894 156.887 118.837C156.887 118.189 157.019 117.549 157.277 116.956C157.527 116.368 157.897 115.839 158.364 115.406C159.151 114.652 160.199 114.239 161.283 114.255C161.623 114.252 161.963 114.29 162.294 114.366C162.719 114.481 163.135 114.628 163.538 114.807C163.926 114.964 164.189 115.063 164.329 115.106C164.449 115.146 164.574 115.168 164.701 115.171C164.972 115.171 165.154 114.971 165.247 114.572H165.515L165.596 119.235H165.329C165.12 118.492 164.94 117.922 164.789 117.526C164.644 117.144 164.464 116.776 164.249 116.428C163.867 115.817 163.45 115.365 162.996 115.072C162.525 114.774 161.978 114.621 161.422 114.631C160.556 114.631 159.871 114.929 159.368 115.525C159.153 115.778 158.986 116.069 158.875 116.383C158.757 116.699 158.696 117.034 158.695 117.371C158.695 118.68 159.527 119.735 161.191 120.534L162.828 121.334C164.089 121.937 164.998 122.603 165.556 123.333C166.191 124.148 166.508 125.096 166.508 126.178C166.51 126.889 166.363 127.591 166.078 128.241C165.706 129.119 165.072 129.859 164.264 130.356C163.458 130.851 162.509 131.099 161.416 131.1C160.424 131.102 159.443 130.898 158.532 130.501C158.052 130.29 157.766 130.169 157.673 130.139C157.572 130.107 157.466 130.091 157.36 130.092C156.988 130.092 156.732 130.28 156.593 130.656L156.32 130.653Z" fill="#C80919"/>
<path d="M169.602 120.716H174.111V120.975C173.793 121.023 173.564 121.085 173.425 121.162C173.282 121.237 173.164 121.352 173.084 121.493C173.004 121.634 172.965 121.795 172.972 121.957C172.972 122.271 173.13 122.83 173.446 123.635L175.39 128.667L177.087 124.432C177.506 123.377 177.715 122.63 177.715 122.19C177.715 121.838 177.618 121.559 177.424 121.351C177.231 121.144 176.948 121.017 176.576 120.97V120.712H179.901V120.97C179.643 121.033 179.395 121.132 179.163 121.264C178.979 121.391 178.823 121.555 178.703 121.745C178.479 122.09 178.122 122.862 177.634 124.06L174.262 132.329C173.86 133.316 173.534 133.958 173.285 134.256C173.093 134.493 172.849 134.683 172.573 134.811C172.297 134.939 171.996 135.002 171.693 134.996C171.282 134.996 170.95 134.915 170.699 134.755C170.447 134.594 170.321 134.385 170.321 134.126C170.318 134.033 170.336 133.941 170.374 133.856C170.412 133.772 170.469 133.697 170.541 133.639C170.707 133.511 170.912 133.447 171.121 133.457C171.361 133.466 171.597 133.522 171.816 133.622C172.071 133.723 172.236 133.786 172.309 133.81C172.394 133.834 172.482 133.846 172.57 133.844C173.047 133.844 173.438 133.479 173.741 132.748L174.098 131.851C174.253 131.474 174.33 131.183 174.33 130.978C174.33 130.689 174.184 130.185 173.89 129.465L171.481 123.607L171.133 122.762C170.924 122.262 170.761 121.906 170.645 121.695C170.558 121.521 170.44 121.366 170.296 121.237C170.092 121.085 169.851 120.992 169.599 120.967L169.602 120.716Z" fill="#C80919"/>
<path d="M182.847 130.7V127.374H183.034C183.25 128.188 183.521 128.839 183.845 129.326C184.441 130.212 185.137 130.654 185.933 130.653C186.394 130.663 186.843 130.505 187.198 130.207C187.584 129.878 187.777 129.412 187.777 128.809C187.786 128.343 187.639 127.888 187.36 127.518C187.192 127.309 186.995 127.127 186.774 126.977C186.39 126.725 185.993 126.494 185.586 126.284C184.611 125.76 183.961 125.321 183.637 124.968C183.188 124.505 182.938 123.881 182.941 123.232C182.929 122.557 183.18 121.903 183.638 121.411C184.173 120.833 184.883 120.543 185.766 120.543C186.144 120.54 186.519 120.612 186.871 120.755L187.266 120.931C187.369 120.974 187.479 120.999 187.591 121.003C187.739 121.003 187.878 120.886 188.01 120.65H188.243L188.37 123.317H188.123C188.059 123.008 187.968 122.706 187.851 122.413C187.747 122.174 187.609 121.952 187.44 121.755C187.211 121.467 186.927 121.23 186.605 121.056C186.317 120.896 185.995 120.809 185.666 120.804C185.459 120.801 185.253 120.841 185.062 120.923C184.872 121.005 184.7 121.126 184.558 121.279C184.409 121.433 184.291 121.616 184.212 121.817C184.134 122.017 184.096 122.232 184.101 122.448C184.102 122.835 184.249 123.207 184.513 123.488C184.786 123.797 185.21 124.081 185.782 124.339L187.012 124.903C187.747 125.241 188.296 125.66 188.659 126.16C189.022 126.66 189.204 127.252 189.204 127.933C189.204 128.756 188.94 129.437 188.413 129.977C187.809 130.604 187.034 130.917 186.088 130.917C185.554 130.913 185.026 130.809 184.53 130.611C184.189 130.478 183.984 130.402 183.914 130.383C183.827 130.361 183.737 130.351 183.646 130.353C183.521 130.349 183.398 130.379 183.289 130.441C183.18 130.504 183.091 130.595 183.03 130.705L182.847 130.7Z" fill="#C80919"/>
<path d="M195.617 120.716H198.575V121.163H195.621V127.999C195.621 128.822 195.76 129.409 196.038 129.761C196.19 129.961 196.389 130.118 196.617 130.219C196.862 130.33 197.126 130.386 197.394 130.384C197.698 130.395 197.999 130.32 198.263 130.167C198.495 130.022 198.75 129.757 199.028 129.371L199.202 129.524C198.963 129.978 198.587 130.344 198.129 130.57C197.668 130.797 197.092 130.91 196.402 130.91C195.488 130.91 194.821 130.73 194.403 130.37C194.188 130.198 194.033 129.961 193.961 129.694C193.891 129.432 193.856 128.96 193.856 128.279V121.16H192.612V120.972C193.115 120.808 193.581 120.491 194.008 120.021C194.246 119.758 194.454 119.468 194.628 119.158C194.812 118.803 194.961 118.431 195.073 118.048L195.19 117.66H195.623L195.617 120.716Z" fill="#C80919"/>
<path d="M203.388 124.311C203.357 124.696 203.342 124.974 203.341 125.145C203.341 125.821 203.44 126.494 203.637 127.141C203.834 127.792 204.102 128.332 204.442 128.763C204.793 129.201 205.236 129.555 205.739 129.799C206.242 130.043 206.793 130.17 207.351 130.172C207.756 130.174 208.158 130.103 208.538 129.961C208.887 129.835 209.205 129.635 209.469 129.373C209.747 129.099 209.985 128.661 210.185 128.058L210.43 128.14C210.228 129.056 209.796 129.747 209.133 130.213C208.471 130.679 207.589 130.912 206.488 130.912C205.534 130.912 204.716 130.759 204.034 130.454C203.346 130.143 202.749 129.657 202.302 129.044C201.643 128.16 201.314 127.071 201.314 125.779C201.314 124.017 201.938 122.635 203.186 121.633C204.063 120.915 205.161 120.528 206.29 120.54C206.879 120.534 207.463 120.648 208.008 120.875C208.522 121.089 208.98 121.42 209.345 121.844C209.911 122.502 210.194 123.324 210.194 124.311H203.388ZM208.457 123.852C208.403 123.07 208.26 122.467 208.027 122.044C207.831 121.674 207.544 121.36 207.194 121.134C206.864 120.916 206.478 120.8 206.083 120.799C205.42 120.799 204.839 121.089 204.341 121.667C203.844 122.246 203.548 122.974 203.456 123.852H208.457Z" fill="#C80919"/>
<path d="M217.122 120.54C217.26 121.075 217.349 121.622 217.39 122.173C217.856 121.665 218.415 121.254 219.036 120.963C219.632 120.684 220.28 120.539 220.937 120.54C221.665 120.54 222.274 120.728 222.762 121.104C223.057 121.331 223.394 121.726 223.774 122.29C224.363 121.687 224.955 121.245 225.552 120.963C226.158 120.679 226.818 120.534 227.485 120.54C228.416 120.54 229.174 120.796 229.759 121.309C230.344 121.821 230.636 122.492 230.636 123.321V127.298L230.648 128.19C230.648 128.72 230.679 129.11 230.741 129.357C230.796 129.592 230.917 129.806 231.09 129.974C231.314 130.185 231.718 130.345 232.299 130.455V130.701H227.16V130.455C227.625 130.392 227.956 130.304 228.154 130.191C228.352 130.077 228.517 129.884 228.648 129.612C228.734 129.433 228.794 129.161 228.828 128.797C228.863 128.433 228.88 127.911 228.88 127.23V124.988C228.88 124.121 228.853 123.487 228.8 123.088C228.758 122.731 228.652 122.385 228.486 122.067C228.123 121.402 227.497 121.07 226.608 121.07C225.648 121.07 224.952 121.43 224.52 122.15C224.141 122.767 223.952 123.729 223.951 125.035V127.3L223.963 128.191C223.963 128.721 223.994 129.111 224.056 129.359C224.111 129.593 224.232 129.807 224.404 129.974C224.621 130.185 225.024 130.346 225.613 130.455V130.702H220.475V130.455C220.94 130.393 221.271 130.305 221.469 130.191C221.666 130.077 221.831 129.885 221.963 129.613C222.048 129.433 222.109 129.162 222.143 128.798C222.177 128.434 222.195 127.911 222.195 127.231V125.061C222.195 124.145 222.166 123.475 222.109 123.05C222.051 122.625 221.941 122.279 221.778 122.012C221.604 121.727 221.355 121.497 221.058 121.348C220.735 121.185 220.377 121.103 220.015 121.108C219.581 121.106 219.154 121.215 218.773 121.425C218.399 121.625 218.083 121.92 217.857 122.281C217.636 122.634 217.484 123.027 217.41 123.439C217.322 123.888 217.277 124.469 217.277 125.181V127.327L217.289 128.195C217.289 128.726 217.32 129.115 217.382 129.363C217.438 129.6 217.562 129.814 217.74 129.979C217.957 130.19 218.356 130.35 218.937 130.46V130.706H213.798V130.46C214.263 130.397 214.597 130.31 214.801 130.196C215.004 130.083 215.167 129.89 215.289 129.618C215.374 129.438 215.434 129.167 215.469 128.803C215.504 128.44 215.521 127.915 215.521 127.228V124.335C215.521 123.53 215.502 122.966 215.463 122.642C215.439 122.362 215.352 122.091 215.208 121.851C215.096 121.651 214.93 121.487 214.731 121.377C214.545 121.28 214.277 121.219 213.929 121.194V120.948L217.122 120.54Z" fill="#C80919"/>
<path d="M235.787 130.7V127.374H235.973C236.19 128.188 236.46 128.839 236.785 129.326C237.38 130.212 238.076 130.654 238.873 130.653C239.334 130.663 239.782 130.505 240.137 130.207C240.524 129.878 240.717 129.412 240.717 128.809C240.726 128.343 240.579 127.888 240.3 127.518C240.131 127.309 239.934 127.127 239.713 126.977C239.329 126.725 238.933 126.494 238.525 126.284C237.55 125.76 236.9 125.321 236.576 124.968C236.127 124.504 235.877 123.881 235.88 123.232C235.869 122.557 236.119 121.903 236.578 121.411C237.113 120.833 237.822 120.543 238.705 120.543C239.084 120.54 239.459 120.612 239.81 120.755L240.205 120.931C240.309 120.974 240.419 120.999 240.531 121.003C240.678 121.003 240.817 120.886 240.95 120.651H241.182L241.31 123.31H241.066C241.002 123.001 240.91 122.698 240.793 122.406C240.69 122.167 240.551 121.945 240.383 121.748C240.154 121.46 239.87 121.222 239.548 121.049C239.26 120.888 238.938 120.802 238.609 120.797C238.402 120.794 238.196 120.834 238.005 120.916C237.815 120.998 237.643 121.119 237.501 121.272C237.352 121.426 237.234 121.608 237.155 121.809C237.076 122.01 237.038 122.225 237.043 122.44C237.044 122.828 237.192 123.2 237.455 123.48C237.729 123.79 238.153 124.074 238.725 124.332L239.955 124.896C240.69 125.233 241.238 125.652 241.602 126.153C241.965 126.653 242.147 127.244 242.147 127.926C242.147 128.749 241.883 129.43 241.356 129.97C240.752 130.597 239.977 130.91 239.031 130.91C238.497 130.906 237.969 130.802 237.473 130.604C237.132 130.471 236.927 130.395 236.857 130.376C236.769 130.354 236.679 130.344 236.589 130.346C236.464 130.342 236.341 130.372 236.232 130.434C236.123 130.496 236.033 130.588 235.973 130.698L235.787 130.7Z" fill="#C80919"/>
<path d="M2.83116 105.409C82.0613 102.559 170.939 102.534 250.169 105.409C170.939 108.285 82.0605 108.259 2.83116 105.409Z" fill="#35B518"/>
<path d="M67.3879 70.5708C64.7016 76.8012 62.0146 83.0296 59.3268 89.256C58.8594 90.3409 58.3375 91.4004 57.9166 92.5012C57.5258 93.5216 57.223 94.5775 56.9144 95.6269C56.8378 95.8844 56.7484 95.9943 56.4742 96.003C55.4806 96.0341 55.5436 96.0204 55.18 95.0795C54.5658 93.4739 53.8914 91.8908 53.2021 90.3148C50.6017 84.3622 47.9939 78.413 45.3786 72.4671C45.2741 72.2292 45.1804 71.9869 44.9792 71.7591C44.9384 72.3622 44.894 72.9661 44.8568 73.5671C44.665 76.6633 44.4323 79.7579 44.297 82.857C44.1538 86.123 44.1016 89.3935 44.02 92.6617C44.0214 92.94 44.0577 93.2171 44.1281 93.4862C44.3364 94.3736 44.9091 94.8379 45.8855 94.9189C46.3543 94.9579 46.8254 94.9854 47.2957 95.0013C47.5233 95.0086 47.6207 95.0946 47.6157 95.3275C47.6092 95.6168 47.6257 95.9119 47.6335 96.2033C47.6386 96.4145 47.5548 96.4926 47.3308 96.4782C44.244 96.2916 41.1566 96.2677 38.0699 96.4905C37.8552 96.5064 37.6325 96.4905 37.3899 96.4905V94.9522C37.853 94.9522 38.2925 94.9753 38.7299 94.9478C40.1666 94.8574 40.9211 94.1971 41.0958 92.7579C41.3069 91.0222 41.4594 89.2727 41.5969 87.5268C41.7973 85.0454 41.9648 82.5604 42.1438 80.0776C42.3246 77.5666 42.5036 75.055 42.6806 72.543C42.7522 71.5161 42.8238 70.4884 42.8632 69.4599C42.8823 69.0024 42.8506 68.5442 42.7687 68.0938C42.6391 67.3995 42.1738 66.9532 41.5031 66.8043C40.9261 66.677 40.3277 66.6343 39.7357 66.596C39.4594 66.5779 39.3305 66.5237 39.3498 66.217C39.372 65.8597 39.3548 65.5003 39.3548 65.2002H47.2577C48.1024 68.9776 49.8348 72.4678 51.3681 76.0246C53.21 80.2917 55.1392 84.5168 57.0641 88.8358C57.2337 88.441 57.3769 88.1032 57.5236 87.7669C60.1772 81.6861 62.8488 75.6168 65.4695 69.5192C65.9877 68.3158 66.322 67.0321 66.7258 65.7802C66.788 65.5878 66.7666 65.3694 66.783 65.1756H74.9057C74.9057 65.5647 74.9222 66.0037 74.8907 66.4398C74.8849 66.5121 74.6816 66.6191 74.5607 66.6336C74.0803 66.69 73.5871 66.6683 73.1161 66.7638C72.0423 66.9807 71.4253 67.6085 71.3787 68.6998C71.3157 70.1839 71.3186 71.6766 71.3945 73.16C71.6422 78.0519 71.9264 82.9416 72.2163 87.8306C72.3194 89.5663 72.4718 91.302 72.6129 93.032C72.7059 94.1841 73.3946 94.8487 74.5456 94.9261C74.8907 94.9493 75.2386 94.9572 75.58 95.01C75.6867 95.0267 75.8513 95.1626 75.8578 95.2537C75.8885 95.6522 75.8714 96.0551 75.8714 96.5071C75.6638 96.5071 75.4741 96.5187 75.2851 96.5071C71.814 96.2818 68.3321 96.2818 64.861 96.5071C64.5933 96.5237 64.4795 96.4536 64.4938 96.1665C64.5138 95.7694 64.4988 95.3709 64.4988 95.0252C65.3091 94.9637 66.03 94.9616 66.7322 94.8451C67.7852 94.6694 68.3071 94.0778 68.3658 92.9995C68.4123 92.1822 68.3958 91.3585 68.3615 90.5405C68.2448 87.8161 68.0966 85.0924 67.9814 82.3681C67.8382 79.0456 67.7222 75.7223 67.5905 72.3991C67.5662 71.7837 67.5247 71.1696 67.491 70.5535L67.3879 70.5708Z" fill="#082755"/>
<path d="M118.841 96.5006C114.94 96.2726 111.029 96.2895 107.13 96.5512C107.13 96.0652 107.112 95.6515 107.147 95.2422C107.152 95.1699 107.37 95.0794 107.5 95.057C108.066 94.9587 108.671 94.9782 109.195 94.7771C110.178 94.4003 110.438 93.4753 110.516 92.5351C110.653 90.9014 110.775 89.2618 110.802 87.6237C110.857 84.2969 110.837 80.9701 110.862 77.6432C110.882 75.0006 110.927 72.3572 110.95 69.7138C110.952 69.3526 110.922 68.992 110.861 68.6362C110.661 67.4479 109.965 66.8093 108.766 66.6885C108.49 66.6611 108.214 66.6329 107.938 66.6314C107.7 66.6314 107.58 66.5699 107.597 66.2994C107.618 65.9263 107.603 65.5509 107.603 65.1126C107.716 65.1126 107.846 65.104 107.975 65.1126C111.492 65.365 115.007 65.3188 118.523 65.1126C120.899 64.9752 123.176 65.3564 125.348 66.3776C128.325 67.7792 130.215 70.8536 129.975 74.0235C129.772 76.6792 128.466 78.7194 126.37 80.2772C125.812 80.6875 125.226 81.0584 124.617 81.3874C124.285 81.5682 124.288 81.7012 124.477 81.984C125.859 84.0503 127.212 86.1361 128.605 88.1943C129.755 89.8954 130.937 91.5754 132.129 93.2468C132.408 93.6388 132.764 93.9838 133.119 94.3114C133.85 94.984 134.715 95.3572 135.719 95.3478C136.077 95.3478 136.278 95.4577 136.213 95.854C136.21 95.8819 136.21 95.91 136.213 95.9379C136.216 96.6351 136.216 96.6525 135.522 96.6734C134.251 96.7125 132.977 96.8 131.71 96.7378C129.966 96.651 128.483 95.9039 127.435 94.4886C126.576 93.3314 125.831 92.0918 125.058 90.8725C123.467 88.3653 121.884 85.8518 120.31 83.3321C120.161 83.0942 119.999 83.0117 119.702 83.0262C118.21 83.0985 116.715 83.1405 115.22 83.1781C114.988 83.1838 114.858 83.2027 114.863 83.484C114.892 86.2525 114.905 89.0217 114.941 91.7902C114.957 92.1931 115.012 92.5935 115.105 92.9857C115.349 94.1523 115.964 94.7345 117.153 94.9052C117.592 94.9683 118.034 94.9982 118.477 94.9948C118.78 94.9948 118.861 95.1011 118.847 95.3825C118.83 95.7549 118.841 96.1108 118.841 96.5006ZM114.885 80.9361C114.938 80.9559 114.994 80.9697 115.05 80.9773C117.085 81.0106 119.118 81.054 121.152 81.0576C121.481 81.0442 121.8 80.9407 122.075 80.7582C124.652 79.0947 125.854 76.7305 125.68 73.6387C125.489 70.236 123.181 67.7987 119.804 67.4364C118.327 67.278 116.877 67.4364 115.417 67.6005C115.059 67.6403 114.961 67.7712 114.958 68.1176C114.946 70.3018 114.902 72.4859 114.887 74.6708C114.875 76.7551 114.885 78.8402 114.885 80.9361Z" fill="#082755"/>
<path d="M79.2136 96.4355C79.1965 96.3818 79.1843 96.3266 79.1771 96.2706C79.185 95.8822 79.0633 95.3977 79.2487 95.1373C79.3847 94.9464 79.928 95.0433 80.2903 95.0238C81.3991 94.9637 82.223 94.3627 82.417 93.2685C82.6413 92.0675 82.7729 90.8508 82.8107 89.6292C82.888 85.9292 82.888 82.227 82.9246 78.5263C82.9532 75.6189 82.9961 72.7108 83.0212 69.8035C83.024 69.4156 82.9922 69.0283 82.926 68.6463C82.7191 67.4595 82.0197 66.8209 80.8271 66.7008C80.5408 66.6719 80.2473 66.6401 79.9574 66.6401C79.714 66.6401 79.651 66.5359 79.6603 66.3096C79.6753 65.9364 79.6646 65.561 79.6646 65.1213C79.7784 65.1213 79.908 65.1134 80.0368 65.1213C83.5115 65.3781 86.9841 65.2775 90.4609 65.1401C92.7645 65.049 95.0566 65.2067 97.207 66.1967C99.4261 67.2172 100.934 68.8365 101.347 71.3071C101.777 73.8535 101.071 76.0651 99.1169 77.7756C98.2765 78.5111 97.3058 79.094 96.3931 79.7456C96.2865 79.8223 96.1784 79.8903 95.9636 80.0349C96.2614 80.1195 96.4482 80.1796 96.6387 80.2244C97.9852 80.5231 99.2729 80.9701 100.448 81.7106C102.925 83.2721 103.843 85.6052 103.569 88.4207C103.234 91.856 101.226 94.0488 98.1369 95.3347C95.6429 96.3718 93.0237 96.6365 90.3586 96.4962C86.8008 96.3068 83.2438 96.2286 79.6847 96.4391C79.5372 96.4434 79.3869 96.4355 79.2136 96.4355ZM86.8875 87.4429H86.9147C86.9147 89.405 86.9147 91.3664 86.9111 93.3285C86.9111 93.5375 86.9555 93.6482 87.1824 93.7068C89.4903 94.3063 91.8275 94.5197 94.1769 94.0742C96.4468 93.6402 98.1663 92.4389 98.9444 90.1593C99.4598 88.6471 99.4655 87.0936 99.0467 85.556C98.6638 84.1486 97.8141 83.0877 96.5356 82.3789C95.4146 81.7569 94.2048 81.4474 92.9406 81.3107C91.0336 81.1053 89.1252 81.1212 87.2139 81.2138C86.9104 81.229 86.8846 81.3584 86.8853 81.5985C86.8896 83.5464 86.8903 85.4945 86.8875 87.4429ZM86.9154 79.282C89.2526 79.2307 91.534 79.1866 93.8147 79.1171C94.0144 79.1114 94.2356 78.9725 94.4038 78.8438C96.3709 77.3127 97.4153 75.3643 97.2407 72.7926C97.066 70.2208 95.5527 68.2724 93.0594 67.6114C91.2362 67.1283 89.4087 67.3402 87.5782 67.5796C87.1323 67.6374 87.0278 67.8117 87.0249 68.2399C87.0027 71.5667 86.9533 74.8885 86.9168 78.2124C86.9118 78.5299 86.9154 78.8474 86.9154 79.282Z" fill="#082755"/>
<path d="M27.6594 65.1047C28.3581 65.1379 29.0059 65.1611 29.653 65.2001C32.2029 65.3556 34.7498 65.2804 37.2946 65.117C37.6611 65.0931 37.805 65.1582 37.7957 65.5733C37.7714 66.6263 37.7957 66.6263 36.752 66.6907C35.281 66.7811 34.5329 67.474 34.4728 68.9609C34.3561 71.8798 34.2874 74.8002 34.2187 77.7199C34.1507 80.6265 34.1814 83.5375 34.0275 86.4391C33.9173 88.5169 33.4341 90.5419 32.2565 92.3196C30.7891 94.5349 28.6773 95.8461 26.1719 96.5353C22.3958 97.5731 18.6813 97.4292 15.1358 95.6544C11.951 94.0633 10.1163 91.4315 9.52284 87.9159C9.12483 85.5538 9.22505 83.1737 9.2365 80.7965C9.2501 77.15 9.27301 73.5042 9.26442 69.8584C9.25062 69.3019 9.16839 68.7492 9.0196 68.2131C8.77693 67.2657 8.09688 66.7992 7.15841 66.6943C6.82769 66.6567 6.49125 66.6647 6.16625 66.6046C6.0553 66.5844 5.89567 66.4253 5.88564 66.3154C5.77755 65.1011 5.78399 65.1054 6.99448 65.1705C10.2186 65.3452 13.4501 65.3314 16.6727 65.1293C16.8094 65.1206 16.9461 65.1293 17.1358 65.1293C17.1358 65.5632 17.1501 65.9899 17.1229 66.413C17.1179 66.4853 16.9447 66.5916 16.8366 66.6046C16.5911 66.6343 16.3355 66.6046 16.09 66.6206C14.8609 66.6864 14.0434 67.3105 13.7799 68.5168C13.5954 69.3299 13.4968 70.1605 13.4857 70.9946C13.4721 75.3781 13.4743 79.7623 13.5337 84.145C13.5552 85.6681 13.6368 87.2064 14.178 88.6673C15.3548 91.8589 17.7042 93.5527 20.9978 93.9888C22.4896 94.1863 23.9886 94.1335 25.4532 93.7523C28.638 92.9163 30.5528 90.8594 31.137 87.6049C31.5071 85.543 31.4949 83.4485 31.4734 81.362C31.4376 77.9528 31.3703 74.5442 31.2894 71.1356C31.2711 70.2739 31.1948 69.4144 31.0611 68.5631C30.8843 67.4624 30.1742 66.831 29.0732 66.6922C28.7031 66.6459 28.3251 66.6611 27.9558 66.6112C27.8505 66.5974 27.6859 66.4607 27.6787 66.371C27.6422 65.974 27.6594 65.5719 27.6594 65.1047Z" fill="#082755"/>
<path d="M146.819 67.7481C146.735 71.5566 146.654 75.2949 146.571 79.1077C146.893 79.1077 147.178 79.1077 147.463 79.1077C149.527 79.1179 151.592 79.1461 153.655 79.1302C154.472 79.1208 155.288 79.0614 156.098 78.9523C157.477 78.7722 158.078 78.1683 158.308 76.7609C158.361 76.4369 158.47 76.3718 158.765 76.4246C159.051 76.4745 159.338 76.4709 159.691 76.4969C159.678 76.7544 159.678 76.9974 159.652 77.2382C159.409 79.541 159.325 81.8466 159.58 84.153C159.628 84.5768 159.502 84.7171 159.079 84.7229C158.24 84.7352 158.24 84.7561 158.117 83.9534C157.881 82.4346 157.305 81.83 155.78 81.5732C155.208 81.4716 154.628 81.414 154.047 81.4011C151.72 81.3707 149.394 81.3686 147.065 81.3563C146.927 81.3563 146.79 81.3563 146.581 81.3563V81.9117C146.584 85.6826 146.587 89.4535 146.592 93.2244C146.592 93.863 146.606 93.8955 147.261 93.9114C149.695 93.9707 152.134 94.0373 154.572 94.0373C155.526 94.0263 156.478 93.9358 157.417 93.7668C159.493 93.4168 160.853 92.1511 161.666 90.2425C161.81 89.8983 161.915 89.5345 162.07 89.1946C162.114 89.0984 162.298 88.9776 162.378 89.0015C162.812 89.1295 163.233 89.3002 163.688 89.4665C163.551 89.9344 163.42 90.3713 163.294 90.8088C162.793 92.5691 162.276 94.3258 161.797 96.0927C161.707 96.4283 161.583 96.5317 161.244 96.5194C158.739 96.429 156.233 96.3219 153.728 96.2887C151.097 96.254 148.465 96.2706 145.834 96.3104C143.632 96.3436 141.431 96.4319 139.231 96.5223C138.796 96.5396 138.689 96.4073 138.705 95.9878C138.739 95.1424 138.716 95.1416 139.536 95.1199C141.082 95.0722 141.905 94.3244 142.106 92.5785C142.28 91.045 142.377 89.5035 142.397 87.96C142.478 82.2415 142.521 76.5222 142.565 70.803C142.57 70.0964 142.56 69.3797 142.454 68.6832C142.263 67.4298 141.487 66.7811 140.215 66.6936C139.887 66.6712 139.46 66.7464 139.264 66.5692C139.1 66.4246 139.245 65.9631 139.185 65.6551C139.097 65.2001 139.333 65.1893 139.669 65.1965C143.616 65.2848 147.563 65.4207 151.511 65.4309C154.557 65.4381 157.603 65.2927 160.649 65.1958C161.052 65.1828 161.191 65.2681 161.21 65.7021C161.297 67.6613 161.425 69.619 161.552 71.5761C161.573 71.8921 161.468 72.0028 161.169 72.01C160.853 72.0194 160.48 72.172 160.238 72.0498C160.072 71.9645 160.073 71.5226 160.02 71.2355C159.637 69.1555 158.605 68.1205 156.477 67.884C155.076 67.7293 153.66 67.6931 152.253 67.6671C150.647 67.6403 149.039 67.6844 147.432 67.7018C147.224 67.7047 147.02 67.7322 146.819 67.7481Z" fill="#082755"/>
<path d="M247.164 95.0317V96.4181H235.901V95.0136C236.318 94.9912 236.727 94.9724 237.136 94.9471C237.357 94.941 237.577 94.9208 237.796 94.8863C238.732 94.7084 239.173 94.1928 239.049 93.2461C238.936 92.4362 238.753 91.6376 238.504 90.8594C237.901 88.9248 237.246 87.0068 236.621 85.0794C236.544 84.8415 236.452 84.7178 236.167 84.7178C232.773 84.7111 229.379 84.6927 225.985 84.6628C225.508 84.6578 225.245 84.7764 225.08 85.2653C224.343 87.4458 223.555 89.6097 222.812 91.7881C222.684 92.1634 222.665 92.5836 222.625 92.9807C222.513 94.1002 223.076 94.7967 224.192 94.9146C224.646 94.9623 225.106 94.9551 225.56 95.005C225.666 95.0165 225.836 95.1496 225.846 95.2429C225.877 95.6414 225.86 96.0435 225.86 96.4189H215.337C215.337 96.0573 215.318 95.6277 215.352 95.206C215.358 95.1171 215.544 94.9963 215.664 94.9717C216.043 94.8943 216.436 94.8856 216.809 94.7967C217.985 94.5175 218.783 93.774 219.27 92.682C219.852 91.3802 220.465 90.0834 220.993 88.7563C223.832 81.6118 226.658 74.4625 229.472 67.3083C229.717 66.6885 229.937 66.0586 230.208 65.4511C230.274 65.3014 230.49 65.1257 230.641 65.1213C231.665 65.0924 232.691 65.117 233.719 65.0996C234.005 65.0953 234.06 65.2595 234.129 65.4663C235.158 68.5762 236.153 71.6983 237.23 74.7908C238.786 79.2596 240.39 83.7118 241.999 88.1625C242.527 89.6234 243.131 91.0554 243.704 92.5019C243.796 92.7333 243.919 92.9532 244.013 93.1846C244.534 94.4748 245.479 95.0903 246.867 95.0129C246.966 95.0135 247.065 95.0197 247.164 95.0317ZM226.255 82.4093H235.742C234.253 77.9723 232.79 73.612 231.296 69.1605L226.255 82.4093Z" fill="#082755"/>
<path d="M190.046 66.6191V65.1264C190.244 65.1264 190.456 65.122 190.668 65.1264C193.021 65.1828 195.374 65.2645 197.727 65.2869C198.708 65.2963 199.691 65.1929 200.671 65.1155C200.988 65.0902 201.1 65.1777 201.071 65.4967C201.04 65.8417 201.167 66.2922 200.992 66.5092C200.832 66.7016 200.362 66.6466 200.026 66.6791C198.684 66.8093 197.95 67.3966 197.736 68.7309C197.553 69.8698 197.459 71.0213 197.453 72.1749C197.434 79.2719 197.453 86.3689 197.453 93.4667C197.453 93.7603 197.539 93.8442 197.828 93.8471C199.711 93.8659 201.595 93.9563 203.477 93.9151C204.842 93.8854 206.209 93.7256 207.568 93.5535C209.214 93.3495 210.4 92.418 211.187 90.9838C211.511 90.3718 211.79 89.7359 212.019 89.0817C212.142 88.7476 212.28 88.6724 212.592 88.804C212.834 88.9071 213.085 88.9878 213.342 89.0449C213.607 89.1027 213.671 89.2155 213.594 89.4788C212.935 91.7577 212.289 94.0409 211.637 96.3219C211.611 96.3919 211.582 96.4605 211.549 96.5274C204.259 96.2692 196.952 96.1657 189.573 96.5389C189.573 96.1014 189.557 95.7296 189.585 95.3622C189.591 95.2834 189.761 95.1496 189.847 95.1561C191.188 95.2487 191.923 94.4842 192.384 93.348C192.856 92.2009 193.109 90.974 193.13 89.7319C193.214 83.5551 193.268 77.378 193.294 71.2007C193.294 70.3329 193.166 69.4498 192.982 68.5971C192.713 67.3575 191.989 66.7891 190.741 66.682C190.527 66.6697 190.309 66.6452 190.046 66.6191Z" fill="#082755"/>
<path d="M126.5 0L131.843 10.938H121.157L126.5 0Z" fill="#35B518"/>
<path d="M253 41.2629C158.248 -1.90735e-06 92.2935 0.602445 0 41.563C84.3715 7.23441 168.705 7.13436 253 41.2629Z" fill="#C80919"/>
</g>

</svg>
