<svg width="40" height="40" viewBox="0 0 40 40" fill="none" xmlns="http://www.w3.org/2000/svg">
<g clip-path="url(#clip0_218_4493)">
<path d="M28.6963 1.98453C26.0669 0.713125 23.1171 0 20.0007 0C16.8843 0 13.9344 0.713125 11.3051 1.98453L9.56592 20L11.3051 38.0155C13.9344 39.2869 16.8843 40 20.0007 40C23.1171 40 26.0669 39.2869 28.6963 38.0155L30.4355 20L28.6963 1.98453Z" fill="#D80027"/>
<path d="M11.3044 1.98486C4.61453 5.21979 0 12.0705 0 19.9996C0 27.9288 4.61453 34.7795 11.3044 38.0144V1.98486Z" fill="black"/>
<path d="M28.6963 1.98486V38.0144C35.3861 34.7795 40.0007 27.9288 40.0007 19.9996C40.0007 12.0705 35.3861 5.21979 28.6963 1.98486Z" fill="#496E2D"/>
<path d="M19.9999 13.0435C16.1579 13.0435 13.0435 16.158 13.0435 19.9999C13.0435 23.8419 16.158 26.9564 19.9999 26.9564C23.8419 26.9564 26.9564 23.8419 26.9564 19.9999C26.9564 16.158 23.842 13.0435 19.9999 13.0435ZM19.9999 24.3478C17.5987 24.3478 15.6521 22.4011 15.6521 19.9999C15.6521 17.5988 17.5988 15.6521 19.9999 15.6521C22.4011 15.6521 24.3478 17.5988 24.3478 19.9999C24.3478 22.4011 22.4012 24.3478 19.9999 24.3478Z" fill="#FFDA44"/>
<path d="M19.9994 17.3916C19.0389 17.3916 18.2603 18.1702 18.2603 19.1308V21.7394H21.7386V19.1308C21.7386 18.1702 20.96 17.3916 19.9994 17.3916Z" fill="#FFDA44"/>
</g>
<defs>
<clipPath id="clip0_218_4493">
<rect width="40" height="40" fill="white"/>
</clipPath>
</defs>
</svg>
