<svg width="40" height="40" viewBox="0 0 40 40" fill="none" xmlns="http://www.w3.org/2000/svg">
<g clip-path="url(#clip0_218_4500)">
<path d="M39.311 25.2173C39.7594 23.5537 40 21.8051 40 19.9998C40 18.1946 39.7594 16.446 39.311 14.7824L18.2609 0.0759277C14.353 0.412646 10.7668 1.8728 7.82609 4.13226L0.688984 14.7824C0.240625 16.446 0 18.1946 0 19.9998C0 21.7945 0.237734 23.5335 0.681094 25.1883L7.82602 35.8674C10.7667 38.1269 14.3529 39.5871 18.2608 39.9237L39.311 25.2173Z" fill="#FFDA44"/>
<path d="M0.688477 25.2173C1.84566 29.511 4.39605 33.2324 7.82559 35.8674V25.2173H0.688477Z" fill="#0052B4"/>
<path d="M18.2603 39.9237C18.8335 39.9731 19.4133 39.9998 19.9994 39.9998C29.2399 39.9998 37.0154 33.7326 39.3104 25.2173H18.2603V39.9237Z" fill="#0052B4"/>
<path d="M39.3104 14.7826C37.0154 6.26727 29.2399 0 19.9994 0C19.4133 0 18.8335 0.0267187 18.2603 0.0760937V14.7826H39.3104Z" fill="#0052B4"/>
<path d="M7.82559 4.13257C4.39605 6.76772 1.84566 10.4891 0.688477 14.7827H7.82559V4.13257Z" fill="#0052B4"/>
<path d="M39.8307 17.3913H15.6523H15.6522V0.475342C13.8039 0.885186 12.0516 1.54948 10.4348 2.43175V17.3912H0.169297C0.0579688 18.2452 0 19.1158 0 20C0 20.8841 0.0579688 21.7547 0.169297 22.6086H10.4347H10.4348V37.5681C12.0516 38.4503 13.8039 39.1147 15.6522 39.5245V22.6089V22.6087H39.8307C39.9419 21.7547 40 20.8841 40 20C40 19.1158 39.9419 18.2452 39.8307 17.3913Z" fill="#D80027"/>
</g>
<defs>
<clipPath id="clip0_218_4500">
<rect width="40" height="40" fill="white"/>
</clipPath>
</defs>
</svg>
