<svg width="40" height="40" viewBox="0 0 40 40" fill="none" xmlns="http://www.w3.org/2000/svg">
<path d="M20 40C31.0457 40 40 31.0457 40 20C40 8.9543 31.0457 0 20 0C8.9543 0 0 8.9543 0 20C0 31.0457 8.9543 40 20 40Z" fill="#D80027"/>
<path d="M31.305 14.8444H24.0607C24.5079 14.3761 24.7832 13.7422 24.7832 13.0435C24.7832 11.6028 23.6152 10.4348 22.1745 10.4348C21.2668 10.4348 20.4679 10.8986 20.0006 11.6018C19.5333 10.8986 18.7343 10.4348 17.8267 10.4348C16.386 10.4348 15.218 11.6028 15.218 13.0435C15.218 13.7422 15.4932 14.3762 15.9404 14.8444H8.69629C8.69629 16.7654 10.3695 18.3226 12.2904 18.3226H12.1744C12.1744 20.2437 13.7317 21.801 15.6528 21.801C15.6528 22.4232 15.8168 23.0065 16.103 23.5115L13.2179 26.3967L15.4314 28.6101L18.5714 25.4702C18.6944 25.5153 18.8217 25.5515 18.9531 25.5761L17.0557 29.8601L20.0006 33.0435L22.9455 29.8599L21.0481 25.5759C21.1796 25.5513 21.3068 25.5152 21.4297 25.4701L24.5697 28.61L26.7833 26.3965L23.8981 23.5112C24.1844 23.0063 24.3484 22.4229 24.3484 21.8008C26.2694 21.8008 27.8267 20.2436 27.8267 18.3224H27.7108C29.6317 18.3225 31.305 16.7654 31.305 14.8444Z" fill="black"/>
</svg>
