<svg viewBox="0 0 512 556.14" xmlns="http://www.w3.org/2000/svg" xmlns:xlink="http://www.w3.org/1999/xlink"><clipPath id="a" transform="translate(0 44.14)"><circle cx="256" cy="256" r="256"/></clipPath><g clip-path="url(#a)"><circle cx="256" cy="300.14" fill="#002654" r="256"/><g fill="#fff" fill-rule="evenodd"><path d="m289.89 261 10.61 16.9h30.19v58.94l-22.69-35.45-30.48 48.61h19l2.84-5.36h19l21.87 35 21.87-35h19l2.83 5.36h19l-30.5-48.64-22.67 35.45v-32.53h13.6l10.1-16.08h-23.7v-10.3h30.19l10.5-16.9zm18.28 60.75 7.4 11.5-13.17.08zm63.71 1.17 5.92 10.33-12-.07z" transform="translate(0 44.14)"/><path d="m377 363.06 3.9 12.23 12.84-.07-10.43 7.5 4 12.19-10.31-7.61-10.35 7.61 4-12.19-10.43-7.5 12.84.07z" transform="translate(0 44.14)"/><path d="m339.76 391.45 3.9 12.24 12.84-.07-10.43 7.49 4 12.2-10.35-7.61-10.35 7.61 4-12.2-10.37-7.49 12.85.07z" transform="translate(0 44.14)"/><path d="m303.59 363.11-3.9 12.23-12.84-.07 10.43 7.5-4 12.19 10.35-7.61 10.31 7.65-4-12.19 10.43-7.5-12.85.07z" transform="translate(0 44.14)"/><path d="m408.19 279.72 3.91 12.28 12.84-.07-10.43 7.49 4 12.19-10.32-7.61-10.35 7.6 4-12.19-10.43-7.49 12.84.07z" transform="translate(0 44.14)"/><path d="m272.75 279.48 3.9 12.24 12.84-.07-10.43 7.49 4 12.19-10.34-7.6-10.35 7.6 4-12.19-10.37-7.49 12.84.07z" transform="translate(0 44.14)"/></g><path d="m0 0h85.33v266.39h-85.33z" fill="#002654"/><path d="m85.33 0h85.33v266.39h-85.33z" fill="#fff"/><path d="m170.67 0h85.33v266.39h-85.33z" fill="#ce1126"/></g></svg>