<svg viewBox="0 0 512.01 512.01" xmlns="http://www.w3.org/2000/svg"><path d="m512 256c0-1.14 0-2.28-.05-3.43l-354.71 239.68a255.22 255.22 0 0 0 98.76 19.75c141.39 0 256-114.61 256-256z" fill="#0053b5"/><path d="m256 0c-141.38 0-256 114.62-256 256a255.68 255.68 0 0 0 10.63 73.16l404.76-273.49a254.94 254.94 0 0 0 -159.39-55.67z" fill="#0053b5"/><path d="m157.24 492.25 354.76-239.68a256.47 256.47 0 0 0 -5.26-48.66l-383.34 271.09a255.46 255.46 0 0 0 33.84 17.22z" fill="#ffd93d"/><path d="m415.39 55.67-404.76 273.49a254.12 254.12 0 0 0 17.37 43.37l413.77-292.67a259.3 259.3 0 0 0 -26.38-24.19z" fill="#ffd93d"/><path d="m123.4 475 383.3-271.09a255.42 255.42 0 0 0 -64.93-124l-413.77 292.62a257.16 257.16 0 0 0 95.4 102.47z" fill="#d80123"/><path d="m108.44 179.46 37.39-27.16 37.38 27.16-14.28-44 37.39-27.16h-46.21l-14.28-43.9-14.28 43.95h-46.22l37.39 27.16z" fill="#ffd93d"/></svg>