<svg viewBox="0 0 512.01 513.18" xmlns="http://www.w3.org/2000/svg" xmlns:xlink="http://www.w3.org/1999/xlink"><clipPath id="a" transform="translate(0 1.18)"><circle cx="256" cy="256" r="256"/></clipPath><g clip-path="url(#a)"><path d="m0 180.63h512.01v332.54h-512.01z" fill="#da121a"/><path d="m0 0h512.01v181.15h-512.01z" fill="#002488"/><g fill-rule="evenodd"><path d="m242.7 111c8.55.35 18.7-.71 26.76.53v.82c-.71 1.46-4 .82-5.95.82h-20.25c-.44.07-.47-.26-.82-.26 0-.25.11-.27.26-.3z" fill="#fcdd09" transform="translate(0 1.18)"/><path d="m252.44 109.13a178.79 178.79 0 0 0 -4.33-23.79c-2.28-9.43-6.29-17.64-5.41-29.17.52-6.55 4.06-13.86 7.84-18.37 1.21-1.46 3.21-3.76 4.87-3.79 3-.06 6.72 5.67 8.36 8.37a27.94 27.94 0 0 1 4.61 14.06v4.56c-2.15 16.87-7.81 30.22-8.92 48.12z" fill="#fcdd09" transform="translate(0 1.18)"/><path d="m263.51 115.33a19 19 0 0 0 10.27 11.9 32.91 32.91 0 0 1 -14.06-1.35c.85 6 1 15.58-3.23 18.9-5.22-2.83-4.58-11.7-4.05-18.9-4.12 1.46-9.07 1.62-14.32 1.35 4.34-3.14 8.84-6.13 10.54-11.9z" fill="#fcdd09" transform="translate(0 1.18)"/><path d="m245.14 108.84c-.8-5.07-3.72-12.84-7.57-15.93-5.38-4.34-10-.11-7.83 6.75.62 2 2.16 3.09 1.9 4-8.54-3.63-19-8.88-18.1-21.87.64-8.94 9.47-14.56 18.9-9.74 11.13 5.72 15.88 22 17.57 36.74a8.86 8.86 0 0 1 -4.87.05z" fill="#fcdd09" transform="translate(0 1.18)"/><path d="m261.89 108.58c1.51-15.69 8.34-37.1 24.32-38.36a11.57 11.57 0 0 1 10.79 6.2c5.7 12.15-5.87 24.59-16.76 27.29-.42-1.07 1.66-2.33 2.17-4.58 1.53-6.8-2.79-10.12-7.84-6.22-4.2 3.25-6.77 9.73-7.83 15.93-.98.27-4.32.8-4.85-.26z" fill="#fcdd09" transform="translate(0 1.18)"/><path d="m106.28 111c8.54.35 18.7-.71 26.76.53v.82c-.71 1.46-4 .82-6 .82h-20.21c-.44.07-.46-.26-.81-.26 0-.25.1-.27.26-.3z" fill="#fcdd09" transform="translate(0 1.18)"/><path d="m116 109.13a177.29 177.29 0 0 0 -4.34-23.79c-2.28-9.43-6.29-17.64-5.4-29.17.51-6.55 4-13.86 7.83-18.37 1.24-1.46 3.23-3.8 4.91-3.8 3-.06 6.73 5.67 8.37 8.37a27.93 27.93 0 0 1 4.63 14.07v4.56c-2.14 16.87-7.81 30.22-8.92 48.12z" fill="#fcdd09" transform="translate(0 1.18)"/><path d="m127.08 115.33a19 19 0 0 0 10.27 11.9 32.85 32.85 0 0 1 -14-1.35c.84 6 1 15.58-3.23 18.9-5.23-2.83-4.59-11.7-4-18.9-4.12 1.46-9.08 1.62-14.32 1.35 4.33-3.14 8.83-6.13 10.53-11.9z" fill="#fcdd09" transform="translate(0 1.18)"/><path d="m108.71 108.84c-.79-5.07-3.71-12.84-7.57-15.93-5.37-4.34-10-.11-7.83 6.75.62 2 2.17 3.09 1.9 4-8.54-3.63-19-8.88-18.1-21.87.64-8.94 9.47-14.56 18.9-9.74 11.13 5.72 15.89 22 17.57 36.74a8.86 8.86 0 0 1 -4.87.05z" fill="#fcdd09" transform="translate(0 1.18)"/><path d="m125.47 108.58c1.5-15.69 8.34-37.1 24.32-38.36a11.55 11.55 0 0 1 10.8 6.2c5.71 12.15-5.87 24.59-16.76 27.29-.41-1.07 1.67-2.33 2.17-4.58 1.53-6.8-2.78-10.12-7.83-6.22-4.2 3.25-6.77 9.73-7.83 15.93-1 .27-4.34.8-4.87-.26z" fill="#fcdd09" transform="translate(0 1.18)"/><path d="m379.13 111c8.54.35 18.7-.71 26.76.53v.82c-.71 1.46-4 .82-6 .82h-20.21c-.44.07-.46-.26-.81-.26-.05-.25.11-.27.26-.3z" fill="#fcdd09" transform="translate(0 1.18)"/><path d="m388.87 109.13a177.29 177.29 0 0 0 -4.34-23.79c-2.28-9.43-6.28-17.64-5.4-29.17.51-6.55 4.05-13.86 7.84-18.37 1.21-1.46 3.21-3.76 4.86-3.79 3-.06 6.73 5.67 8.37 8.37a27.93 27.93 0 0 1 4.6 14.06v4.56c-2.14 16.87-7.81 30.22-8.92 48.12z" fill="#fcdd09" transform="translate(0 1.18)"/><path d="m399.93 115.33a19 19 0 0 0 10.27 11.9 32.86 32.86 0 0 1 -14.05-1.35c.84 6 1 15.58-3.23 18.9-5.22-2.83-4.59-11.7-4.05-18.9-4.12 1.46-9.07 1.62-14.32 1.35 4.33-3.14 8.83-6.13 10.54-11.9z" fill="#fcdd09" transform="translate(0 1.18)"/><path d="m381.56 108.84c-.79-5.07-3.71-12.84-7.57-15.93-5.37-4.34-10-.11-7.83 6.75.62 2 2.17 3.09 1.91 4-8.55-3.58-19.07-8.83-18.07-21.82.64-8.94 9.47-14.56 18.9-9.74 11.14 5.72 15.89 22 17.58 36.74a8.89 8.89 0 0 1 -4.92 0z" fill="#fcdd09" transform="translate(0 1.18)"/><path d="m398.32 108.58c1.5-15.69 8.34-37.1 24.32-38.36a11.54 11.54 0 0 1 10.8 6.2c5.71 12.15-5.86 24.59-16.75 27.29-.42-1.07 1.66-2.33 2.17-4.58 1.52-6.8-2.79-10.12-7.84-6.22-4.2 3.25-6.77 9.73-7.83 15.93-1 .27-4.34.8-4.87-.26z" fill="#fcdd09" transform="translate(0 1.18)"/><path d="m116.9 245.36a280.73 280.73 0 0 1 32.4 30.05c-13.15-7.67-26.18-15.47-32.4-30.05z" fill="#008000" transform="translate(0 1.18)"/><path d="m207.69 284c-1.14.16-2.06.53-3.22.65-3.88-.84-5.45-4-10.53-3.66 2.71 1.68 6.61 2.13 9 4.08-2.76.43-5.84.88-8.58.21a14.73 14.73 0 0 1 -6.22-4.5h-3a24.37 24.37 0 0 1 -3-3h1.94c-5-4.85-8.21-11.54-11-18.67a199.94 199.94 0 0 1 16.53 19.11c1.58.07 3 .31 4.52.42a64.1 64.1 0 0 1 -10.09-17.81c-.79-2.13-2.39-5-.65-7.09 2.12 1.24 1.79 4 2.58 6s1.85 3.9 2.78 5.78c2.6 5.2 4.92 10.44 9.46 13.52 1.25.4 3 .26 3.85 1.09.23.63-.48.37-.84.42 1.53 1.79 4.43 2.19 6.47 3.45z" fill="#008000" transform="translate(0 1.18)"/><path d="m175.06 317.27a8.67 8.67 0 0 1 2.35 1.5c-3.16 3-4.21 8.21-5.15 13.52h-.42c-.3-6.38.02-12.15 3.22-15.02z" fill="#008000" transform="translate(0 1.18)"/><path d="m183.87 321.13a19.14 19.14 0 0 0 3 .64c-2.93 2.45-4.51 6.21-7.29 8.81-.46-4.2 2.28-6.99 4.29-9.45z" fill="#008000" transform="translate(0 1.18)"/><path d="m344.22 345.6c-4.56-1-8.88-2.15-13.32-3.22 5.19-1.23 10.1.9 13.32 3z" fill="#008000" transform="translate(0 1.18)"/><path d="m327.9 343c25.68 7.79 52.41 14.54 79.42 21-.13 1.44-1.1 2.08-1.08 3.66-27.3-7.76-55.06-15.05-81.79-23.4a8.17 8.17 0 0 1 3.45-1.26z" fill="#008000" transform="translate(0 1.18)"/><path d="m343.78 343c21.67 5.59 44.34 10.18 67 14.81-.21 1.42-1.05 2.23-1.07 3.86-21.2-5.18-42.27-10.53-63.52-15.66-.85-.88-1.48-2-2.37-2.8z" fill="#008000" transform="translate(0 1.18)"/><path d="m323 345c25.77 9.42 52.64 17.75 79.85 25.75-.29 1.29-1.21 1.94-1.3 3.43-26-8.14-50.93-17.31-76.62-25.76-.68-.17-1.09-.63-1.93-.65-.74-.68-2-.84-2.59-1.7a24.69 24.69 0 0 1 2.59-1.07z" fill="#008000" transform="translate(0 1.18)"/><path d="m320 356.76c22.7 12.22 46.59 23.25 70.63 34.13-.25 1.48-1.43 2-1.73 3.45-24.5-12-48.63-24.51-73-36.72a11.38 11.38 0 0 1 4.1-.86z" fill="#008000" transform="translate(0 1.18)"/><path d="m337.55 360.19c18.88 8.25 38.31 15.95 57.74 23.62-.48 1.24-1.42 2-1.7 3.44-18.52-7.61-36.08-16.17-54.53-23.84a25.76 25.76 0 0 1 -1.51-3.22z" fill="#008000" transform="translate(0 1.18)"/><path d="m207.69 284h.42c-.21-1.09-1.58-1.25-2.35-1.71a26.88 26.88 0 0 1 -13.31-20.18c4 8 11.71 13.08 24.47 11.59-5.41-5.4-11.66-11.8-10.74-24.25 2.74 9.92 10.3 15 21.68 16.32-4.43-5.4-8.9-15.77-5.79-26.2 1.11 11.82 8.27 17.2 18 20.61-1.06-3.06-3.08-6.93-3.43-11.59-.46-5.94 1.38-11.31 3.21-15.45-1.47 13.13 5.56 19.43 13.31 24-3-9.58.44-20.89 5.37-26.39 0 2.43-1.27 4.73-1.5 7.3-.77 8.84 5.49 14.61 9.65 19.09-.88-10.92 3.64-17.81 9-23 .55-.53.83-1.51 1.73-1.29-1.43 2.84-3.28 5.3-3.66 8.8-.84 7.59 3.27 13.38 5.8 18q3.24-15.54 15.67-21.91c-2 3.36-5.72 6.89-6.23 12.67-.47 5.51 1.6 10.1 3 14.6 3.64-9 9.88-15.46 19.74-18.25-4.43 3.55-9.31 8.58-9.65 16.74-.14 3 .53 5.85.86 9 4.93-6.39 11.41-13.05 23.18-13.31-9.09 3.44-14 11-14.18 23.4 5.44-5 13.17-10.34 25.34-8.58-5.24 1.69-9.32 3.21-12.45 6.85s-4.55 8.07-6 13.31c6.05-4.58 18.3-7 26.83-3-13-.32-18.32 7.15-22.54 15.68 2.81-.6 5.94-1.9 9.44-2.14 7-.51 13.12 2.21 17.39 4.71-2.8.18-5.49-.85-8.37-.63-8.05.56-13 6.71-16.95 11.58a28.36 28.36 0 0 1 25.76 7.93c-3.19-.6-6.22-2.55-10.1-2.57-7.24-.05-12.79 4.68-17 7.95 9.32.56 15.86 3.9 20.4 9.23v.21c.89.83 1.52 1.92 2.37 2.8a3.77 3.77 0 0 0 .63.84c-.67.25-1.64-1.07-2.56-1.28v-.21c-3.22-2.11-8.13-4.24-13.32-3a6.5 6.5 0 0 0 -3 .65 8.17 8.17 0 0 0 -3.45 1.29 2 2 0 0 0 -1.36.79 24.69 24.69 0 0 0 -2.59 1.07c-.4.09-.52.45-1.07.42a21.89 21.89 0 0 0 3.66 1.28c.84 0 1.25.48 1.93.65 2.1 1.13 4.08 2.36 6 3.65 1.55 1.45 3.06 2.95 4.5 4.51.67 1.25 1.52 2.36 2.15 3.64a25.76 25.76 0 0 0 1.51 3.22c.18.18.13.6.42.65-.42.84-1.37-1.28-2.14-1.5-3.08-3.72-7.44-6.17-14.17-6.22a14.2 14.2 0 0 0 -3.22.42 11.38 11.38 0 0 0 -4.08.86c-1.21-.06-1.84.44-3 .43 7.91 4.69 14.4 10.79 15.89 21.9-4.13-8-11.34-13-24.69-11.81 5.49 5.45 11.82 11.94 10.94 24.47-2.81-9.84-10.18-15.15-21.68-16.31 4.27 5.2 9.32 16.4 5.36 26-.45-12.19-8.33-17-17.6-20.4 1.15 3.18 3.1 7.17 3.45 12 .41 5.67-1.51 10.8-3.23 14.83 1.4-13.19-5.79-19.33-13.52-24.05 3.21 9.84-.15 20.88-5.16 26.4.13-2.74 1.48-5.27 1.51-8.36.06-8-5.53-13.6-9.66-17.83.86 10.95-3.8 17.75-9 23-.47.46-.89 1.57-1.72 1.29 6.49-7.51 2.85-21-2.35-26.83-1.92 10.62-7.44 17.62-15.73 21.82 2.36-3.34 6.07-7.14 6.46-13.31.31-5.12-1.69-9.62-3-13.94-3.84 8.82-9.71 15.61-20 18 7.54-4.41 11.77-13.84 9-25.76-4.82 6.63-11.59 13.19-23.41 13.52 9.2-3.39 14.17-11 14.39-23.38-5.49 4.8-13.68 10.58-25.55 8.37 11.06-1.85 16.26-9.52 18.69-20-5.7 4.19-18.2 7.09-26.83 3 12.94.14 18.44-7.15 22.52-15.88-8 4.05-21.27 2.06-26.6-2.37 0-.19.26-.16.42-.21h.42c10.78 3.32 17.73-3.2 22.77-9 .39-.46 1.34-1 1.07-1.72a33.85 33.85 0 0 1 -9.23.2 19.14 19.14 0 0 1 -3-.64c-2.52-.43-4.35-1.52-6.46-2.36a8.67 8.67 0 0 0 -2.35-1.5 25.09 25.09 0 0 0 -4.29-3.65c1.92 0 4.09 1.63 6.43 1.93a11.92 11.92 0 0 0 4.52.42 15.24 15.24 0 0 0 7.32-1.92 5.48 5.48 0 0 0 2.35-1.29 1.91 1.91 0 0 0 1.29-.86 19.69 19.69 0 0 0 3.87-2.77c.42-.23.91-.37 1.07-.87a35.73 35.73 0 0 1 -14-3.86 23.88 23.88 0 0 0 -3-2.15 48.35 48.35 0 0 1 -3.58-3.6 26.54 26.54 0 0 0 -2.57-3.44c3.84 2.72 12.17 6.87 19.31 3.65a8.93 8.93 0 0 0 3.45-1.3 8.54 8.54 0 0 0 2.35-1.07 8.47 8.47 0 0 0 2.36-1.07 33.67 33.67 0 0 1 -12.66-6.23 31.38 31.38 0 0 1 -7.51-11.37c.09-.32.18 0 .42 0a24.37 24.37 0 0 0 3 3v.23c2.46 2 5.12 3.91 9.23 4.29 2.74.67 5.82.22 8.58-.21.3-.35 1.21-.07 1.51-.42 1.16-.14 2.08-.51 3.22-.66z" fill="#fcdd09" transform="translate(0 1.18)"/><path d="m181.72 277.77a31.38 31.38 0 0 0 7.51 11.37 6.34 6.34 0 0 0 -3.43 1.3c4.41 2.15 9.55 3.59 13.73 6a8.54 8.54 0 0 1 -2.35 1.07v-.21c-3.71-.93-7.7-3-11.17-4.71-.88-.44-2.6-1.71-3.44-.44 3.58 2.37 6.84 5.05 11.16 6.66-7.14 3.22-15.47-.93-19.31-3.65a26.54 26.54 0 0 1 2.58 3.44c-5.29-.09-6.91 3.54-9 6.65 4.24-1 8.32-2.15 12.68-3a23.88 23.88 0 0 1 3 2.15c-5.38 1.47-11.8 1.93-16.95 3.65 0 .88-.37 1.34-.21 2.36 4.76-2.79 11.16-2.57 17-1.07 1.16.3 2.48 1.26 3.65 1.28 3 .05 6-2.32 9.45-1.49a19.69 19.69 0 0 1 -3.87 2.77c-.51.22-1.83.27-1.29.86a5.48 5.48 0 0 1 -2.46 1.24c-2.76-.91-5.06 1-7.3 1.93a11.92 11.92 0 0 1 -4.52-.42 21.48 21.48 0 0 1 5.16-3c-4.31-2.24-12.52-2-15.88.86a59.08 59.08 0 0 0 .63 7.29 47.72 47.72 0 0 1 -2.15-5.8 60.34 60.34 0 0 0 -5.57 5.15c1.15-3.57 5.79-6.05 4.71-11.37-7.38 1.49-13.43 4.3-12.65 13.95-1.2-2.19-2.52-5.36-1.94-8.15 1.15-5.47 10.36-6 14.82-8.16a28.23 28.23 0 0 1 5.15-7.72 18.42 18.42 0 0 1 -3.65-.86c-5.26 3.25-12.68 4-18.88 6.44-2.08.82-3.54 2.25-5.6 2.79.34-4 5.86-5.06 9.46-6.45 3.87-1.48 8.27-3.15 12.66-3.43-6.48-2.55-21.45-3.5-24.68 2.8-.62 1.17-.25 3.14-2.15 4.07-.6-3.14 1.57-5.27 1.71-8.36-1.67-1.08-4.17-.16-6.23.42a20.09 20.09 0 0 0 -7.93 3.87c1.06-6.7 11.69-6.76 19.31-7.3 2.14-.16 5.89-.34 8.6-.23a56.85 56.85 0 0 0 -6-3c-1.77-.88-3.79-2.63-5.8-3.21-4.41-1.27-13.94-1.11-16.73.86-1.85 1.3-2.33 3.71-3 6.43-2.22-9.49 7.57-8.86 14.59-9.86-3-2.25-6.5-5.8-12-6.23a9.39 9.39 0 0 1 2.36-.86c.16-.91-3.06-2.47-2.36-3.21 1.16 1 2.64 1.65 3.85 2.56 2.57-.51 4.57-1.58 7.53-1.7-1.94-1.15-4.73-1.45-6.88-2.37-2 1.1-6.78.5-9.44.86-5.57.77-6.86 5.66-10.51 9-.25-7.92 5.55-12.73 14.8-11.17a210.15 210.15 0 0 0 -22.75-5.57c10.29-.88 19.22 3.22 28.33 4.94-6.55-4.21-13.51-7.95-20.38-11.82 3.42-.49 7.78 2.18 11.14 3.22a56.63 56.63 0 0 0 -7.29-7.08c-2.75-2.15-6.33-3.7-8.16-6.65a81.34 81.34 0 0 1 28.32 20.44 20.73 20.73 0 0 1 4.08 2.36c1.25.81 2.39 2.16 3.64 2.8 2.08 1 4.62.84 7.08 1.91.69.7.09-.63.87-.42 5.45 3.82 12.8 3.55 18 7.09 2.36 1.58 4.35 3.76 6.65 5.36s4.94 2.86 7.3 4.52a11.53 11.53 0 0 1 2.14-.86c-4.87-3.42-10.77-5.83-13.94-11-12.43-1.58-19.3-10.49-26.41-17.6s-14.4-15.25-18.64-25.06c3.73 3.87 6.45 8.64 9.88 12.87s6.68 8.57 11.15 11.59c-2.88-6.34-8.77-11.51-10.07-20.16 9.68 11.41 16.85 25.33 28.53 34.77-5-9.44-15.74-16.17-17.16-29.2.76-.3 1.18.81 1.49 1.28 1.29 2 2.46 4.52 3.87 6.67a166.79 166.79 0 0 0 18.68 23.61 12.13 12.13 0 0 1 1.93-.44c-3.06-4.31-7.74-8.86-9.88-14.8 1.65 0 2.35 1.86 3.21 3 2.68 3.48 6 7.31 8 11.59a53.15 53.15 0 0 1 6-.21c-6.92-4.94-10.58-13.17-14.59-21 2.59 3 5.24 6 7.95 9.23 2.94 3.5 6.26 6.89 7.72 11.8.82.04 2.01-.24 2.54.17zm-42.51-1.29c.9 1 3.73 1.15 5.36.66-2.04-.2-3.69-1.94-5.36-.66zm-8.37 1.94c1 .39 1.53 1.19 2.59 1.49a24.11 24.11 0 0 1 4.07-2.14c-1.21-2.5-4.71.03-6.66.65zm24.47 6.22a24.38 24.38 0 0 1 -5.8-5.8 7.77 7.77 0 0 0 -6 .65 28.61 28.61 0 0 0 11.8 5.15zm-15.66-4.73a41.81 41.81 0 0 1 -4.94.65 6.6 6.6 0 0 0 7.72 1.94 13.41 13.41 0 0 1 -2.78-2.59zm41 1.94c-1-1.29-3.55-2-5.8-1.29 1.77.44 3.97 1.62 5.8 1.29zm-15.89 4.51c-1.66-2.28-5.37-3.65-7.95-4.3 2.69 1.26 4.59 4.43 7.95 4.3zm18.24 2.78a15.89 15.89 0 0 0 3.22-1.93c-4.9-1.37-10.14-3.59-14.17-5.15 2.95 3.07 7.16 4.87 10.95 7.08zm-32.19.21c.07-1.79-3.5-2.93-5.8-2.35 2.04.67 3.45 2 5.8 2.35zm17.6 3.45c-3.23-1.64-6.5-4.38-10.95-4.08 3.43 1.44 6.05 4.82 10.95 4.08zm7.09 1.07c.28-.49 1.05-.51 1.28-1.07-1.7-.44-3.95-1.5-5.59-1.28 1.5.72 2.81 1.65 4.31 2.35zm8.14 1.94c-1.34-.37-2-1.46-3.22-1.94-.53.32-1.18.53-1.49 1.07 1.56.16 3.5 1.06 4.71.87z" fill="#008000" transform="translate(0 1.18)"/><path d="m323.17 356.34c6.73.05 11.09 2.5 14.17 6.22-4.77-2.03-9.58-4.02-14.17-6.22z" fill="#008000" transform="translate(0 1.18)"/><path d="m330.9 352c21.84 9.3 44.87 17.38 67.84 25.54-.39 1.49-1.32 2.41-1.73 3.87-.54-1.32-2.32-1.3-3.42-1.72-8.9-3.22-18.1-7-27.06-10.73-10.31-4.25-20.94-8.47-31.13-12.45-1.4-1.51-2.95-3.02-4.5-4.51z" fill="#008000" transform="translate(0 1.18)"/></g></g></svg>