<?xml version="1.0" encoding="UTF-8" standalone="no"?>
<svg
   xmlns:dc="http://purl.org/dc/elements/1.1/"
   xmlns:cc="http://creativecommons.org/ns#"
   xmlns:rdf="http://www.w3.org/1999/02/22-rdf-syntax-ns#"
   xmlns:svg="http://www.w3.org/2000/svg"
   xmlns="http://www.w3.org/2000/svg"
   viewBox="0 0 400 400"
   height="400"
   width="400"
   xml:space="preserve"
   id="svg2"
   version="1.1"><metadata
     id="metadata8"><rdf:RDF><cc:Work
         rdf:about=""><dc:format>image/svg+xml</dc:format><dc:type
           rdf:resource="http://purl.org/dc/dcmitype/StillImage" /></cc:Work></rdf:RDF></metadata><defs
     id="defs6"><clipPath
       id="clipPath18"
       clipPathUnits="userSpaceOnUse"><path
         id="path16"
         d="M 150,300 C 67.157,300 0,232.843 0,150 v 0 C 0,67.157 67.157,0 150,0 v 0 c 82.843,0 150,67.157 150,150 v 0 c 0,82.843 -67.157,150 -150,150 z" /></clipPath></defs><g
     transform="matrix(1.3333333,0,0,-1.3333333,0,400)"
     id="g10"><g
       id="g12"><g
         clip-path="url(#clipPath18)"
         id="g14"><path
           id="path20"
           style="fill:#006c35;fill-opacity:1;fill-rule:nonzero;stroke:none"
           d="M -75,300 H 375 V 0 H -75 Z" /><g
           transform="translate(208.1203,80.2987)"
           id="g22"><path
             id="path24"
             style="fill:#ffffff;fill-opacity:1;fill-rule:nonzero;stroke:none"
             d="m 0,0 c 0.007,0.003 0.012,-0.004 0.019,0 5.479,-0.268 10.627,-0.052 16.107,-0.319 0.868,-0.738 0.433,-2.429 -0.132,-2.737 -0.025,-0.013 -0.068,-0.031 -0.093,-0.038 -0.022,-0.005 -0.055,10e-4 -0.075,0 -0.022,0 -0.055,-0.005 -0.075,0 -1.782,0.045 -2.813,0.086 -4.594,0.132 -0.004,0.088 -0.013,0.183 -0.038,0.262 -0.422,1.251 -3.48,1.167 -4.2,0.188 C 6.909,-2.527 6.891,-2.555 6.882,-2.569 6.87,-2.589 6.854,-2.624 6.844,-2.644 6.833,-2.67 6.815,-2.711 6.807,-2.738 6.795,-2.775 6.793,-2.83 6.788,-2.869 6.783,-2.914 6.765,-2.972 6.769,-3.019 4.364,-3.308 2.2,-2.939 -0.206,-2.85 -0.912,-1.972 -0.829,-0.382 0.001,0 Z M -2.55,13.556 C -2.555,13.554 -2.564,13.54 -2.569,13.538 -6.125,12.625 -6.015,8.933 -3.731,7.312 c -37.557,0 -95.19,0.638 -107.55,0.638 -6.915,0 -28.792,0.825 -29.213,0.825 4.692,-6.862 11.489,-8.259 20.382,-8.4 16.681,0 93.972,0.206 115.968,0.206 -1.564,-2.777 0.141,-7.244 1.368,-8.063 0.026,-0.016 0.068,-0.043 0.094,-0.056 0.046,-0.022 0.106,-0.045 0.15,-0.056 0.015,-0.004 0.042,0.002 0.056,0 1.456,-0.344 2.097,0.711 2.588,1.481 2.362,-0.208 15.658,-0.4 16.875,0.019 0.004,0.002 0.015,0.017 0.019,0.018 0.822,-1.211 1.64,-2.355 3.206,-2.156 2.741,0.588 4.9,0.887 4.969,6.45 0,0 -0.281,9.482 -6.507,8.888 C 17.201,6.883 13.068,6.468 13.068,6.468 8.285,7.037 4.777,7.095 -0.601,7.293 c 0.497,0.63 1.373,3.182 0.3,4.106 -0.28,0.233 -0.697,0.363 -1.275,0.319 -0.004,0 -0.014,0 -0.018,0 -0.009,10e-4 -0.03,-10e-4 -0.038,0 -0.004,10e-4 -0.015,0.018 -0.019,0.019 -0.015,0.005 -0.041,0.009 -0.056,0.019 -0.029,0.02 -0.067,0.061 -0.094,0.093 -0.006,0.009 -0.031,0.029 -0.037,0.038 -0.272,0.396 -0.421,1.366 -0.6,1.612 -0.002,0.003 -0.017,0.017 -0.019,0.019 -0.002,0.002 -0.016,0.017 -0.019,0.019 -0.006,0.004 -0.031,0.016 -0.037,0.019 h -0.019 c -0.002,-10e-4 -0.016,0 -0.019,0 z m 32.124,65.04 C 29.129,78.582 28.66,78.52 27.98,78.465 c -0.734,-0.156 -0.991,-0.478 -1.125,-1.369 0.053,-1.351 0.879,-1.284 1.725,-1.818 0.49,-0.624 0.809,-1.189 -0.037,-2.213 -0.802,-0.735 -1.373,-1.14 -2.175,-1.875 -0.379,-0.646 -0.614,-1.638 0.543,-1.95 2.139,-0.601 7.088,2.614 7.088,2.681 0.802,0.602 0.536,1.744 0.469,1.744 -0.468,0.535 -1.522,0.213 -2.232,0.3 -0.337,0 -1.445,0.164 -0.918,1.143 0.439,0.61 0.602,0.975 0.9,1.725 0.334,0.735 0.04,1.231 -1.163,1.632 -0.613,0.111 -1.036,0.145 -1.481,0.131 z m -76.896,2.869 c -0.262,0.014 -0.541,-0.027 -0.825,-0.169 -0.055,0 -2.523,-1.669 -3.318,-2.831 -0.485,-0.369 -0.43,-0.69 -0.282,-1.332 0.378,-0.869 1.044,-0.596 1.8,-0.187 1.004,0.137 1.489,-0.52 1.407,-1.725 -0.464,-1.502 0.206,-2.062 0.206,-2.156 0,-0.095 0.966,-0.924 2.1,-0.263 2.394,0.914 3.885,1.803 7.237,2.531 0.88,0.018 0.829,2.373 -0.563,2.457 -1.815,-0.092 -3.49,-0.184 -5.306,-1.613 -1.117,-0.258 -1.308,0.422 -1.556,1.031 -0.284,1.513 0.639,2.579 0.45,3.713 0.05,-0.05 -0.564,0.501 -1.35,0.544 m -120.096,7.374 c -0.149,-0.005 -0.447,-0.45 -0.843,-0.957 -3.525,-5.615 -3.839,-13.998 -1.894,-16.5 1.033,-1.181 2.737,-1.701 3.994,-1.331 2.214,0.96 3.188,5.446 2.662,7.088 -0.739,1.156 -1.325,1.34 -2.062,0.356 -1.559,-3.164 -2.208,-1 -2.344,0.769 -0.239,3.353 0.086,6.441 0.45,8.887 0.194,1.253 0.187,1.692 0.037,1.687 z m 93.564,4.068 c 0.071,0.005 0.133,0 0.206,0 h 0.038 c 2.388,-0.648 5.907,-0.716 8.963,-1.031 2.488,-0.157 3.718,-2.106 1.387,-2.925 -2.299,-0.787 -4.508,-1.402 -4.518,-4.725 0.302,-1.646 0.238,-2.509 -0.019,-2.906 -0.021,-0.03 -0.053,-0.069 -0.075,-0.094 -0.003,-0.003 -0.016,-0.015 -0.019,-0.019 -0.003,-0.003 -0.015,-0.015 -0.019,-0.018 -0.003,-0.003 -0.015,-0.016 -0.018,-0.019 l -0.019,-0.019 c -0.007,-0.003 -0.031,-0.015 -0.038,-0.019 -0.033,-0.02 -0.076,-0.042 -0.112,-0.056 -0.032,-0.01 -0.079,-0.013 -0.113,-0.018 -0.546,-0.08 -1.34,0.441 -1.931,0.75 -1.417,1.018 -5.396,3.483 -5.962,8.775 -0.081,1.194 0.813,2.224 2.25,2.325 z m -38.306,5.232 c -0.931,-0.065 -1.762,-0.563 -1.388,-1.875 -0.056,-0.952 2.632,-2.11 2.794,-4.313 0.384,-0.908 -0.574,-3.817 0.225,-4.087 0.734,-0.303 1.753,2.011 2.138,4.162 0.212,1.179 -0.922,5.302 -2.85,6.038 -0.296,0.063 -0.609,0.096 -0.919,0.075 m 127.986,5.775 c -1.054,-0.13 -2.055,-1.127 -1.594,-2.719 -0.289,-0.935 1.429,-4.207 1.875,-5.944 0.401,-1.236 -0.516,-4.732 0.319,-5.1 0.768,-0.411 2.79,2.076 2.718,5.194 0.223,1.604 -0.572,7.51 -2.587,8.513 -0.232,0.064 -0.488,0.086 -0.731,0.056 z m -150.696,2.358 c 0.581,-0.007 1.194,-0.294 1.519,-1.106 0.292,-0.746 0.013,-1.526 -0.338,-1.913 -0.001,-0.003 0.002,-0.016 0,-0.018 -0.006,-0.009 -0.013,-0.03 -0.018,-0.038 -0.249,-0.32 -1.122,-0.187 -1.744,-0.187 -0.753,0.032 -1.123,0.156 -1.575,0.768 -0.216,0.681 0.441,1.349 0.731,1.857 0.003,0.004 0.016,0.014 0.019,0.018 0.031,0.047 0.082,0.104 0.131,0.15 0.225,0.206 0.614,0.399 1.031,0.45 0.081,0.01 0.161,0.02 0.244,0.019 m -19.2,2.663 c -5.926,-0.109 -14.603,-7.768 -14.831,-12.019 6.252,3.002 12.394,5.893 18.75,9 -1.026,1.531 -0.063,2.911 -3.919,3.019 m 100.146,2.062 c 0.467,0.049 1.079,-0.109 1.668,-0.45 0.854,-0.494 1.38,-1.24 1.313,-1.781 -0.003,-0.015 0.003,-0.042 0,-0.056 -0.004,-0.015 -0.033,-0.043 -0.038,-0.057 -0.004,-0.014 -0.013,-0.043 -0.018,-0.056 -0.004,-0.009 -0.015,-0.029 -0.019,-0.037 -0.004,-0.009 -0.014,-0.03 -0.018,-0.038 -0.028,-0.046 -0.075,-0.094 -0.113,-0.131 -0.411,-0.383 -1.357,-0.329 -2.25,0.187 -0.846,0.49 -1.369,1.241 -1.312,1.782 10e-4,0.014 0.015,0.041 0.018,0.056 0.014,0.067 0.041,0.128 0.075,0.187 0.012,0.021 0.023,0.056 0.037,0.075 0.004,0.004 0.016,0.015 0.019,0.019 0.025,0.029 0.063,0.069 0.094,0.094 0.136,0.106 0.329,0.183 0.544,0.206 m 71.976,1.206 c -0.062,0.011 -0.133,0.007 -0.207,-0.019 0,0 -11.435,-8.135 -11.718,-8.419 -1.134,-1.007 -0.566,-4.553 0,-4.143 0.819,-0.316 12.332,7.487 12.113,8.4 0.502,-0.03 0.743,4.013 -0.188,4.181 z m -82.782,3.394 c -0.446,-0.078 -0.876,-0.444 -1.032,-1.05 -0.097,-0.397 0.191,-1.057 -0.168,-1.257 -0.207,-0.208 -1.008,-0.087 -0.975,1.013 0,0.35 -0.258,0.734 -0.413,0.956 -0.156,0.102 -0.242,0.131 -0.525,0.131 -0.344,-0.014 -0.355,-0.105 -0.544,-0.393 -0.079,-0.295 -0.187,-0.585 -0.187,-0.919 -0.043,-0.392 -0.181,-0.524 -0.469,-0.581 -0.321,0 -0.245,-0.036 -0.506,0.131 -0.155,0.169 -0.356,0.236 -0.356,0.525 0,0.299 -0.06,0.777 -0.15,0.975 -0.137,0.18 -0.372,0.255 -0.619,0.319 -1.348,-0.005 -1.427,-1.536 -1.35,-2.119 -0.101,-0.11 -0.17,-2.875 1.669,-3.638 2.468,-1.177 8.349,-0.484 6.918,3.319 0,0.352 -0.096,1.534 -0.131,1.856 -0.252,0.587 -0.717,0.809 -1.162,0.732 m -20.513,3.225 c -0.032,-0.012 -0.064,-0.04 -0.094,-0.057 -0.014,-0.008 -0.041,-0.027 -0.056,-0.037 -0.241,-0.181 -0.526,-0.6 -1.162,-1.05 -1.074,-1.221 -1.267,-2.071 -1.2,-4.519 0.061,-0.259 2.038,-5.755 3.712,-9.619 1.129,-4.015 2.173,-8.613 1.406,-12.956 -2.643,-5.741 -7.958,-10.89 -13.087,-13.687 -2.613,-0.837 -4.87,-0.552 -5.475,0.018 -0.005,0.006 -0.014,0.015 -0.019,0.019 -1.5,1.01 -1.535,2.806 -1.444,3.113 0,0.001 0.001,0.017 0,0.018 0.005,0.004 0.016,0.016 0.019,0.019 4.329,3.015 9.273,5.455 13.144,13.594 1.143,3.11 1.492,4.978 0.356,9.787 -0.443,1.792 -0.989,3.267 -2.212,4.537 0.003,0.004 0.016,0.016 0.018,0.019 0.737,0.353 2.649,-1.055 2.944,-0.169 -0.452,2.297 -2.007,5.38 -3.769,6.957 -1.542,1.401 -3.219,1.563 -4.631,0.281 -1.59,-0.884 -1.928,-4.062 -1.162,-6.843 0.85,-2.094 3.146,-2.461 4.781,-6.675 v -0.019 c 0.034,-0.264 0.561,-3.145 -0.263,-4.313 -0.668,-2.084 -9.254,-8.855 -9.863,-9.263 -0.006,-0.006 -0.049,-0.031 -0.055,-0.037 -0.004,-0.004 -0.016,-0.015 -0.019,-0.018 -0.002,-0.002 -0.015,-0.016 -0.019,-0.019 -0.002,-0.002 -0.017,-0.017 -0.019,-0.019 -10e-4,0 -0.017,0 -0.018,0 h -0.019 c -0.004,0.003 -0.015,0.015 -0.019,0.019 v 0.019 c -0.003,0.006 -0.015,0.03 -0.019,0.037 -0.025,0.169 0.02,0.6 0,1.293 -0.056,1.269 0.469,4.139 0.432,4.632 v 0.018 c -0.004,0.004 -0.016,0.016 -0.019,0.019 v 0.019 h -0.019 c -2.837,-1.832 -3.775,-7.45 -4.294,-9.113 -7.184,-4.964 -15.343,-8.657 -20.043,-13.687 -2.447,-3.822 16.862,4.389 19.107,5.381 0.019,-0.014 0.038,-0.037 0.056,-0.056 0.426,-0.47 0.463,-2.106 1.744,-3.581 2.006,-2.719 6.273,-4.394 10.425,-3.357 6.961,2.517 10.972,7.262 15.056,12.525 0.583,0.849 1.498,1.518 2.344,0.863 2.806,-6.282 10.896,-10.752 21.356,-11.213 2.42,2.943 1.263,4.391 0.281,5.007 -0.302,0.201 -5.202,2.111 -5.962,4.012 -0.479,1.77 0.685,3.339 3.018,4.519 6.716,0.812 13.318,1.714 19.707,3.769 0.065,2.146 1.328,5.356 2.175,6.75 0.587,0.967 0.965,1.062 1.106,1.2 0.005,0.004 0.014,0.013 0.019,0.018 10e-4,0.003 0.017,0.016 0.018,0.019 0.004,0.003 0.016,0.015 0.019,0.019 v 0.037 c 0.004,0.043 0,0.116 -0.019,0.188 l -1.087,0.637 -21.431,0.094 c -0.265,0.102 -0.462,0.204 -0.582,0.3 -0.009,0.008 -0.029,0.03 -0.037,0.038 -0.004,0.003 -0.015,0.014 -0.019,0.018 -0.003,0.004 -0.016,0.015 -0.019,0.019 -0.003,0.007 -0.016,0.031 -0.018,0.038 -0.002,0.001 -0.017,0.016 -0.019,0.018 v 0.018 c -0.002,0.003 -0.017,0.018 -0.019,0.019 v 0.019 0.019 0.018 0.019 0.019 0.019 0.018 0.019 c 0.004,0.004 0.015,0.015 0.019,0.019 0.004,0.01 0.012,0.027 0.019,0.037 0.104,0.142 0.358,0.274 0.675,0.394 5.117,0.697 14.209,2.188 14.813,10.931 -0.095,4.555 -1.95,7.537 -7.538,8.364 -4.106,-0.318 -7.035,-4.29 -6.562,-8.664 -0.197,-1.177 0.398,-3.488 -0.807,-3.75 -7.877,-0.719 -16.474,-5.654 -16.763,-9.186 h -0.018 c -0.003,-0.004 -0.016,-0.016 -0.019,-0.019 -0.006,-0.003 -0.028,-0.014 -0.038,-0.019 -0.006,0 -0.031,-0.001 -0.037,0 -0.012,-0.004 -0.044,-0.015 -0.056,-0.019 -0.004,0 -0.015,0 -0.019,0 h -0.038 -0.018 c -0.008,0 -0.031,0 -0.038,0 -0.02,0.004 -0.057,0.014 -0.075,0.019 -0.512,0.142 -1.172,0.988 -1.069,2.175 -0.3,6.106 -2.287,13.016 -5.4,18.337 -1.11,1.111 -1.594,1.561 -1.912,1.612 -0.01,0.002 -0.028,0 -0.038,0 h -0.056 c -0.003,0 -0.016,0.001 -0.019,0 h -0.018 c -0.003,0 -0.017,0.001 -0.019,0 z m 96.972,8.081 c -1.211,0.059 -2.501,-0.725 -2.832,-2.381 0.006,-0.977 0.442,-1.514 0.357,-2.4 -0.126,-0.507 -0.648,-0.841 -1.893,-0.244 0.194,0.179 -0.807,1.594 -0.807,1.594 -0.971,0.591 -2.268,-0.033 -3.113,-0.582 -0.464,-0.844 -0.808,-2.291 -0.281,-3.768 1.394,-2.576 6.176,-6.971 8.457,-7.013 0.042,2.322 0.268,5.41 0.394,7.331 0.053,0.725 0.223,1.524 0.918,1.707 0.694,0.181 1.899,-0.699 1.913,0.056 -0.127,1.477 -0.422,3.657 -1.256,4.687 -0.428,0.634 -1.13,0.977 -1.857,1.013 m -117.15,0.544 c -0.304,0.031 -0.703,-0.081 -1.162,-0.357 -2.183,-1.18 -3.028,-4.682 -1.669,-6.731 1.269,-1.805 3.277,-1.144 3.544,-1.144 2.138,-0.267 3.412,4.013 3.412,4.013 0,0 0.064,1.203 -2.475,-1.069 -1.068,-0.2 -1.214,0.186 -1.481,0.788 -0.223,1.113 -0.175,2.242 0.338,3.356 0.236,0.668 0.001,1.092 -0.507,1.144 m 82.872,0.825 c -0.446,-0.078 -0.876,-0.463 -1.031,-1.069 -0.098,-0.397 0.19,-1.038 -0.169,-1.238 -0.206,-0.208 -1.007,-0.086 -0.975,1.013 0,0.35 -0.257,0.734 -0.413,0.956 -0.156,0.103 -0.261,0.131 -0.543,0.131 -0.344,-0.014 -0.337,-0.104 -0.525,-0.393 -0.08,-0.294 -0.188,-0.585 -0.188,-0.919 -0.043,-0.392 -0.18,-0.524 -0.469,-0.581 -0.321,0 -0.264,-0.036 -0.525,0.131 -0.154,0.169 -0.337,0.236 -0.337,0.525 0,0.299 -0.079,0.777 -0.169,0.975 -0.136,0.18 -0.353,0.255 -0.6,0.319 -1.348,-0.005 -1.427,-1.536 -1.35,-2.119 -0.101,-0.11 -0.169,-2.874 1.669,-3.638 2.468,-1.176 7.115,-0.66 6.919,3.319 0,0.352 -0.097,1.534 -0.132,1.856 -0.252,0.587 -0.717,0.809 -1.162,0.732 m -18.15,8.925 c 0.105,-0.47 0.211,-0.944 0.281,-1.425 0.237,-1.039 0.44,-2.072 0.656,-3.094 -0.91,1.253 -1.663,2.266 -1.987,2.625 -2.059,2.447 0.047,1.607 1.05,1.894 m 78.786,1.95 c -1.153,0.04 -2.409,-0.835 -1.912,-2.55 -0.29,-0.936 2.46,-4.114 2.906,-5.85 0.401,-1.237 -0.611,-5.22 0.225,-5.588 0.769,-0.412 1.849,2.752 2.25,5.681 0.222,1.604 -0.966,7.23 -2.981,8.232 -0.155,0.043 -0.323,0.069 -0.488,0.075 m -142.5,3.693 c 0.576,0.059 1.272,-0.47 1.613,-1.218 0.363,-0.798 0.181,-1.561 -0.413,-1.707 -0.593,-0.145 -1.362,0.384 -1.725,1.182 -0.363,0.798 -0.181,1.579 0.413,1.725 0.037,0.009 0.073,0.014 0.112,0.018 m 76.818,2.7 c -1.265,0.038 -2.664,-0.759 -2.119,-2.343 -0.317,-0.865 2.717,-3.796 3.207,-5.4 0.88,-2.465 -0.673,-4.817 0.243,-5.157 0.843,-0.38 2.016,2.545 2.457,5.25 0.508,2.187 -1.052,6.669 -3.263,7.594 -0.17,0.04 -0.344,0.051 -0.525,0.056 m -98.604,0.057 c -0.357,-0.045 -0.753,-0.249 -1.218,-0.357 -1.532,-0.487 -2.965,-1.811 -2.513,-4.387 1.81,-10.999 2.99,-19.394 4.8,-30.394 0.278,-1.288 -0.801,-2.986 -2.194,-2.812 -2.367,1.601 -2.955,4.845 -6.993,4.706 -2.924,-0.035 -6.259,-3.217 -6.675,-6.281 -0.488,-2.436 -0.661,-5.076 0,-7.2 2.055,-2.471 4.516,-2.208 6.675,-1.65 1.774,0.73 3.235,2.479 3.862,2.062 0.002,-0.002 0.017,0.002 0.019,0 0.002,-0.002 -0.002,-0.016 0,-0.019 0.387,-0.676 -0.036,-6.397 -8.363,-10.818 -5.117,-2.298 -9.189,-2.847 -11.381,1.331 -1.358,2.611 0.099,12.555 -3.244,10.257 -9.885,-25.481 23.159,-29.038 26.85,-1.05 0.239,0.789 0.967,1.581 1.481,1.387 0.226,-0.096 0.432,-0.402 0.506,-0.975 -0.766,-25.341 -25.563,-27.078 -29.775,-19.107 -1.043,1.88 -1.357,6.063 -1.462,8.569 -0.191,1.517 -0.572,2.391 -1.013,2.738 -1.004,0.755 -2.355,-1.214 -2.643,-4.632 -0.418,-2.749 -0.3,-3.504 -0.3,-6.15 1.323,-20.015 33.233,-11.415 38.418,5.119 2.567,8.548 -0.052,14.996 0.807,15.788 0.007,0.006 0.029,0.013 0.037,0.018 0.008,0.005 0.029,0.014 0.038,0.019 0.008,0.004 0.028,0.015 0.037,0.018 0.029,0.008 0.079,0.019 0.113,0.019 3.167,-3.412 7.613,-0.434 8.587,0.75 0.418,0.592 1.463,0.972 2.194,0.206 2.471,-1.776 6.801,-0.938 7.706,2.194 0.522,3.063 0.964,6.217 1.069,9.488 -1.61,-0.5 -2.909,-0.875 -3.432,-1.425 -0.124,-0.136 -0.216,-0.288 -0.244,-0.45 -0.139,-0.906 -0.272,-1.814 -0.412,-2.719 -0.015,-0.075 -0.039,-0.144 -0.075,-0.206 -0.068,-0.112 -0.182,-0.214 -0.3,-0.282 -0.569,-0.31 -1.561,-0.133 -1.612,0.694 -0.766,3.481 -3.917,3.933 -5.831,-1.462 -1.289,-1.045 -3.637,-1.248 -3.882,0.318 0.313,3.62 -1.145,4.106 -4.068,2.4 -0.94,7.171 -1.873,14.017 -2.813,21.187 1.218,0.035 2.336,-0.848 3.45,0.544 -1.206,3.749 -3.756,11.378 -5.194,12.094 -0.011,0.005 -0.026,0.014 -0.037,0.018 -0.066,0.079 -0.143,0.151 -0.206,0.207 -0.027,0.022 -0.068,0.055 -0.094,0.075 -0.027,0.018 -0.068,0.041 -0.094,0.056 -0.058,0.032 -0.13,0.057 -0.187,0.075 -0.132,0.037 -0.259,0.054 -0.394,0.037 z m -25.293,0.037 c -0.698,-0.081 -1.354,-0.649 -1.669,-1.406 -0.117,-2.677 -0.133,-5.352 0.169,-7.819 1.217,-4.326 1.603,-8.131 2.193,-12.562 0.164,-5.935 -3.427,-2.568 -3.262,0.375 0.829,3.821 0.605,9.837 -0.131,11.362 -0.585,1.525 -1.261,1.901 -2.682,1.65 -1.128,0.069 -4.041,-3.106 -4.856,-8.362 0,0 -0.678,-2.699 -0.975,-5.1 -0.398,-2.716 -2.197,-4.638 -3.45,0.375 -1.083,3.642 -1.749,12.618 -3.562,10.518 -0.52,-7.009 -1.137,-19.341 4.818,-20.606 7.203,-0.693 3.224,12.176 5.832,14.513 0.492,1.154 1.406,1.174 1.481,-0.282 v -10.931 c -0.066,-3.554 2.272,-4.61 4.087,-5.344 1.889,0.146 3.141,0.094 3.882,-1.743 0.295,-6.302 0.604,-12.619 0.9,-18.919 0,0 4.366,-1.255 4.575,10.631 0.209,6.979 -1.39,12.836 -0.45,14.194 0.033,1.334 1.743,1.4 2.925,0.75 1.882,-1.328 2.717,-2.963 5.643,-2.306 4.452,1.226 7.134,3.387 7.2,6.806 -0.26,3.249 -0.635,6.501 -2.043,9.75 0.196,0.591 -0.853,2.128 -0.657,2.719 0.8,-1.254 2.011,-1.149 2.288,0 -0.758,2.497 -1.938,4.889 -3.844,5.925 -1.575,1.388 -3.881,1.094 -4.725,-1.8 -0.391,-3.336 1.209,-7.289 3.638,-10.519 0.515,-1.262 1.237,-3.361 0.918,-5.25 -1.292,-0.737 -2.574,-0.431 -3.656,0.712 0,0 -3.544,2.654 -3.544,3.244 0.941,6.021 0.202,6.711 -0.318,8.381 -0.365,2.307 -1.458,3.038 -2.344,4.613 -0.887,0.94 -2.09,0.94 -2.663,0 -1.566,-2.715 -0.831,-8.545 0.3,-11.156 0.818,-2.402 2.072,-3.9 1.482,-3.9 -0.487,-1.357 -1.5,-1.042 -2.232,0.525 -1.044,3.237 -1.256,8.062 -1.256,10.237 -0.313,2.697 -0.663,8.457 -2.437,9.918 -0.474,0.645 -1.033,0.87 -1.575,0.807 z m 134.081,0.51 c -0.247,-0.025 -0.549,-0.406 -1.012,-1.388 -1.113,-1.822 -1.869,-4.996 -1.781,-7.968 2.41,-16.688 3.149,-31.292 4.725,-47.982 0.128,-1.613 -0.109,-3.958 -1.182,-4.893 -3.968,-4.144 -9.69,-9.255 -15.918,-11.607 -0.671,-0.752 1.666,-3.959 4.687,-3.956 5.053,0.587 9.494,3.423 13.613,10.894 1.101,1.742 3.037,5.471 3.093,8.362 0.386,16.949 -0.854,30.126 -3.393,42.375 -0.163,1.194 -0.052,2.605 0.15,2.963 0.327,0.391 1.436,-0.009 2.025,0.956 0.863,0.882 -2.307,8.193 -4.107,11.007 -0.359,0.707 -0.581,1.269 -0.9,1.238 z m -86.55,0.037 c -0.853,-0.043 -1.606,-0.287 -2.25,-0.618 -1.636,-1.567 -2.019,-4.077 -0.731,-5.644 1.254,-0.592 2.504,-1.854 1.669,-2.55 -3.545,-3.786 -12.772,-10.114 -13.237,-11.268 -0.004,-0.01 -0.017,-0.03 -0.019,-0.038 -0.001,-0.008 0,-0.03 0,-0.037 0,-0.004 0,-0.016 0,-0.019 0.003,-0.009 0.013,-0.03 0.019,-0.037 0.002,-0.003 0.016,-0.017 0.018,-0.019 0.004,-0.002 0.016,0.002 0.019,0 0.004,-0.002 0.015,-0.018 0.019,-0.019 0.004,-0.001 0.014,0.001 0.018,0 0.002,-0.001 0.018,-0.018 0.018,-0.018 0.47,-0.315 6.244,-0.308 6.882,-0.019 0.006,0.002 0.016,0.016 0.019,0.018 0.002,0.001 0.018,-10e-4 0.019,0 0.001,0.001 -10e-4,0.018 0,0.019 1.985,0.731 11.4,11.494 11.4,11.494 -0.488,0.418 -0.938,0.725 -1.425,1.144 -0.523,0.452 -0.47,0.897 0,1.35 2.332,1.357 1.593,4.342 0.375,5.7 -1.01,0.452 -1.959,0.605 -2.813,0.562 z m -33.112,0.038 c -0.446,-0.077 -0.876,-0.444 -1.031,-1.05 -0.099,-0.397 0.171,-1.057 -0.188,-1.256 -0.206,-0.208 -0.989,-0.068 -0.956,1.031 0,0.35 -0.257,0.716 -0.413,0.937 -0.156,0.103 -0.261,0.132 -0.543,0.132 -0.345,-0.014 -0.337,-0.105 -0.525,-0.394 -0.085,-0.294 -0.193,-0.582 -0.193,-0.918 -0.042,-0.391 -0.199,-0.523 -0.487,-0.581 -0.322,0 -0.245,-0.035 -0.506,0.131 -0.155,0.17 -0.338,0.236 -0.338,0.525 0,0.3 -0.078,0.777 -0.169,0.975 -0.136,0.18 -0.352,0.274 -0.6,0.338 -1.348,-0.005 -1.446,-1.554 -1.368,-2.138 -0.101,-0.11 -0.151,-2.856 1.687,-3.618 2.468,-1.178 7.097,-0.68 6.9,3.3 0,0.351 -0.077,1.534 -0.112,1.856 -0.252,0.586 -0.717,0.808 -1.163,0.731 z m 129.018,0.356 c -0.209,-0.036 -0.517,-0.353 -1.088,-1.106 -1.411,-4.615 -1.907,-8.384 -1.369,-11.25 3.626,-18.92 7.341,-36.158 6.75,-54.168 1.72,-0.012 3.708,3.933 4.557,7.837 0.465,5.378 -0.31,8.651 -0.45,11.813 -0.139,3.161 -3.579,28.808 -4.275,31.2 -0.841,4.522 3.344,0.594 2.887,3.225 -1.447,3.316 -5.057,8.144 -6.187,11.025 -0.425,0.771 -0.477,1.484 -0.825,1.425 z m 52.987,0.281 c -0.248,-0.024 -0.55,-0.424 -1.012,-1.406 -1.114,-1.822 -1.496,-5.086 -1.05,-7.968 2.678,-18.122 4.669,-35.669 5.081,-51.732 -0.231,-1.524 -0.298,-2.335 -1.013,-4.256 -1.581,-2.027 -3.325,-4.569 -4.968,-5.794 -1.643,-1.224 -5.139,-2.392 -6.282,-3.3 -3.626,-2.096 -3.644,-4.506 -0.712,-4.594 5.052,0.588 11.031,1.002 15.15,7.219 1.101,1.743 2.399,6.466 2.456,9.356 0.385,16.949 -0.217,33.52 -2.756,45.769 -0.163,1.194 -0.69,3.936 -0.488,4.294 0.327,0.839 1.98,-0.084 2.568,0.881 0.864,0.882 -4.275,7.462 -6.075,10.275 -0.359,0.707 -0.581,1.288 -0.9,1.256 z m -208.146,0.024 c -1.088,0.031 -2.287,-0.642 -1.819,-1.95 -0.272,-0.711 2.129,-3.12 2.55,-4.443 0.378,-0.942 -0.375,-3.977 0.413,-4.257 0.724,-0.313 1.721,2.101 2.1,4.332 0.209,1.222 0.051,5.405 -2.794,6.263 -0.146,0.033 -0.295,0.051 -0.45,0.056 z m 182.717,0.188 c -0.304,0.047 -0.637,-0.103 -1.012,-0.656 -0.716,-0.628 -1.486,-1.765 -1.463,-3.225 0.175,-2.573 0.633,-5.208 0.807,-7.782 0.061,-0.344 0.126,-0.686 0.188,-1.031 -0.277,0.353 -0.518,0.628 -0.657,0.769 -5.016,5.269 2.305,0.861 -0.956,4.931 -2.758,3.028 -3.564,3.992 -5.925,5.813 -1.184,0.765 -1.899,2.226 -2.288,-0.263 -0.154,-2.187 -0.315,-4.719 -0.169,-6.563 -0.008,-1.024 1.053,-2.952 1.969,-4.087 3.347,-4.111 6.764,-8.485 10.2,-13.05 0.723,-9.31 0.917,-17.843 1.65,-27.169 -0.103,-3.988 -1.33,-9.285 -2.494,-9.787 0,0 -1.775,-1.02 -2.962,0.112 -0.863,0.347 -4.313,5.757 -4.313,5.757 -1.765,1.619 -2.943,1.156 -4.2,0 C 4.413,87.491 2.846,81.223 0.492,76.905 -0.115,75.942 -1.826,75.122 -3.727,76.98 -8.556,83.578 -5.732,92.97 -6.333,90.555 -10.635,85.709 -8.73,77.677 -7.758,75.949 c 1.418,-2.837 2.565,-4.653 5.325,-6.056 2.513,-1.85 4.47,-0.696 5.55,0.6 2.529,2.621 2.562,9.324 3.75,10.65 0.832,2.436 2.919,2.017 3.937,0.937 0.986,-1.418 2.151,-2.34 3.6,-3.112 2.359,-2.081 5.174,-2.459 7.95,-0.563 1.897,1.064 3.127,2.447 4.238,5.175 1.191,3.187 0.602,19.885 0.337,29.175 1.782,-2.51 3.54,-5.074 5.288,-7.668 0.767,-8.155 1.115,-16.186 0.862,-23.888 -0.181,-1.531 5.344,4.572 5.306,7.463 -0.025,2.53 0.005,4.822 0,6.957 2.68,-4.279 5.274,-8.628 7.725,-13.032 1.52,0.805 0.999,9.407 0.038,10.594 -2.567,4.307 -5.854,8.961 -8.4,12.563 -0.503,4.545 -1.188,9.907 -1.5,11.55 -0.486,2.561 -0.972,6.409 -1.706,9.45 -0.202,1.187 -0.81,4.979 -0.619,5.343 0.299,0.849 1.43,-0.027 1.987,0.957 0.834,0.908 -2.89,10.558 -4.781,13.313 -0.68,1.234 -1.909,0.806 -3.431,-1.2 -1.412,-1.322 -0.895,-4.335 -0.356,-7.2 1.399,-7.305 2.649,-14.744 3.637,-22.163 -1.83,2.72 -4.063,6.012 -6.263,9.187 -0.059,0.306 -0.281,1.428 -0.281,1.444 0,0.131 -0.303,5.975 -0.563,7.368 -0.045,0.565 -0.18,0.728 0.413,0.656 0.628,-0.528 0.713,-0.556 1.106,-0.731 0.635,-0.116 1.189,0.957 0.806,1.95 -1.962,3.62 -3.924,7.256 -5.887,10.875 -0.236,0.233 -0.501,0.477 -0.807,0.525 m -70.8,0.731 c -0.626,-0.057 -1.125,-0.423 -1.312,-1.35 -0.25,-2.177 -0.122,-3.361 0.244,-5.175 0.28,-1.209 2.04,-3.232 2.907,-4.406 4.137,-5.562 8.118,-11.15 11.962,-16.931 0.604,-4.293 1.047,-8.493 1.331,-12.675 0.623,-9.171 0.812,-20.586 0.244,-30.244 1.718,-0.067 4.471,2.774 5.438,6.937 0.628,5.759 -0.224,17.508 -0.282,20.907 -0.04,1.411 -0.127,3.094 -0.225,4.856 4.472,-7.307 8.811,-15.049 13.069,-23.55 1.552,0.738 1.208,9.479 0.3,10.706 -3.408,7.337 -8.117,14.578 -9.619,17.363 -0.542,1.006 -2.387,3.813 -4.575,7.05 -0.402,4.619 -0.84,8.532 -1.125,9.713 -0.703,4.883 2.007,-0.55 1.632,2.287 -0.88,4.876 -3.571,8.191 -6.75,12.657 -1.025,1.453 -1.005,1.749 -2.588,-0.356 -0.946,-2.146 -0.933,-3.932 -0.656,-5.606 -0.416,0.604 -0.931,1.321 -1.669,2.212 -2.746,2.356 -2.915,2.484 -5.194,4.406 -0.718,0.51 -2.086,1.295 -3.131,1.2 z m -23.886,0.431 c -0.61,-0.053 -1.287,-0.764 -1.838,-2.137 -0.473,-1.044 -1.051,-6.506 -0.956,-6.506 -0.377,-1.626 1.698,-2.315 2.644,-0.225 1.416,3.831 1.423,5.462 1.518,7.087 -0.221,1.238 -0.758,1.835 -1.368,1.781 m 6.468,0.505 c -0.392,-0.053 -0.872,-0.556 -1.538,-1.763 -0.477,-1.265 -2.535,-3.178 -1.05,-7.125 1.215,-2.502 1.714,-6.569 1.163,-11.1 -0.842,-1.287 -1.034,-1.731 -2.138,-3.018 -1.551,-1.668 -3.23,-1.241 -4.519,-0.619 -1.204,0.811 -2.15,1.228 -2.7,3.806 0.1,4.109 0.339,10.835 -0.412,12.263 -1.107,2.21 -2.933,1.418 -3.713,0.75 -3.748,-3.427 -5.599,-9.214 -6.731,-13.819 -1.04,-3.356 -2.147,-2.385 -2.925,-1.031 -1.894,1.774 -2.026,15.649 -4.312,13.368 -3.662,-10.463 2.1,-21.927 6.093,-20.812 2.88,-1.193 4.709,4.29 5.887,10.293 0.807,1.685 1.424,1.879 1.838,1.013 -0.106,-7.984 0.572,-9.764 2.625,-12.187 4.579,-3.533 8.366,-0.448 8.663,-0.15 0.297,0.297 3.562,3.562 3.562,3.562 0.794,0.835 1.842,0.886 2.963,0.15 1.089,-0.99 0.949,-2.695 3.281,-3.881 1.963,-0.785 6.153,-0.191 7.125,1.5 1.308,2.242 1.626,3.012 2.231,3.862 0.934,1.243 2.532,0.693 2.532,0.3 -0.149,-0.693 -1.088,-1.377 -0.45,-2.625 1.11,-0.832 1.368,-0.297 2.025,-0.112 2.322,1.11 4.068,6.15 4.068,6.15 0.103,1.88 -0.966,1.737 -1.65,1.35 -0.891,-0.545 -0.946,-0.73 -1.837,-1.275 -1.136,-0.169 -3.336,-0.918 -4.425,0.769 -1.112,2.028 -1.119,4.854 -1.969,6.9 0,0.149 -1.486,3.215 -0.112,3.412 0.693,-0.129 2.183,-0.514 2.418,0.731 0.728,1.214 -1.568,4.657 -3.131,6.394 -1.356,1.489 -3.229,1.67 -5.044,0.15 -1.27,-1.169 -1.082,-2.475 -1.331,-3.712 -0.323,-1.422 -0.262,-3.183 1.181,-5.063 1.268,-2.501 3.572,-5.709 2.813,-10.237 0,0 -1.339,-2.155 -3.694,-1.875 -0.981,0.214 -2.581,0.638 -3.431,6.918 -0.643,4.754 0.161,11.413 -1.856,14.532 -0.456,1.176 -0.847,2.319 -1.5,2.231 m -20.438,0.112 c -0.232,0.007 -0.58,-0.123 -1.069,-0.412 -1.096,-0.735 -3.27,-3.001 -3.337,-5.606 -0.066,-1.471 -0.344,-1.465 0.619,-2.4 0.695,-1.003 1.39,-0.905 2.793,-0.169 0.807,0.593 1.079,0.973 1.35,1.968 0.335,1.671 -1.757,-0.79 -2.025,1.069 -0.467,1.726 0.869,2.436 2.138,4.106 0.029,0.787 0.043,1.429 -0.469,1.444 z" /></g></g></g></g></svg>