<svg viewBox="0 0 512 512" xmlns="http://www.w3.org/2000/svg" xmlns:xlink="http://www.w3.org/1999/xlink"><clipPath id="a"><circle cx="256" cy="256" r="256"/></clipPath><g clip-path="url(#a)"><circle cx="256" cy="256" fill="#6cc4ee" r="256"/><path d="m313.76 464.72c-16.47 28.66-32.07 46.28-58.26 46.28a254.27 254.27 0 0 0 157.13-54.1q-5.07 4-10.34 7.67z" fill="#6cc4ee"/><g fill="#5cb1e3"><path d="m422.67 448.64q-4.85 4.19-9.89 8.15 5.06-3.98 9.89-8.15z"/><path d="m504.06 314.59c-.66 2.78-1.36 5.55-2.1 8.29q1.11-4.11 2.1-8.29z"/><path d="m511 255.51q0 6.94-.38 13.8.38-6.85.38-13.8z"/><path d="m492.06 352.08q-2 4.95-4.26 9.79c1.48-3.23 2.91-6.48 4.26-9.79z"/><path d="m496.67 339.9c-1.06 3-2.16 6-3.33 8.93 1.16-2.96 2.28-5.93 3.33-8.93z"/><path d="m510.29 273.66c-.22 3.11-.45 6.22-.78 9.29.33-3.07.56-6.18.78-9.29z"/><path d="m486.85 364a256.5 256.5 0 0 1 -64.13 84.61 256.26 256.26 0 0 0 64.13-84.61z"/><path d="m508.88 287.92c-.36 2.85-.72 5.69-1.18 8.5.46-2.81.83-5.65 1.18-8.5z"/><path d="m506.8 301.47c-.5 2.77-1 5.52-1.62 8.26.59-2.73 1.12-5.5 1.62-8.26z"/><path d="m500.68 327.39c-.84 2.85-1.73 5.69-2.66 8.5q1.4-4.22 2.66-8.5z"/><path d="m507.7 296.43c-.27 1.69-.6 3.36-.9 5 .3-1.64.62-3.31.9-5z"/><path d="m498 335.89c-.44 1.34-.89 2.67-1.35 4 .49-1.33.93-2.66 1.35-4z"/><path d="m502 322.88c-.41 1.51-.85 3-1.28 4.51.4-1.5.82-2.99 1.28-4.51z"/><path d="m505.18 309.72c-.35 1.63-.74 3.26-1.12 4.87.39-1.59.77-3.23 1.12-4.87z"/><path d="m493.34 348.83c-.42 1.09-.84 2.18-1.28 3.26.44-1.09.85-2.17 1.28-3.26z"/><path d="m487.8 361.87c-.32.7-.62 1.41-.95 2.1.32-.69.63-1.4.95-2.1z"/><path d="m509.51 283c-.17 1.67-.42 3.32-.63 5 .21-1.73.46-3.38.63-5z"/><path d="m510.62 269.31c-.08 1.46-.23 2.9-.33 4.35.11-1.45.25-2.89.33-4.35z"/></g><path d="m486.85 364c.32-.7.63-1.41.95-2.11 1.48-3.23 2.9-6.48 4.26-9.78.44-1.08.85-2.17 1.27-3.26q1.76-4.43 3.34-8.93c.46-1.34.91-2.67 1.35-4 .93-2.81 1.82-5.64 2.65-8.5.44-1.49.87-3 1.28-4.5.75-2.75 1.44-5.51 2.1-8.29.38-1.62.77-3.24 1.12-4.87.59-2.74 1.12-5.49 1.62-8.26.3-1.68.62-3.35.9-5 .46-2.81.82-5.66 1.18-8.5.22-1.66.46-3.3.63-5 .33-3.08.56-6.18.78-9.29.1-1.45.25-2.9.33-4.35q.38-6.85.38-13.81c.01-141.15-114.39-255.55-255.5-255.55 75.81 0 96.51 143.7 90.87 280.2l76.33 168.42a256.53 256.53 0 0 0 64.16-84.62z" fill="#6cc4ee"/><path d="m412.78 456.79-.15.11z" fill="#f8fbfb"/><path d="m422.67 448.64.03-.03z" fill="#f8fbfb"/><path d="m354.21 265.25c-.67 16.44-1.95 32.72-3.81 48.56l55.14 147.92h-5.65l2.4 2.84q5.28-3.7 10.34-7.67a1.12 1.12 0 0 1 .15-.11q5.06-4 9.89-8.15z" fill="#fff"/><path d="m399.89 461.73h5.65l-52.45-138.84c-2.23 19-5.15 41.58-9.07 58.84z" fill="#0b0b0b"/><path d="m314.43 464.72 87.86-.15-2.4-2.84-55.88-80c-6.83 30.02-17.6 62.15-29.58 82.99z" fill="#f8d648"/><path d="m69.71 430.79a256.17 256.17 0 0 1 -45.38-66.43 255.92 255.92 0 0 0 45.38 66.43z" fill="#fff"/><path d="m99.18 457.53q-5-3.9-9.85-8c3.21 2.72 6.49 5.41 9.85 8z" fill="#fff"/><path d="m89.3 449.47q-5.05-4.34-9.88-8.93c3.22 3.06 6.5 6.04 9.88 8.93z" fill="#fff"/><path d="m23.65 362.84q-2.4-5.14-4.56-10.4c1.44 3.5 2.97 6.97 4.56 10.4z" fill="#fff"/><path d="m79.2 440.33q-4.78-4.56-9.3-9.34c3.02 3.2 6.1 6.3 9.3 9.34z" fill="#fff"/><path d="m5.88 309.94c-.6-2.75-1.13-5.52-1.64-8.29.51 2.77 1.03 5.54 1.64 8.29z" fill="#fff"/><path d="m1.5 283c-.33-3.08-.56-6.19-.78-9.3.22 3.15.45 6.3.78 9.3z" fill="#fff"/><path d="m.39 269.36c-.25-4.59-.39-9.2-.39-13.85 0 4.65.15 9.26.39 13.85z" fill="#fff"/><path d="m17.89 349.39c-1.21-3-2.37-6.1-3.45-9.19q1.64 4.64 3.45 9.19z" fill="#fff"/><path d="m319.47 464.72-210 .37a254.19 254.19 0 0 0 146.03 45.91c26.19 0 47.5-17.61 63.97-46.28z" fill="#6cc4ee"/><path d="m3.33 296.58c-.45-2.82-.83-5.67-1.19-8.52.36 2.85.73 5.69 1.19 8.52z" fill="#fff"/><path d="m109.44 465.08c-3.49-2.43-6.9-4.95-10.26-7.55q5.04 3.92 10.26 7.55z" fill="#fff"/><path d="m13.11 336.27c-.95-2.84-1.85-5.72-2.7-8.61.85 2.9 1.75 5.76 2.7 8.61z" fill="#fff"/><path d="m9.13 323.16q-1.13-4.16-2.13-8.34 1 4.18 2.13 8.34z" fill="#fff"/><path d="m7 314.81c-.39-1.62-.77-3.24-1.12-4.87.35 1.63.73 3.25 1.12 4.87z" fill="#fff"/><path d="m2.14 288.06c-.21-1.67-.46-3.33-.64-5 .18 1.67.43 3.33.64 5z" fill="#fff"/><path d="m10.41 327.66c-.44-1.49-.87-3-1.28-4.5.41 1.51.87 3.01 1.28 4.5z" fill="#fff"/><path d="m89.3 449.47.01.01z" fill="#fff"/><path d="m14.44 340.2c-.46-1.31-.89-2.61-1.33-3.93.44 1.32.89 2.63 1.33 3.93z" fill="#fff"/><path d="m.72 273.74c-.1-1.46-.25-2.91-.33-4.38.08 1.47.23 2.91.33 4.38z" fill="#fff"/><path d="m4.24 301.65c-.31-1.69-.64-3.37-.91-5.07.28 1.7.6 3.42.91 5.07z" fill="#fff"/><path d="m79.42 440.54-.22-.22z" fill="#fff"/><path d="m19.09 352.44c-.42-1-.8-2-1.2-3.05.4 1.01.78 2.04 1.2 3.05z" fill="#fff"/><path d="m69.9 431-.19-.2z" fill="#fff"/><path d="m24.33 364.36c-.24-.5-.45-1-.68-1.52.23.5.44 1.02.68 1.52z" fill="#fff"/><path d="m0 255.51c0 4.65.14 9.26.38 13.85.08 1.47.23 2.92.33 4.38.23 3.11.45 6.23.78 9.31.18 1.69.43 3.34.64 5 .36 2.85.74 5.7 1.2 8.52.27 1.7.59 3.38.9 5.07.51 2.78 1 5.55 1.64 8.29.35 1.63.74 3.26 1.12 4.88.66 2.79 1.37 5.58 2.13 8.34.41 1.51.83 3 1.27 4.5.85 2.89 1.76 5.77 2.71 8.61.44 1.32.87 2.63 1.33 3.94q1.63 4.64 3.44 9.18c.41 1 .79 2 1.2 3.05 1.44 3.51 3 7 4.56 10.4.24.51.45 1 .69 1.52a256.39 256.39 0 0 0 45.39 66.45l.19.19q4.53 4.78 9.3 9.34l.22.21q4.83 4.59 9.88 8.94l166.2-444.95 105.22 279.47c5.65-136.51-29.41-284-105.22-284-141.1 0-255.5 114.39-255.5 255.51z" fill="#6cc4ee"/><path d="m109.44 465.08.01.01z" fill="#fff"/><path d="m89.31 449.48q4.83 4.15 9.85 8c3.36 2.6 6.77 5.13 10.26 7.55l2.81-3.36h-5.23l148.67-398 101.24 268.89c1.86-15.85 3.13-32.13 3.81-48.57l-105.22-279.46z" fill="#fff"/><path d="m107 461.73h5.26l143.25-206.22 92.16 131.64a520.22 520.22 0 0 0 9.24-54.59l-101.23-268.87z" fill="#151515"/><path d="m255.5 255.51-143.23 206.22-2.82 3.36 210-.37c12-20.84 21.37-47.55 28.2-77.58z" fill="#f8d648"/></g></svg>