<svg viewBox="0 0 512 512" xmlns="http://www.w3.org/2000/svg" xmlns:xlink="http://www.w3.org/1999/xlink"><clipPath id="a"><circle cx="256" cy="256" r="256"/></clipPath><g clip-path="url(#a)"><path d="m256 512c141.38 0 256-114.62 256-256s-114.62-256-256-256-256 114.62-256 256 114.62 256 256 256z" fill="#f0f0f0"/><g fill="#acabb1"><path d="m440.25 200.22-13.81 6.9c2.66-16.89 3.79-42.12-4.93-53.75-10.81-14.42-19.34-15.26-35.92-15.26.24 6.25-1 9.61-1 9.61a59.72 59.72 0 0 0 -8.65-2.4c2.31 6.48.82 21.17-4.1 24.09s-14.59 9-14.59 9l5.69 9.2s11.47-7.08 11.56-7.12c5.56-2.64 5.22-.78 12.61.66 7.61 1.48 15.62-3.3 15.62-3.3s-21.63 18-21.63 39.64 17.4 30.53 23.67 38.56c7.69 9.85 6 25-8.41 25-8-.64-11.44-6-11.63-11.71a10.74 10.74 0 0 1 1.09-3.84 7.75 7.75 0 0 1 7-4.3v-7.21h-.07a14.91 14.91 0 0 0 -11.72 5.63c-5 5.9-6.83 18.85.88 26.48a24 24 0 0 0 17.18 7.08c18 0 28.83-14.41 28.83-28.83 0-11.58-4.64-25.49-4.6-38l16.86 8.43s5.76-4.75 5.76-17.3-5.76-17.3-5.76-17.3zm-55.5-29.55a3.61 3.61 0 1 1 3.6-3.61 3.61 3.61 0 0 1 -3.6 3.61z"/><path d="m70.82 200.22 13.8 6.9c-2.62-16.89-3.78-42.12 4.94-53.75 10.81-14.42 19.34-15.26 35.92-15.26-.24 6.25 1 9.61 1 9.61a59.72 59.72 0 0 1 8.65-2.4c-2.31 6.48-.83 21.17 4.1 24.09s14.59 9 14.59 9l-5.69 9.2s-11.47-7.08-11.56-7.12c-5.56-2.64-5.22-.78-12.61.66-7.62 1.48-15.62-3.31-15.62-3.31s21.63 18 21.63 39.65-17.4 30.52-23.67 38.56c-7.69 9.85-6 25 8.41 25 8-.65 11.44-6.05 11.63-11.71a10.74 10.74 0 0 0 -1.09-3.84 7.73 7.73 0 0 0 -7-4.3v-7.21h.07a14.91 14.91 0 0 1 11.68 5.65c5 5.9 6.83 18.84-.88 26.47a24 24 0 0 1 -17.18 7.09c-18 0-28.84-14.42-28.84-28.83 0-11.58 4.65-25.49 4.61-38l-16.86 8.43s-5.77-4.75-5.77-17.3 5.74-17.28 5.74-17.28zm55.5-29.55a3.61 3.61 0 1 0 -3.6-3.61 3.61 3.61 0 0 0 3.6 3.61z"/><path d="m352.9 402.33v-11.13h-194.25v11.13h-48.56v-44.52h48.56v-11.13h194.25v11.13h48.56v44.52z"/></g><path d="m179.76 115.39c-6 3.11-9.07 7.68-9.56 13.88-.48 6.7 1 11.43 4.82 15 1.72 1.71 3.19 3.35 3.19 3.75a13.52 13.52 0 0 1 -2.94 3.51 18.24 18.24 0 0 0 -6.05 13.23c0 5.06 1.56 8.57 5.72 13.15l3.43 3.75-3.76 4.17c-7.51 8.32-7.26 17.88.58 25.8l3.34 3.51h153.75l3.75-4c7.27-7.76 7.27-16.17.09-25.07l-3.68-4.49 3.43-4.08c7.51-9 7.35-17.23-.41-25.88-3.51-3.84-3.59-4.58-.81-6.37 4.49-3 7.26-13.23 5.22-19.44-3-9.3-16-15.51-23.92-11.43a54.48 54.48 0 0 0 -6.62 4.49c-2.2 1.8-4.24 3.19-4.65 3.19a21.5 21.5 0 0 1 -4.33-3.27c-7.92-6.77-17.23-6.28-25.14 1.39l-3 2.94-4-3.67c-8.08-7.6-18.2-7.27-26.45.73l-3 2.94-3.27-2.94c-4.82-4.41-8-5.71-13.55-5.8a18.76 18.76 0 0 0 -14.21 6.37l-2 2-4.24-3.59c-7.84-6.69-14.13-7.84-21.72-3.84z" fill="#0052b4"/><path d="m175.79 219c-8 8.9-7.92 18 .17 26.94l3 3.35-3.41 3.71a30.64 30.64 0 0 0 -4.57 6.45c-2.62 6.28-.66 14.69 4.49 19.51 3.1 3 3.18 4.25.24 7.84a32.63 32.63 0 0 0 -3.43 4.9c-6.12 11.59 3 26.13 16.58 26.13a16.72 16.72 0 0 0 13.14-5.63c2.94-3.1 4.49-3.18 7.11-.41 3.83 4.25 8.9 6.86 13.14 6.86 5 0 8.08-1.55 13.15-6.37l3.83-3.75 3.51 3.84c7.6 8.16 15.27 8.41 25.48.65l4.16-3.1 3.6 3.26c4.49 3.92 7.83 5.47 12.24 5.47s7.68-1.71 12.82-6.78l4.25-4.08 3.26 2.94c6.29 5.64 9.72 7.43 14.29 7.43 4.74 0 8.09-1.55 12.82-5.79 4.41-4 6.78-8.66 6.21-12.5-.58-4.16-4.33-11.75-7.11-14.37l-2.36-2.28 3.67-4.17c8-9.39 8.08-16.65.16-26l-3.23-3.88 3.4-4.17c7.67-9.06 7.59-17.47-.17-25.71l-4.16-4.29-76.42.08-76.43.08z" fill="#d80027"/><path d="m228.17 150.48c-5.79 12-6 17.37-1.22 27 3.75 7.38 8.16 12.07 14.2 15.07 15.76 7.91 35.92 2.07 43.84-12.69 4.9-9.07 4.32-24.21-1.06-30.82l-1.47-1.77-1.39 5.23c-2 7.45-3.92 11.22-7.84 15.22-7.34 7.45-17.47 9.14-27.92 4.53-8.08-3.61-11.34-8.61-14.36-22.52l-.74-3.46z" fill="#f0f0f0"/><path d="m218.48 251.53a36.88 36.88 0 0 0 .84 10.47 39.47 39.47 0 0 0 -8.14-5.86c-4.23-2.45-9.57-4.8-11.38-1.8s3.26 6.83 7.18 9c4.29 2.41 6.76 2.75 9.55 3.84-2.36 1.25-5.58 2.09-9.16 4.38s-8.74 6.9-6.75 9.87 7.87-.38 11.16-2.58a60.64 60.64 0 0 0 7.79-6.22 67.54 67.54 0 0 0 -1.06 10.43c.07 4.93.76 10.45 4.43 10.44s4.54-6.51 4.48-10.9a53.69 53.69 0 0 0 -1-10.1 75.87 75.87 0 0 0 7.3 6.58c2.67 2.1 9.19 5.21 11.15 2.23s-1.11-6.05-6.8-9.67a50 50 0 0 0 -9.42-4.47c2.63-1.08 5.5-1.36 9.7-3.91 6.24-3.79 8.88-6.32 7-9.59s-5.61-1.43-11.31 2.19a54.1 54.1 0 0 0 -7.85 6.37 72.4 72.4 0 0 0 .88-10.39c0-4.73-1.09-10.85-4.31-10.87s-4.06 5.3-4.22 10.51z" fill="#ffda44"/><path d="m285.14 251.53a36.88 36.88 0 0 0 .86 10.47 39.66 39.66 0 0 0 -8.13-5.86c-4.24-2.45-9.58-4.8-11.39-1.8s3.26 6.83 7.18 9c4.29 2.41 6.76 2.75 9.55 3.84-2.36 1.25-5.58 2.09-9.16 4.38s-8.74 6.9-6.75 9.87 7.87-.38 11.16-2.58a59.94 59.94 0 0 0 7.79-6.22 67.54 67.54 0 0 0 -1.06 10.43c.07 4.93.76 10.45 4.43 10.44s4.54-6.51 4.48-10.9a53.69 53.69 0 0 0 -1-10.1 75.87 75.87 0 0 0 7.3 6.58c2.67 2.1 9.19 5.21 11.15 2.23s-1.11-6.05-6.8-9.67a50 50 0 0 0 -9.42-4.47c2.63-1.08 5.5-1.36 9.71-3.91 6.23-3.79 8.87-6.32 7-9.59s-5.61-1.43-11.31 2.19a54.1 54.1 0 0 0 -7.85 6.37 72.4 72.4 0 0 0 .88-10.39c-.05-4.73-1.09-10.85-4.31-10.87s-4.06 5.3-4.22 10.51z" fill="#ffda44"/><path d="m226.74 267.25a5 5 0 1 1 -5-5 5 5 0 0 1 5 5" fill="#ffda44"/></g></svg>