<svg viewBox="0 0 512 514.35" xmlns="http://www.w3.org/2000/svg" xmlns:xlink="http://www.w3.org/1999/xlink"><clipPath id="a" transform="translate(0 2.35)"><circle cx="256" cy="256" r="256"/></clipPath><g clip-path="url(#a)"><path d="m512 514.35h-512" fill="#009543"/><path d="m0 0h512v342.9h-512z" fill="#ed4135"/><path d="m0 0h512v171.45h-512z" fill="#0035ad"/><path d="m0 342.9h512v171.45h-512z" fill="#009543"/><circle cx="256" cy="254.92" fill="#fae600" r="142.41" stroke="#000" stroke-width="5"/><path d="m231.86 273.82h48.28m-48.28-35.73h48.28m-24.14-127.47v243.38" stroke="#000" stroke-width="6" transform="translate(0 2.35)"/><path d="m198.66 383.34c58.12 23.74 112.6 1.46 112.6 1.46s-20.56-22.26-31.11-30.95c-10.28-8.47-40.54-8.14-50.87 0-8.62 6.8-33.28 31.84-30.62 29.49z" transform="translate(0 2.35)"/><ellipse cx="256" cy="320.58" rx="15.93" ry="23.18"/><ellipse cx="256" cy="258.3" rx="19.31" ry="12.23"/><circle cx="256" cy="201.81" r="19.31"/><path d="m279.18 127.52s1.67 2.77-1.85 9.11c-16.83 30.31-33.72 31-36.92 33.57-3.53 2.88-5 2.68-5 2.68.25-2.59.48-13.21.67-14.23 2.55-14.16 23.94-14 40.68-28.46 2.62-2.27 2.43-2.68 2.43-2.68z" transform="translate(0 2.35)"/><path d="m222.69 192.7a90.09 90.09 0 0 1 4.31 21.73c.9 17.38 17.56 17.86 29 17.86v-9.65c-8.55 0-16-1.27-22.21-14-3.07-6.28-11.1-15.94-11.1-15.94z" transform="translate(0 2.35)"/><path d="m222.2 332.72s6.08-7.5 13.19-25.08c3.72-9.17 12.51-14.51 20.61-14.51v-13.52c-18.37 0-27.18 6.81-28.11 16.77a291.93 291.93 0 0 1 -5.69 36.34z" transform="translate(0 2.35)"/><path d="m289.31 192.7a90.09 90.09 0 0 0 -4.31 21.73c-.9 17.38-17.56 17.86-29 17.86v-9.65c8.55 0 16-1.27 22.21-14 3.07-6.28 11.1-15.94 11.1-15.94z" transform="translate(0 2.35)"/><path d="m289.8 332.72s-6.08-7.5-13.19-25.08c-3.72-9.17-12.51-14.51-20.61-14.51v-13.52c18.37 0 27.18 6.81 28.11 16.77a291.93 291.93 0 0 0 5.69 36.34z" transform="translate(0 2.35)"/></g></svg>