<svg viewBox="0 0 512 512" xmlns="http://www.w3.org/2000/svg" xmlns:xlink="http://www.w3.org/1999/xlink"><clipPath id="a"><circle cx="256" cy="256" r="256"/></clipPath><linearGradient id="b" gradientTransform="matrix(-.6 -1.51 1.21 -.75 -795.23 -3022.62)" gradientUnits="userSpaceOnUse" x1="-2154.28" x2="-2145.75" y1="-59.58" y2="-59.58"><stop offset="0" stop-color="#d5dfff"/><stop offset="1" stop-color="#fff"/></linearGradient><g clip-path="url(#a)"><path d="m256 0v256h-256a256 256 0 1 0 256-256z" fill="#2a5f9e"/><path d="m85.33 85.33h179.2v179.2h-179.2z" fill="#2a5f9e"/><path d="m144.21 52.05v50.35h-62.29l122.88 153.6h51.2v-64z" fill="#fff"/><path d="m76.8 144.21h-51.2a259 259 0 0 0 -25.6 111.79h102.4v-154.45h-25.6z" fill="#fff"/><path d="m256 214.19-110.93-137.39h-51.2l145.06 179.2h17.07z" fill="#ed4c5c"/><path d="m144.21 25.6v51.2h-67.41v25.6h179.2v-102.4a259 259 0 0 0 -111.79 25.6z" fill="#fff"/><path d="m256 25.6h-111.79a257.75 257.75 0 0 0 -118.61 118.61v111.79h51.2v-179.2h179.2z" fill="#ed4c5c"/><path d="m363.52 338.77c-5.12 5.12-15.36 10.24-22.19 5.12-9.38 1.71-4.26 4.27-12.8-1.7-6 1.7-7.68 1.7-16.21-1.71-4.27 7.68-9.39 9.39-16.21 4.27.85-1.71 2.56-3.42 3.41-5.12 0 3.41-13.65 2.56-14.51 2.56 7.68-24.75 39.26-45.23 57.18-62.3 8.53 15.36 31.57 40.11 21.33 58.88" fill="#6a4c2d"/><path d="m399.36 341.33h12.8l-6-2.56 50.34-2.56-6.82-2.56-6.83-8.53-30.72-2.56-2.56-4.27-16.21-1.7-9.36 6.82 6.83 17.07z" fill="#fff"/><path d="m399.36 248.32c.85-.85 4.27-1.71 3.41-6 0-4.27-4.26-5.12-6.82-5.12a6.55 6.55 0 0 0 -4.27 1.7l-7.68-4.23s3.41-23 7.68-24.75c3.41-2.56 4.27-4.27 4.27-4.27l-1.71-2.56-23.89-2.56-23 2.56s-1.71 2.56-1.71 3.42 0 2.56 4.27 5.12c4.26 3.41 7.68 23 7.68 23l-6.83 2.56a19.26 19.26 0 0 0 -3.41-.86c-.86 0-4.27 1.71-4.27 6a9.21 9.21 0 0 0 3.41 6.82s22.19-2.56 24.75 3.42c4.27-5.12 25.6-2.56 28.16-4.27" fill="#656263"/><path d="m422.4 224.43c1.71-5.12 5.12-5.12 10.24-5.12 10.24 0 9.39 3.41 12.8 11.94 4.27 11.95 11.95 23.9 12.8 37.55.85 14.51.85 34.13-6 46.93-5.12 9.39 6 11.95 12.8 15.36l-5.12-1.7 5.12 4.26-6-2.56 3.42 3.42-8.46-4.27 3.42 3.41-6.83-3.41c.85 1.71 2.56 2.56 3.41 4.27a40.14 40.14 0 0 0 -6-2.56v1.7c-6.83-5.12-17.07-6-19.63-13.65-3.41-8.53-10.24-21.33-9.38-30.72 2.56-19.63 8.53-45.23 3.41-64.85" fill="#3e4347"/><path d="m358.4 321.71-2.56 8.53 3.41-4.27v8.54l2.56-4.27v10.24l2.56-5.12v9.39l2.56-4.27 1.71 8.53 2.56-6 3.41 6.83.86-5.12 5.12 6v-6l6 5.12v-3.42l6 2.56v-3.38l6.83 1.71-4.33-4.31h4.27l-6.83-4.27h3.47l-6-5.12h4.27l-6.83-5.12 3.42-.85z" fill="#00713d"/><path d="m340.48 250.88h18.77s11.95 0 13.66 4.27c2.56-5.12 12.8-5.12 12.8-5.12 6 0 12.8-.86 18.77-.86v46.08c-3.41 17.92-17.07 30.72-30.72 35.84-17.07-5.12-28.16-19.62-31.57-35.84 0-15.36-.86-29.86-1.71-44.37" fill="#fff"/><path d="m347.31 250.88 26.45 71.68 23.89-73.39c-7.68.86-23.89-.85-25.6 6-2.56-6.83-19.62-4.27-24.74-4.27" fill="#006b00"/><path d="m358.4 134.83 15.36-12.83 2.56-9.39-3.41 1.71-.86-4.27-.85-.85-.85 1.7-1.71-3.41-2.56 3.41 4.27 8.54-4.27 6.82-1.71-4.26 1.71-5.12-2.56.85v-5.12l-3.41 3.41-.86-.85 3.42 10.24-2.56 3.41-4.27-11.09-.85 2.56-1.71-1.71.85 6h-1.7l2.57 3.42-2.56 3.41 5.12-1.7-1.71 3.41z" fill="#cdad56"/><path d="m346.45 134.83-13.65-12-.85-8.53 1.7 1.7 1.71-4.26 1.71 2.56 2.56-3.42 1.7 2.56-5.12 7.68 3.42 6 1.7-4.27-2.56-3.41h3.42v-4.24l2.56 2.56 1.7-2.56-4.26 11.09 1.7 2.56 3.42-8.53 1.69 1.68 1.71-1.71-.85 5.12h1.7l-.85 3.41.85 2.56-4.26-1.7.85 3.41z" fill="#cdad56"/><path d="m394.24 261.12-2.56-3.41 3.41-4.27-5.12.85-.85-5.12-2.56 6.83-5.12-2.56 3.41 4.27-9.38 6.82 2.56.86-3.42.85.86 1.71-2.56.85 1.7.85h-6.82v-5.12h6.82l-3.41-6.82-2.56 1.7-1.71-2.56-6 1.71 3.41-4.27-5.12 2.56-.85-6-.85 5.12-5.12-.85 4.26 3.41-3.41 4.27 4.27-1.71 1.7 5.12.86-3.41 2.56 1.7h.85l.85 17.07-1.7 3.41.85-.85 2.56 6 .85-5.12 4.27-1.7 2.56-.86 1.71.86.85 5.12-4.27 6h-5.12l-1.7 2.56 5.12-2.56v2.57l2.56-2.56v1.71l1.7-.86-4.26 11.95 4.26-3.41v5.12l1.71-3.42 1.71-1.7.85 1.7v-4.26l1.71.85-1.71-6 2.56 1.7-1.71-7.68 6.83-3.41v-3.41h-2.53l1.71-3.42.85-5.12v-1.7l2.56.85-1.71-2.56 3.42-1.71h-1.71l4.27-4.26-11.1 7.68-.85 14.5-3.44-16.22 1.7 2.56 1.71-6.83 3.41.86-1.7-2.56 1.7.85-2.56-1.71 3.42-.85-3.42-2.56 4.27-1.71v5.12l1.71-5.12zm-27.31 18.77.86-6 6.82-.85-7.68 6.82" fill="#ffc900"/><path d="m314 399.36c2.56-.85 17.06 3.41 23 9.39a62.63 62.63 0 0 0 -4.2-18.75s-8.53-2.56-10.24-1.7c-1.71 1.7-6.83 7.68-8.53 11.09" fill="#ed4c5c"/><path d="m308.91 349.87c-.86 0-1.71.85-3.42 2.56-.85 2.56-1.7 10.24-3.41 11.94s-3.41 1.71-3.41 3.42 0 5.12 5.12 6.82c4.26 0 11.94-7.68 11.94-7.68a39.55 39.55 0 0 0 5.12-8.53c-8.53 2.56-14.5-5.12-11.94-8.53" fill="#ed4c5c"/><path d="m438.61 397.65c-2.56-.85-17.92 3.42-23 9.39a62.61 62.61 0 0 1 4.27-18.77c.85 0 8.53-2.56 9.39-1.71 1.7 1.71 6.82 7.68 9.38 11.09" fill="#ed4c5c"/><path d="m442 348.16c.85 0 1.7 1.71 2.56 3.41.85 2.56 2.56 6.83 4.26 8.54s3.42 4.26 3.42 6 0 3.41-5.12 5.12c-4.27 0-11.1-6-11.1-6a40.2 40.2 0 0 1 -5.12-8.54c8.54 3.42 14.51-5.12 11.1-8.53" fill="#ed4c5c"/><path d="m429.23 370.35a43.37 43.37 0 0 1 6-5.12s-4.27-5.12-5.12-8.54c8.53 4.27 19.63-9.38 6.83-10.24-8.54.86-16.22 7.68-21.34 16.22a92.12 92.12 0 0 0 -81.92.85c-5.12-8.53-11.94-15.36-20.48-15.36-12.8.85-.85 14.51 6.83 10.24-.85 3.41-5.12 8.53-5.12 8.53s2.56.86 6 4.27a75.43 75.43 0 0 0 -17.98 18.8s9.39 6 9.39 9.39c4.27-6 9.39-11.95 16.21-16.21 3.42 6 6 14.5 7.68 26.45 0 0 5.12-13.65 7.68-13.65 1.71 0 0-9.39-4.26-18.78 20.48-10.24 46.93-11.94 69.12-1.7-4.27 9.38-5.12 17.92-4.27 20.48 2.56 0 8.53 11.94 8.53 11.94q2.57-16.63 7.68-25.6a91.42 91.42 0 0 1 16.22 15.36 43.65 43.65 0 0 1 9.38-8.53c-4.26-7.68-10.24-13.65-17.06-18.77" fill="#ffce31"/><g fill="#1e5aa6"><path d="m398.51 249.17h3.41l-6.83 8.54 7.68 9.38-15.36 19.63 14.51 17.07c-1.71 4.26-3.41 7.68-6 10.24l-8.54-9.39 15.36-18.77-11.94-13.66 7.68-23"/><path d="m346.45 250.88h-4.26l6.82 7.68-7.68 9.44 16.22 17-12.8 17.92a64.31 64.31 0 0 0 6 11.1l7.68-10.24-16.21-17.92 11.94-15.36-7.68-19.63"/><path d="m364.37 297-6 7.68 20.48 23.89a88.74 88.74 0 0 0 9.39-6l-10.24-11.96 4.26-12.8 6 6.83-19.63 24.75a64 64 0 0 1 -10.24-6l10.24-12.8z"/><path d="m358.4 285.87 3.41 4.26-2.56-6z"/><path d="m384.85 289.28 3.42-3.41-1.71-1.71z"/></g><path d="m422.4 234.67c1.71 0 12 0 12 1.7-4.27 1.71-6.83 4.27-9.39 8.54 2.56 4.26 5.12 7.68 7.68 11.94.85 8.54-11.09 17.07-10.24 29.87.85 9.39.85 18.77 8.53 24.75 9.39 8.53 5.12-17.92 6-20.48 0-1.71 9.38 8.53 9.38 11.94-.85 9.39-4.26 4.27-4.26 6.83-2.56 9.39-2.56 15.36-11.1 15.36-11.94-6.83-23-75.09-8.53-90.45" fill="#f5f5f5"/><path d="m387.41 218.45s9.39 10.24 16.22 10.24c.85 3.42-2.56 6-4.27 6.83-3.41-.85-6 0-13.65-8.53.85-5.12 2.56-7.68 1.7-8.54" fill="#fff"/><path d="m401.07 194.56c.85-4.27 3.41-6.83 6-6.83-.85-2.56 4.27-16.21 19.63-20.48.85 6.83-6 12.8-6 12.8s22.19-3.41 26.46-9.38c-.86 2.56-5.12 17.92-28.16 17.92 8.53 8.53-2.56 15.36-7.68 12.8 7.68-6.83-4.27-11.1-10.24-6.83" fill="#fff"/><path d="m399.36 236.37s11.95 3.42 13.65-13.65c-2.56-7.68-6-23.89-.85-28.16-5.12-3.41-10.24 0-10.24 0 0 .85-5.12 6.83.85 18.77-14.5-3.41-8.53 10.24-8.53 10.24.85-1.7 8.53-4.26 10.24 6.83 0 1.71-6 6-5.12 6" fill="#00f"/><path d="m412.16 222.72a25 25 0 0 0 11.95-23c-11.1 0-14.51 14.51-14.51 14.51l2.56 8.53" fill="#00f"/><path d="m355.84 221.87s-9.39 8.53-14.51 5.12c-4.26 2.56-8.53-1.71-8.53-1.71s5.12 19.63 24.75 5.12c-.86-4.27-1.71-8.53-1.71-8.53" fill="#fff"/><path d="m341.33 227c.86-4.27 4.27-6 6.83-2.56 3.41.85 6.83-13.66-5.12-11.1 3.41-18.77-6.83-25.6-6.83-25.6s-3.41 20.48-1.7 24.75-2.56-6.83-16.22-10.24c0 15.36 15.36 23 15.36 23s3.42 3.41 7.68 1.71" fill="#00f"/><path d="m333.65 195.41s-8.53 0-3.41 9.39c-4.27.85-12.8-4.27-6.83-12-19.62-.85-28.16-10.24-28.16-18.77 6 6 19.63 3.41 24.75 7.68a18 18 0 0 1 -5.12-13.65s17.07 5.12 20.48 20.48c-.85 1.7-1.71 6.82-1.71 6.82" fill="#fff"/><path d="m349 190.29c-.85 1.71-.85 3.42-1.7 4.27 16.21 0 31.57.85 47.78.85-.85-5.12-4.26-10.24-6-14.5.85-3.42.85-9.39 1.71-13.66s-6-5.12-4.27-9.38c-.85 1.7 5.12 0 5.12 0-2.56 0-3.41-8.54-6-9.39-6-1.71-8.54 0-13.66 0-6.82 0-17.06 0-15.36-10.24 3.42.85 7.68 0 8.54-3.41-.86-.86-12-2.56-13.66-2.56s-13.65 3.41-14.5 4.26c3.41 4.27 6.82 3.42 10.24 6.83 1.7 1.71 2.56 9.39.85 8.53h1.71c-.86.86-1.71 1.71-1.71 2.56h3.41c-.85 1.71-1.7 2.56-2.56 4.27h4.27c-.85 1.71-.85 2.56-1.71 4.27.86 0 1.71-.86 3.42-.86 3.41 7.68-2.56 20.48-6 28.16m34.14-24.74c6.82 0 3.41 15.36.85 16.21-6.83.85-6-16.21-.85-16.21m-17.07 5.12c-2.56-13.66 17.07-9.39 11.09.85-.85 1.71-5.12 11.09-5.12 11.09-5.12 0-6.82-7.68-6-11.94m-8.53 8.53c3.41-4.27-2.56-14.51 5.12-17.07 0 6 0 14.51-3.42 20.48-.85-1.7-1.7-2.56-3.41-1.7a1.85 1.85 0 0 0 1.71-1.71" fill="#923f00"/><path d="m347.31 208.21 23.89 15.36 21.33-14.5s4.27-2.56 4.27-4.27-1.71-.85-2.56-.85l-22.19 15.36-23.05-14.51s-1.7-.85-1.7.85c-.86 1.71 0 2.56 0 2.56" fill="#b4b6b9"/><path d="m426.67 322.56-8.54.85 2.56 2.56h11.1z" fill="#ff7000"/><path d="m423.25 225.28-11.09 6 2.56 2.56h11.09z" fill="#ff7000"/><path d="m420.69 327.68 5.12 3.41 14.51-2.56-4.27-2.53z" fill="#ff7000"/><path d="m418.13 253.44c-1.7-.85-6.82-1.71-13.65 2.56v14.51s9.39-5.12 14.51-4.27c0-3.41 0-9.39-.86-12.8" fill="url(#b)"/><path d="m324.27 238.93c-2.56 6.83 6 17.07 8.53 23 6-6.82 8.53-7.68 8.53 1.71 0 2.56.86 6 0 8.53s-6.82.86-4.26 4.27c5.12 8.53 4.26 13.65 1.7 22.19-.85 3.41-4.26 21.33-9.38 22.18 0 0 .85-12.8 0-14.5-.86-2.56-5.12-8.54-3.42-11.1-1.7 2.56-8.53 12.8-12.8 9.39 1.71 4.27 0 6-.85 10.24-.85 2.56-.85 6-.85 8.53-.86 3.42-6 6.83-5.12 11.95-17.92-6-29.87-19.63-23.9-39.25 1.71-4.27 3.42-8.54 7.68-11.1 4.27-3.41 5.12-8.53 6.83-14.5.85-1.71 2.56-4.27 2.56-6.83-.85-5.12 2.56-6.83 2.56-10.24a140 140 0 0 0 1.71-18.77c0-9.39 3.41-8.54 11.09-12.8 2.56-.86 12.8.85 15.36 2.56 1.71 2.56-4.27 12.8-6 14.5" fill="#8a9396"/><path d="m346.45 193.71h50.35v10.29h-50.35z" fill="#fff"/></g></svg>