<svg viewBox="0 0 512 512" xmlns="http://www.w3.org/2000/svg" xmlns:xlink="http://www.w3.org/1999/xlink"><clipPath id="a"><circle cx="256" cy="256" r="256"/></clipPath><g clip-path="url(#a)"><path d="m512 256c0 141.38-114.62 256-256 256s-256-114.62-256-256c0 .06 256-256 256-256 141.38 0 256 114.62 256 256z" fill="#0052b4"/><path d="m255.32 256h.68v-.69z" fill="#f0f0f0"/><path d="m256 133.57v-133.57c-141.41 0-256 114.63-256 256h133.57v-75.21l75.21 75.21h46.54l.68-.69v-46.53l-75.21-75.22z" fill="#f0f0f0"/><path d="m129.51 33.39a257.2 257.2 0 0 0 -96.12 96.12v126.49h66.78v-155.83h155.83v-66.78z" fill="#d80027"/><path d="m256 224.5-91-90.95h-31.44l122.44 122.45z" fill="#d80027"/><path d="m444.82 200.78v-66.78s-47.23-10-77.91-10-77.91 10-77.91 10v66.78z" fill="#ffda44"/><path d="m289 200v61.85c0 55.23 78 72.15 78 72.15s78-16.92 78-72.15v-61.85z" fill="#338af3"/><circle cx="367.5" cy="162.5" r="19.5"/></g></svg>