<svg viewBox="0 0 512 512" xmlns="http://www.w3.org/2000/svg" xmlns:xlink="http://www.w3.org/1999/xlink"><clipPath id="a"><circle cx="256" cy="256" r="256"/></clipPath><g clip-path="url(#a)"><circle cx="256" cy="256" fill="#4da6ea" r="256"/><path d="m428.69 463a48.43 48.43 0 0 1 -32.51-12.07 29.82 29.82 0 0 0 -40.64 0 49.61 49.61 0 0 1 -65 0 29.74 29.74 0 0 0 -40.58 0 49.61 49.61 0 0 1 -65 0 29.74 29.74 0 0 0 -40.58 0 49.61 49.61 0 0 1 -65 0 28.92 28.92 0 0 0 -20.29-8v-20.19a48.33 48.33 0 0 1 32.48 12.07 29.76 29.76 0 0 0 40.59 0 49.61 49.61 0 0 1 65 0 29.74 29.74 0 0 0 40.58 0 49.61 49.61 0 0 1 65 0 29.74 29.74 0 0 0 40.59 0 49.69 49.69 0 0 1 65 0 29.82 29.82 0 0 0 40.67 0 48.51 48.51 0 0 1 32.51-12.07v20.12a29 29 0 0 0 -20.33 8 48.48 48.48 0 0 1 -32.49 12.14z" fill="#f4f4e6"/><path d="m428.69 503.2a48.53 48.53 0 0 1 -32.51-12.07 29.82 29.82 0 0 0 -40.64 0 49.61 49.61 0 0 1 -65 0 29.72 29.72 0 0 0 -40.58 0 49.63 49.63 0 0 1 -65 0 29.74 29.74 0 0 0 -40.58 0 49.61 49.61 0 0 1 -65 0 28.88 28.88 0 0 0 -20.29-8v-20.13a48.33 48.33 0 0 1 32.54 12 29.76 29.76 0 0 0 40.59 0 49.61 49.61 0 0 1 65 0 29.74 29.74 0 0 0 40.58 0 49.61 49.61 0 0 1 65 0 29.76 29.76 0 0 0 40.59 0 49.69 49.69 0 0 1 65 0 29.84 29.84 0 0 0 40.61 0 48.51 48.51 0 0 1 32.54-12v20.12a29 29 0 0 0 -20.33 8 48.53 48.53 0 0 1 -32.52 12.07z" fill="#f4f4e6"/><path d="m109.43 121h60.34v40.22h-60.34z" fill="#f9bb4b"/><path d="m210 111h60.34v40.23h-60.34z" fill="#f9bb4b"/><path d="m310.57 111h60.34v40.23h-60.34z" fill="#f9bb4b"/><path d="m300.51 191.43h-80.45a165.78 165.78 0 0 0 0 130.74h80.45a165.86 165.86 0 0 1 0-130.74z" fill="#ffd782"/><path d="m391 191.43h-50.26a165.78 165.78 0 0 0 0 130.74h50.26a165.86 165.86 0 0 1 0-130.74z" fill="#ffd782"/><g fill="#fcf05a"><path d="m149.8 323.82-13.69-82.1 23.47 18.46 13 77.87z"/><path d="m250.23 151.21h20.11v40.22h-20.11z"/><path d="m350.8 151.21h20.11v40.22h-20.11z"/><path d="m149.66 161.26h20.11v40.23h-20.11z"/></g><path d="m169.77 201.49h-40.22a56.74 56.74 0 0 0 0 60.34h40.22a56.79 56.79 0 0 1 0-60.34z" fill="#f9bb4b"/><path d="m119.49 322.17 60.34 90.52h201.17l60.34-90.52z" fill="#f9bb4b"/></g></svg>