<svg viewBox="0 0 512 512" xmlns="http://www.w3.org/2000/svg" xmlns:xlink="http://www.w3.org/1999/xlink"><clipPath id="a"><circle cx="256" cy="256" r="256"/></clipPath><g clip-path="url(#a)"><circle cx="256" cy="256" fill="#ffda44" r="256"/><path d="m256 0a255 255 0 0 0 -164.58 59.93l275.88 196.07-275.88 196.07a255 255 0 0 0 164.58 59.93c141.38 0 256-114.62 256-256s-114.62-256-256-256z" fill="#d80027"/><path d="m75 75c-100 100-100 262.05 0 362l181-181z"/><path d="m71 197.36 39 36.87 47.11-25.67-23.11 48.44 39 36.88-53.21-6.88-23 48.45-9.85-52.73-53.19-6.93 47.11-25.67z" fill="#f0f0f0"/></g></svg>