<svg viewBox="0 0 512 512" xmlns="http://www.w3.org/2000/svg" xmlns:xlink="http://www.w3.org/1999/xlink"><clipPath id="a"><circle cx="256" cy="256" r="256"/></clipPath><g clip-path="url(#a)"><path d="m0 256c0 91 47.58 170.94 119.18 216.32v-432.65c-71.6 45.39-119.18 125.33-119.18 216.33z" fill="#2174ba"/><path d="m392.82 39.67v432.65c71.61-45.38 119.18-125.32 119.18-216.32s-47.57-170.94-119.18-216.33z" fill="#1c8c44"/><path d="m245.68.22 1.74-.06z" fill="#fbd015"/><path d="m256 0c58.67 0 93 88.18 102.94 191.35l2.85 47.36c3.33 133.5-31.91 273.29-105.79 273.29a254.71 254.71 0 0 0 136.82-39.68v-432.65a254.7 254.7 0 0 0 -136.82-39.67z" fill="#ffd52b"/><path d="m247.42 511.84-1.74-.06z" fill="#fbd015"/><path d="m373.67 217.56-14.73-26.21c1.5 15.53 2.45 31.4 2.85 47.36z" fill="#1c8c44"/><path d="m247.42.16c2.85-.1 5.71-.16 8.58-.16-2.85 0-5.7.06-8.58.16z" fill="#1a9647"/><path d="m256 512c-2.87 0-5.73-.06-8.58-.16 2.88.1 5.73.16 8.58.16z" fill="#1a9647"/><path d="m361.79 238.71-42.79 76.1-54.63-97.25 54.63-97.25 39.9 71c-9.9-103.13-44.23-191.31-102.9-191.31-2.87 0-5.73.06-8.58.16l-1.74.06a254.65 254.65 0 0 0 -126.5 39.45v432.65a254.56 254.56 0 0 0 126.5 39.46l1.74.07c2.85.09 5.71.15 8.58.15 73.87 0 109.13-139.79 105.79-273.29z" fill="#ffd52b"/><g fill="#1a9647"><path d="m264.41 217.56 54.59 97.25 42.75-76.1c-.39-16-1.34-31.83-2.85-47.36l-39.9-71z"/><path d="m193.82 120.31-54.64 97.25 54.64 97.25 54.62-97.25z"/><path d="m256.87 226.89-54.63 97.24 54.63 97.25 54.63-97.25z"/></g></g></svg>